<svg width="47" height="38" viewBox="0 0 47 38" fill="none" xmlns="http://www.w3.org/2000/svg">
<path d="M12.21 29.4117C12.21 29.035 12.3375 28.6796 12.5887 28.3555C12.9146 27.9355 12.8638 27.3092 12.4754 26.9568C12.087 26.6045 11.508 26.6593 11.1822 27.0793C10.6535 27.761 10.374 28.5675 10.374 29.4117C10.374 30.4162 10.7058 31.3133 11.3335 32.0063C11.61 32.3115 11.7685 32.75 11.7685 33.2095C11.7685 33.6689 11.61 34.1074 11.3336 34.4127C10.7059 35.1056 10.3741 36.0029 10.3741 37.0072C10.3741 37.5556 10.7851 38.0001 11.2921 38.0001C11.7991 38.0001 12.2101 37.5556 12.2101 37.0072C12.2101 36.5263 12.3564 36.1209 12.6451 35.8023C13.2638 35.1192 13.6045 34.1984 13.6045 33.2095C13.6045 32.2206 13.2638 31.2997 12.6451 30.6167C12.3522 30.2936 12.21 29.8994 12.21 29.4117Z" fill="#288173"/>
<path d="M20.1768 29.4117C20.1768 29.035 20.3043 28.6796 20.5555 28.3555C20.8814 27.9355 20.8306 27.3092 20.4422 26.9568C20.0538 26.6045 19.4747 26.6593 19.149 27.0793C18.6203 27.761 18.3408 28.5675 18.3408 29.4117C18.3408 30.4161 18.6726 31.3132 19.3003 32.0063C19.5768 32.3115 19.7353 32.75 19.7353 33.2095C19.7353 33.6689 19.5768 34.1074 19.3003 34.4127C18.6727 35.1057 18.3408 36.003 18.3408 37.0072C18.3408 37.5556 18.7518 38.0001 19.2588 38.0001C19.7658 38.0001 20.1768 37.5556 20.1768 37.0072C20.1768 36.5195 20.319 36.1255 20.6117 35.8023C21.2305 35.1192 21.5712 34.1985 21.5712 33.2095C21.5712 32.2205 21.2305 31.2997 20.6118 30.6167C20.3191 30.2936 20.1768 29.8994 20.1768 29.4117Z" fill="#288173"/>
<path d="M28.1426 29.4117C28.1426 29.035 28.27 28.6796 28.5213 28.3555C28.8472 27.9355 28.7965 27.3092 28.4081 26.9568C28.0198 26.6045 27.4407 26.6593 27.1149 27.0793C26.5862 27.761 26.3066 28.5675 26.3066 29.4117C26.3066 30.4161 26.6384 31.3133 27.2661 32.0063C27.5426 32.3115 27.7011 32.75 27.7011 33.2095C27.7011 33.6689 27.5426 34.1074 27.2662 34.4127C26.6385 35.1056 26.3066 36.0029 26.3066 37.0072C26.3066 37.5556 26.7176 38.0001 27.2246 38.0001C27.7316 38.0001 28.1426 37.5556 28.1426 37.0072C28.1426 36.5264 28.2889 36.121 28.5776 35.8023C29.1963 35.1192 29.5371 34.1984 29.5371 33.2095C29.5371 32.2206 29.1963 31.2997 28.5776 30.6167C28.285 30.2936 28.1426 29.8994 28.1426 29.4117Z" fill="#288173"/>
<path d="M36.1083 29.4117C36.1083 29.035 36.2357 28.6796 36.4871 28.3555C36.8129 27.9355 36.7623 27.3092 36.3739 26.9568C35.9856 26.6045 35.4065 26.6593 35.0806 27.0793C34.5519 27.7609 34.2725 28.5675 34.2725 29.4117C34.2725 30.4162 34.6042 31.3133 35.2319 32.0063C35.5084 32.3115 35.6669 32.75 35.6669 33.2095C35.6669 33.6689 35.5084 34.1074 35.232 34.4127C34.6043 35.1056 34.2726 36.0029 34.2726 37.0072C34.2726 37.5556 34.6835 38.0001 35.1905 38.0001C35.6975 38.0001 36.1085 37.5556 36.1085 37.0072C36.1085 36.5263 36.2548 36.1209 36.5435 35.8023C37.1622 35.1192 37.503 34.1984 37.503 33.2095C37.503 32.2206 37.1622 31.2997 36.5435 30.6167C36.2505 30.2936 36.1083 29.8994 36.1083 29.4117Z" fill="#288173"/>
<path d="M19.7051 14.8793H27.5705C28.0775 14.8793 28.4885 14.4348 28.4885 13.8864C28.4885 13.3381 28.0775 12.8936 27.5705 12.8936H19.7051C19.1981 12.8936 18.7871 13.3381 18.7871 13.8864C18.7871 14.4348 19.1981 14.8793 19.7051 14.8793Z" fill="#288173"/>
<path d="M47 3.0818C47 1.38244 45.7222 0 44.1515 0H2.84938C1.27818 0 0 1.38254 0 3.0818V5.43158V5.43178V16.1765C0 19.3162 2.36166 21.8705 5.26455 21.8705H5.79101C5.68581 22.3144 5.5572 22.7733 5.39958 23.23C5.29438 23.5348 5.33395 23.876 5.50552 24.1433C5.67709 24.4106 5.95881 24.57 6.25963 24.57H19.7499C20.2569 24.57 20.6679 24.1255 20.6679 23.5772C20.6679 23.0288 20.2569 22.5843 19.7499 22.5843H7.51578C7.83486 21.3103 7.97843 20.1361 8.04297 19.3516H38.9571C39.0217 20.1361 39.1652 21.3104 39.4843 22.5843H27.8276C27.3206 22.5843 26.9096 23.0288 26.9096 23.5772C26.9096 24.1255 27.3206 24.57 27.8276 24.57H40.7404C41.0412 24.57 41.3229 24.4107 41.4945 24.1433C41.666 23.876 41.7056 23.5349 41.6004 23.23C41.4431 22.7742 41.3147 22.3151 41.2096 21.8705H41.7354C44.6383 21.8705 47 19.3162 47 16.1765V5.43188V5.43178V3.0818ZM1.83594 3.0818C1.83594 2.47746 2.29061 1.9857 2.84938 1.9857H44.1515C44.7099 1.9857 45.1641 2.47746 45.1641 3.0818V4.43873H1.83594V3.0818ZM45.1641 16.1766C45.1641 18.2214 43.626 19.8849 41.7354 19.8849H40.8597C40.7576 19.0406 40.7423 18.4496 40.7406 18.3609C40.7406 18.36 40.7405 18.3583 40.7405 18.3575C40.7404 18.3526 40.7403 18.3494 40.7403 18.3487C40.7358 17.8725 40.4217 17.4773 40.0061 17.3859C39.9467 17.3729 39.8853 17.366 39.8223 17.366H7.1776C6.68428 17.366 6.28212 17.7875 6.26146 18.3167C6.26101 18.3271 6.25981 18.3372 6.25963 18.3477C6.25954 18.3556 6.25109 18.9744 6.14112 19.8849H5.26455C3.37399 19.8849 1.83594 18.2214 1.83594 16.1766V6.42482H45.1641V16.1766Z" fill="#288173"/>
</svg>
