<svg width="47" height="38" viewBox="0 0 47 38" fill="none" xmlns="http://www.w3.org/2000/svg">
<g clip-path="url(#clip0_4381_398)">
<path d="M44.6499 17.7334H43.0832V17.1C43.0818 16.051 42.0308 15.2013 40.7334 15.2001H29.7666C28.4692 15.2013 27.4182 16.051 27.4168 17.1V17.7334H5.48343V5.06668C5.48164 3.079 7.37602 1.42648 9.82764 1.27717C12.2789 1.12786 14.4584 2.53222 14.8248 4.49786C12.5927 4.82778 10.9704 6.39884 10.9665 8.23344V8.86662C10.9665 9.21655 11.3176 9.50008 11.75 9.50008H19.5832C20.016 9.50008 20.3667 9.21655 20.3667 8.86662V8.23344C20.3628 6.36724 18.6846 4.77937 16.4055 4.4851C16.025 1.81787 13.1366 -0.145742 9.82155 0.00849394C6.5061 0.16302 3.91607 2.38175 3.91679 5.06668V17.7334H2.35014C1.0528 17.7346 0.00143433 18.5843 0 19.6333C0.00143433 20.4366 0.629311 21.1516 1.56664 21.418V26.6C1.57561 31.2465 6.01772 35.1003 11.75 35.4346V36.1C11.75 37.1495 12.8021 38.0001 14.1001 38.0001C15.3979 38.0001 16.4499 37.1495 16.4499 36.1V35.4668H30.5501V36.1C30.5501 37.1495 31.6021 38.0001 32.8999 38.0001C34.1979 38.0001 35.25 37.1495 35.25 36.1V35.4346C40.9823 35.1003 45.4244 31.2465 45.4334 26.6V21.4165C46.3696 21.1501 46.9971 20.4358 47 19.6333C46.9939 18.5861 45.9454 17.7384 44.6499 17.7334ZM18.8001 8.23344H12.5335C12.5335 6.8343 13.9363 5.70014 15.6668 5.70014C17.3973 5.70014 18.8001 6.8343 18.8001 8.23344ZM39.9499 17.7334V17.1C39.9499 16.7503 40.3006 16.4668 40.7334 16.4668C41.1659 16.4668 41.5166 16.7503 41.5166 17.1V17.7334H39.9499ZM28.9834 17.1C28.9838 16.7503 29.3341 16.4671 29.7666 16.4668H38.5278C38.4349 16.6694 38.3858 16.8837 38.3833 17.1V24.0667H31.3332C30.9008 24.0667 30.5501 24.3502 30.5501 24.7001C30.5501 25.0498 30.9008 25.3333 31.3332 25.3333H38.3833V26.6H28.9834V17.1ZM14.8833 36.1C14.8833 36.4499 14.5326 36.7334 14.1001 36.7334C13.6673 36.7334 13.3166 36.4499 13.3166 36.1V35.4668H14.8833V36.1ZM33.6834 36.1C33.6834 36.4499 33.3327 36.7334 32.8999 36.7334C32.4674 36.7334 32.1167 36.4499 32.1167 36.1V35.4668H33.6834V36.1ZM34.4665 34.2001H12.5335C7.34447 34.1952 3.13938 30.7954 3.13329 26.6V21.5334H23.5C23.9324 21.5334 24.2835 21.2498 24.2835 20.8999C24.2835 20.5503 23.9324 20.2667 23.5 20.2667H2.35014C2.13894 20.267 1.93706 20.1972 1.79219 20.0731C1.64625 19.9574 1.56485 19.7985 1.56664 19.6333C1.56736 19.2836 1.91769 19.0004 2.35014 19.0001H27.4168V26.6C27.4186 27.0505 27.7169 27.466 28.1999 27.6906V29.1333C28.1999 29.4832 28.5506 29.7667 28.9834 29.7667C29.4159 29.7667 29.7666 29.4832 29.7666 29.1333V27.8666H31.3332V29.1333C31.3332 29.4832 31.6839 29.7667 32.1167 29.7667C32.5492 29.7667 32.8999 29.4832 32.8999 29.1333V27.8666H34.4665V29.1333C34.4665 29.4832 34.8176 29.7667 35.25 29.7667C35.6824 29.7667 36.0335 29.4832 36.0335 29.1333V27.8666H37.6001V29.1333C37.6001 29.4832 37.9508 29.7667 38.3833 29.7667C38.8161 29.7667 39.1668 29.4832 39.1668 29.1333V27.6903C39.6498 27.466 39.9481 27.0505 39.9499 26.6V21.5334H43.8667V26.6C43.861 30.7954 39.6559 34.1952 34.4665 34.2001ZM44.6499 20.2667H39.9499V19.0001H44.6499C44.8614 18.9998 45.0633 19.07 45.2085 19.194C45.3541 19.3097 45.4352 19.4683 45.4334 19.6333C45.433 19.9829 45.0823 20.2664 44.6499 20.2667Z" fill="#288173"/>
<path d="M16.4495 11.3998C16.4495 11.0501 16.0988 10.7666 15.6663 10.7666C15.2335 10.7666 14.8828 11.0501 14.8828 11.3998V12.0332C14.8828 12.3829 15.2335 12.6664 15.6663 12.6664C16.0988 12.6664 16.4495 12.3829 16.4495 12.0332V11.3998Z" fill="#288173"/>
<path d="M15.6663 13.9331C15.2335 13.9331 14.8828 14.2169 14.8828 14.5666V15.2C14.8828 15.5497 15.2335 15.8332 15.6663 15.8332C16.0988 15.8332 16.4495 15.5497 16.4495 15.2V14.5666C16.4495 14.2169 16.0988 13.9331 15.6663 13.9331Z" fill="#288173"/>
<path d="M12.9139 10.232L12.3656 10.6846C12.0626 10.9345 12.0676 11.3354 12.3767 11.5804C12.6858 11.8251 13.1818 11.821 13.4848 11.5711L14.033 11.1189C14.336 10.8689 14.3306 10.468 14.0219 10.223C13.7128 9.97803 13.2165 9.98238 12.9139 10.232Z" fill="#288173"/>
<path d="M10.1727 12.4938L9.62441 12.9464C9.32141 13.1963 9.32643 13.5972 9.63553 13.8419C9.94462 14.0869 10.4405 14.0829 10.7435 13.8329L11.2918 13.3804C11.5948 13.1305 11.5898 12.7295 11.2807 12.4848C10.9716 12.2399 10.4753 12.2439 10.1727 12.4938Z" fill="#288173"/>
<path d="M17.3119 10.2232C17.0031 10.4682 16.9985 10.8689 17.3008 11.1191L17.849 11.5713C18.0452 11.7331 18.3328 11.7981 18.6038 11.7415C18.8749 11.6853 19.0883 11.5163 19.1636 11.2982C19.2385 11.0802 19.1643 10.8465 18.9685 10.6848L18.4199 10.2322C18.2747 10.1122 18.076 10.0438 17.8684 10.042C17.6604 10.0403 17.4603 10.1055 17.3119 10.2232Z" fill="#288173"/>
<path d="M20.0421 13.3804L20.5903 13.8329C20.7865 13.9944 21.0741 14.0594 21.3452 14.0031C21.6162 13.9466 21.8296 13.7779 21.9049 13.5598C21.9798 13.3418 21.9056 13.1079 21.7098 12.9464L21.1612 12.4938C20.8586 12.2439 20.3626 12.2399 20.0535 12.4848C19.7444 12.7295 19.7394 13.1308 20.0421 13.3804Z" fill="#288173"/>
<path d="M14.8836 31.6666H12.5338C9.07417 31.6634 6.27078 29.3968 6.26684 26.6C6.26684 26.2503 5.91615 25.9668 5.4837 25.9668C5.05089 25.9668 4.7002 26.2503 4.7002 26.6C4.70522 30.0961 8.20927 32.9294 12.5338 32.9332H14.8836C15.3164 32.9332 15.6671 32.6497 15.6671 32.3C15.6671 31.9501 15.3164 31.6666 14.8836 31.6666Z" fill="#288173"/>
<path d="M5.4837 24.6999C5.91615 24.6999 6.26684 24.4161 6.26684 24.0665V23.433C6.26684 23.0833 5.91615 22.7998 5.4837 22.7998C5.05089 22.7998 4.7002 23.0833 4.7002 23.433V24.0665C4.7002 24.4161 5.05089 24.6999 5.4837 24.6999Z" fill="#288173"/>
</g>
<defs>
<clipPath id="clip0_4381_398">
<rect width="47" height="38" fill="white"/>
</clipPath>
</defs>
</svg>
