<svg width="47" height="38" viewBox="0 0 47 38" fill="none" xmlns="http://www.w3.org/2000/svg">
<path d="M41.7098 37.2934C41.4215 37.2934 41.1876 37.1042 41.1876 36.8712C41.1876 36.6381 41.4215 36.449 41.7098 36.449C41.9312 36.449 42.1098 36.3831 42.255 36.2488C42.4002 36.1137 42.4566 35.9626 42.4273 35.7844L41.2878 28.9908C41.2492 28.7594 41.4497 28.5475 41.7349 28.5154C42.021 28.485 42.2842 28.6463 42.3229 28.8768L43.4624 35.6704C43.5334 36.0918 43.3872 36.4836 43.0415 36.8036C42.6968 37.1245 42.2362 37.2934 41.7098 37.2934ZM30.8517 37.2934C30.3264 37.2934 29.8658 37.1245 29.5201 36.8045C29.1744 36.4844 29.0292 36.0926 29.0992 35.6712L30.2387 28.8777C30.2773 28.6463 30.5405 28.4858 30.8267 28.5162C31.1129 28.5475 31.3123 28.7603 31.2737 28.9917L30.1342 35.7852C30.1039 35.9626 30.1603 36.1146 30.3065 36.2497C30.4517 36.3848 30.6303 36.4498 30.8517 36.4498C31.14 36.4498 31.374 36.639 31.374 36.872C31.374 37.1051 31.14 37.2934 30.8517 37.2934Z" fill="#288173"/>
<path d="M42.8048 35.3142H29.7566C29.4683 35.3142 29.2344 35.125 29.2344 34.8919C29.2344 34.6589 29.4683 34.4697 29.7566 34.4697H42.8048C43.0931 34.4697 43.3271 34.6589 43.3271 34.8919C43.3271 35.125 43.0931 35.3142 42.8048 35.3142Z" fill="#288173"/>
<path d="M36.2803 31.3367C31.8801 31.3367 28.3008 28.4428 28.3008 24.8851C28.3008 24.652 28.5347 24.4629 28.823 24.4629C29.1113 24.4629 29.3452 24.652 29.3452 24.8851C29.3452 27.9766 32.4566 30.4922 36.2803 30.4922C40.104 30.4922 43.2154 27.9766 43.2154 24.8851C43.2154 24.652 43.4494 24.4629 43.7377 24.4629C44.0259 24.4629 44.2599 24.652 44.2599 24.8851C44.2599 28.4419 40.6806 31.3367 36.2803 31.3367Z" fill="#288173"/>
<path d="M44.2827 25.3072H28.2776C27.3638 25.3072 26.6201 24.706 26.6201 23.9671C26.6201 23.2282 27.3638 22.627 28.2776 22.627H44.2838C45.1977 22.627 45.9413 23.2282 45.9413 23.9671C45.9413 24.706 45.1976 25.3072 44.2827 25.3072ZM28.2776 23.4706C27.9392 23.4706 27.6646 23.6926 27.6646 23.9662C27.6646 24.2398 27.9392 24.4619 28.2776 24.4619H44.2838C44.6222 24.4619 44.8968 24.2398 44.8968 23.9662C44.8968 23.6926 44.6222 23.4706 44.2838 23.4706H28.2776Z" fill="#288173"/>
<path d="M41.533 23.4713C41.4672 23.4713 41.4014 23.4612 41.3366 23.4401C41.0692 23.3523 40.9408 23.1057 41.0494 22.8904C41.5351 21.9243 41.7909 20.8215 41.7909 19.7017C41.7909 16.1829 39.3187 13.3203 36.2805 13.3203C33.2422 13.3203 30.77 16.1829 30.77 19.7017C30.77 20.8215 31.0269 21.9243 31.5115 22.8904C31.6201 23.1065 31.4917 23.3523 31.2243 23.4401C30.9569 23.5279 30.653 23.4241 30.5444 23.2079C30.0086 22.1422 29.7266 20.9296 29.7266 19.7017C29.7266 15.7177 32.6667 12.4758 36.2815 12.4758C39.8963 12.4758 42.8364 15.7168 42.8364 19.7017C42.8364 20.9296 42.5534 22.1422 42.0176 23.2079C41.9351 23.3717 41.7398 23.4713 41.533 23.4713Z" fill="#288173"/>
<path d="M44.2831 23.4707C43.9949 23.4707 43.7609 23.2815 43.7609 23.0485V13.5848C43.7609 12.4862 42.6559 11.5927 41.2971 11.5927H31.2641C29.9053 11.5927 28.8003 12.4862 28.8003 13.5848V23.0493C28.8003 23.2824 28.5663 23.4715 28.2781 23.4715C27.9898 23.4715 27.7559 23.2824 27.7559 23.0493V13.5848C27.7559 12.0209 29.3298 10.7483 31.2641 10.7483H41.2971C43.2314 10.7483 44.8054 12.0209 44.8054 13.5848V23.0493C44.8054 23.2824 44.5725 23.4707 44.2831 23.4707Z" fill="#288173"/>
<path d="M39.3308 33.3254H33.2312C32.9429 33.3254 32.709 33.1362 32.709 32.9032C32.709 32.6701 32.9429 32.481 33.2312 32.481H39.3308C39.619 32.481 39.853 32.6701 39.853 32.9032C39.853 33.1362 39.619 33.3254 39.3308 33.3254Z" fill="#288173"/>
<path d="M38.1949 28.322H34.366C34.0777 28.322 33.8438 28.1328 33.8438 27.8998C33.8438 27.6667 34.0777 27.4775 34.366 27.4775H38.1949C38.4832 27.4775 38.7171 27.6667 38.7171 27.8998C38.7171 28.1328 38.4832 28.322 38.1949 28.322Z" fill="#288173"/>
<path d="M45.987 37.2932H26.575C26.2867 37.2932 26.0527 37.104 26.0527 36.871C26.0527 36.6379 26.2867 36.4487 26.575 36.4487H45.987C46.2753 36.4487 46.5092 36.6379 46.5092 36.871C46.5092 37.104 46.2753 37.2932 45.987 37.2932Z" fill="#288173"/>
<path d="M15.5506 37.2934H8.95386C8.6656 37.2934 8.43164 37.1042 8.43164 36.8711V26.9861C8.43164 26.753 8.6656 26.5639 8.95386 26.5639C9.24213 26.5639 9.47609 26.753 9.47609 26.9861V36.4498H15.0284V26.9464C15.0284 26.7133 15.2623 26.5242 15.5506 26.5242C15.8388 26.5242 16.0728 26.7133 16.0728 26.9464V36.8711C16.0728 37.1051 15.8388 37.2934 15.5506 37.2934Z" fill="#288173"/>
<path d="M12.1249 27.8245C10.3744 27.8245 8.65315 27.4699 7.00815 26.7698C6.63633 26.6111 6.36268 26.3459 6.23839 26.0208C6.1141 25.6965 6.15275 25.352 6.3491 25.0514C6.48906 24.836 6.70108 24.6587 6.96219 24.5388C7.21286 24.4239 7.53141 24.494 7.6745 24.6975C7.81759 24.9002 7.72986 25.1578 7.47919 25.2735C7.3925 25.3131 7.32148 25.3731 7.27344 25.4457C7.20764 25.547 7.19406 25.6627 7.23584 25.7717C7.27761 25.8806 7.36953 25.9701 7.49486 26.0233C9.03019 26.6761 10.6324 26.9978 12.2586 26.9801C13.7866 26.9623 15.3773 26.644 16.9878 26.0318C17.1163 25.9828 17.2134 25.8975 17.2615 25.7911C17.3095 25.6839 17.3032 25.5682 17.2437 25.4651C17.1967 25.3841 17.1215 25.3191 17.0265 25.2751C16.7758 25.1603 16.687 24.9027 16.8291 24.7001C16.9711 24.4974 17.2897 24.4256 17.5403 24.5405C17.8255 24.6705 18.05 24.8673 18.1889 25.1079C18.3665 25.4153 18.3853 25.7607 18.2422 26.0799C18.0991 26.3991 17.8108 26.6541 17.4307 26.7977C15.6854 27.4606 13.9495 27.8068 12.2721 27.8254C12.2241 27.8245 12.174 27.8245 12.1249 27.8245Z" fill="#288173"/>
<path d="M12.2521 26.1247C5.79639 26.1247 0.544922 22.589 0.544922 18.2435C0.544922 18.0104 0.778877 17.8213 1.06714 17.8213H23.4381C23.7264 17.8213 23.9603 18.0104 23.9603 18.2435C23.9603 22.589 18.7078 26.1247 12.2521 26.1247ZM1.60817 18.6657C1.9403 22.35 6.58808 25.2803 12.2521 25.2803C17.9161 25.2803 22.5639 22.35 22.896 18.6657H1.60817Z" fill="#288173"/>
<path d="M13.9733 18.6657C13.685 18.6657 13.4511 18.4765 13.4511 18.2435V12.7748C13.4511 12.1516 13.1492 11.5648 12.6009 11.1214C12.0525 10.6781 11.3256 10.434 10.5559 10.434C9.7861 10.434 9.05917 10.6781 8.51083 11.1214C8.07634 11.4727 7.79748 11.9135 7.6993 12.3915H8.38759C8.47741 12.0604 8.68317 11.7548 8.98814 11.5082C9.40906 11.1679 9.96574 10.9812 10.5548 10.9812C11.1449 10.9812 11.7016 11.1687 12.1215 11.5082C12.5424 11.8485 12.7732 12.2977 12.7732 12.7748V18.2435C12.7732 18.4765 12.5393 18.6657 12.251 18.6657C11.9627 18.6657 11.7288 18.4765 11.7288 18.2435V12.7748C11.7288 12.5232 11.6055 12.2851 11.3831 12.1052C11.1595 11.9245 10.865 11.8257 10.5548 11.8257C10.2446 11.8257 9.94903 11.9253 9.72657 12.1052C9.50306 12.2859 9.38086 12.5232 9.38086 12.7748C9.38086 12.796 9.37981 12.8162 9.37877 12.8365C9.3631 13.0603 9.13437 13.2359 8.85759 13.2359H7.13948C6.86166 13.2359 6.63292 13.0603 6.6183 12.8365C6.61726 12.8162 6.61621 12.7951 6.61621 12.7748C6.61621 11.9262 7.02668 11.1273 7.77241 10.5244C8.51814 9.92147 9.50723 9.5896 10.5559 9.5896C11.6055 9.5896 12.5936 9.92147 13.3393 10.5244C14.085 11.1273 14.4955 11.9262 14.4955 12.7748V18.2435C14.4955 18.4765 14.2615 18.6657 13.9733 18.6657Z" fill="#288173"/>
<path d="M7.01832 18.6657C6.73005 18.6657 6.49609 18.4766 6.49609 18.2435V16.118C6.49609 15.885 6.73005 15.6958 7.01832 15.6958C7.30658 15.6958 7.54054 15.885 7.54054 16.118V18.2435C7.54054 18.4766 7.30658 18.6657 7.01832 18.6657Z" fill="#288173"/>
<path d="M8.33273 16.5402H5.70386C5.4156 16.5402 5.18164 16.3511 5.18164 16.118C5.18164 15.885 5.4156 15.6958 5.70386 15.6958H8.33273C8.621 15.6958 8.85495 15.885 8.85495 16.118C8.85495 16.3511 8.62204 16.5402 8.33273 16.5402Z" fill="#288173"/>
<path d="M17.4871 18.6657C17.1988 18.6657 16.9648 18.4766 16.9648 18.2435V16.118C16.9648 15.885 17.1988 15.6958 17.4871 15.6958C17.7753 15.6958 18.0093 15.885 18.0093 16.118V18.2435C18.0093 18.4766 17.7753 18.6657 17.4871 18.6657Z" fill="#288173"/>
<path d="M18.8005 16.5402H16.1716C15.8834 16.5402 15.6494 16.3511 15.6494 16.118C15.6494 15.885 15.8834 15.6958 16.1716 15.6958H18.8005C19.0888 15.6958 19.3227 15.885 19.3227 16.118C19.3227 16.3511 19.0888 16.5402 18.8005 16.5402Z" fill="#288173"/>
<path d="M30.1929 9.48408H15.3357C15.0474 9.48408 14.8135 9.29492 14.8135 9.06186V1.25328C14.8135 1.02021 15.0474 0.831055 15.3357 0.831055H30.1929C30.4812 0.831055 30.7151 1.02021 30.7151 1.25328V9.06101C30.7151 9.29492 30.4812 9.48408 30.1929 9.48408ZM15.8579 8.63963H29.6707V1.6755H15.8579V8.63963Z" fill="#288173"/>
<path d="M21.0759 6.88481C20.9872 6.88481 20.8973 6.86623 20.8148 6.82823C20.5652 6.7117 20.4796 6.4533 20.6237 6.25147L22.488 3.6413C22.6322 3.43947 22.9518 3.37023 23.2014 3.48676C23.451 3.6033 23.5367 3.8617 23.3925 4.06352L21.5282 6.6737C21.4311 6.80881 21.2556 6.88481 21.0759 6.88481Z" fill="#288173"/>
<path d="M23.865 6.88498C23.7762 6.88498 23.6864 6.8664 23.6039 6.8284C23.3543 6.71187 23.2686 6.45347 23.4128 6.25165L23.9987 5.43085C24.1428 5.22902 24.4624 5.15978 24.7121 5.27631C24.9617 5.39285 25.0473 5.65125 24.9032 5.85307L24.3173 6.67387C24.2212 6.80898 24.0457 6.88498 23.865 6.88498Z" fill="#288173"/>
</svg>
