<svg width="47" height="38" viewBox="0 0 47 38" fill="none" xmlns="http://www.w3.org/2000/svg">
<path d="M38.3266 34.6536L35.763 36.7263C35.4045 37.0161 35.4045 37.4861 35.763 37.776C35.9423 37.9209 36.1772 37.9934 36.4121 37.9934C36.647 37.9934 36.8819 37.9209 37.0612 37.776L39.6248 35.7033C39.9833 35.4134 39.9833 34.9435 39.6248 34.6536C39.2663 34.3638 38.6853 34.3638 38.3266 34.6536Z" fill="#288173"/>
<path d="M45.8816 18.4851C45.1708 18.0018 44.2383 17.7981 43.3234 17.927C41.8165 18.1389 40.7227 19.1903 40.7227 20.4271V25.1392C40.7227 25.3175 40.7074 25.4939 40.6805 25.6681C40.5848 25.5651 40.4797 25.466 40.3638 25.3723C39.0373 24.2997 36.8786 24.2997 35.552 25.3723L31.6383 28.5366C29.5154 28.6135 27.5329 29.3184 26.0206 30.5412C24.9305 31.4225 24.0819 32.4469 23.5 33.5617C22.9182 32.4469 22.0696 31.4225 20.9795 30.5412C19.4671 29.3184 17.4848 28.6135 15.3619 28.5366L11.4481 25.3723C10.1214 24.2997 7.96291 24.2997 6.63624 25.3723C6.5204 25.466 6.41529 25.5651 6.31963 25.6681C6.29265 25.4939 6.27741 25.3176 6.27741 25.1392V20.4271C6.27741 19.1905 5.18364 18.139 3.67659 17.927C2.76146 17.7985 1.82916 18.0018 1.11837 18.4852C0.407582 18.9685 0 19.6763 0 20.4271V24.6471C0 27.9314 1.58186 31.0191 4.45421 33.3414L9.93885 37.7758C10.1181 37.9206 10.353 37.9932 10.588 37.9932C10.8229 37.9932 11.0579 37.9206 11.2371 37.7758C11.5955 37.4859 11.5955 37.016 11.2371 36.7261L5.75232 32.2917C3.22688 30.2498 1.83596 27.5349 1.83596 24.6472V20.4272C1.83596 20.1156 2.00514 19.8218 2.30018 19.6212C2.59521 19.4206 2.98196 19.3363 3.362 19.3895C3.98742 19.4776 4.44145 19.9139 4.44145 20.4272V25.1392C4.44145 26.6539 5.17106 28.078 6.49579 29.1492L11.4747 33.1747L11.8448 33.4739C12.2033 33.7636 12.7845 33.7637 13.1431 33.4739C13.5015 33.184 13.5015 32.7141 13.1431 32.4242L7.93454 28.213C7.32372 27.7193 7.32372 26.9158 7.93454 26.4219C8.54527 25.928 9.53917 25.928 10.1499 26.4219L14.3238 29.7966C14.496 29.9357 14.7295 30.014 14.973 30.014C16.7515 30.014 18.4236 30.574 19.6813 31.5908C21.5519 33.1032 22.5822 35.1141 22.5822 37.253C22.5822 37.6629 22.9931 37.9952 23.5001 37.9952C24.007 37.9952 24.4181 37.6629 24.4181 37.253C24.4181 35.1141 25.4484 33.1032 27.319 31.5908C28.5766 30.574 30.2487 30.014 32.0273 30.014C32.2708 30.014 32.5042 29.9357 32.6764 29.7966L36.8504 26.4219C37.461 25.928 38.455 25.928 39.0657 26.4219C39.6765 26.9157 39.6765 27.7192 39.0657 28.213L33.8573 32.4242C33.4988 32.714 33.4988 33.184 33.8573 33.4739C34.0366 33.6187 34.2715 33.6913 34.5064 33.6913C34.7413 33.6913 34.9762 33.6187 35.1555 33.4739L40.5045 29.1491C41.8293 28.078 42.5588 26.6539 42.5588 25.1392V20.4271C42.5588 19.9138 43.0128 19.4774 43.6383 19.3895C44.018 19.3362 44.4052 19.4205 44.7 19.6212C44.995 19.8217 45.1642 20.1155 45.1642 20.4271V24.6471C45.1642 26.4352 44.6086 28.212 43.5574 29.7855C43.3165 30.1462 43.4828 30.5964 43.9289 30.7913C44.3748 30.9861 44.9319 30.8516 45.1729 30.4909C46.3682 28.7015 47.0002 26.6806 47.0002 24.6471V20.4271C47 19.6763 46.5923 18.9685 45.8816 18.4851Z" fill="#288173"/>
<path d="M12.2746 19.6458H16.4623C16.1863 20.7451 16.5738 21.9326 17.626 22.7835L21.783 26.1444C22.2449 26.5179 22.8591 26.7236 23.5125 26.7236C24.1658 26.7236 24.78 26.518 25.2419 26.1444L29.3989 22.7835C30.4513 21.9326 30.8387 20.7451 30.5626 19.6458H34.7254C34.9957 19.6458 35.2524 19.5494 35.4269 19.3823C35.6012 19.2153 35.6758 18.9945 35.6304 18.779C35.2133 16.7976 34.0606 14.9966 32.2971 13.5708C31.6453 13.0438 30.9254 12.5825 30.1505 12.1925C31.6133 10.8972 32.5068 9.17483 32.5068 7.28683C32.5067 3.27148 28.4662 0.00471289 23.4999 0.00463867C18.5336 0.00471289 14.4932 3.27156 14.4931 7.28683C14.4931 9.17483 15.3865 10.8973 16.8494 12.1925C16.0744 12.5824 15.3545 13.0438 14.7027 13.5708C12.9393 14.9967 11.7866 16.7977 11.3695 18.779C11.3241 18.9945 11.3986 19.2153 11.573 19.3823C11.7476 19.5494 12.0041 19.6458 12.2746 19.6458ZM28.1008 21.7339L23.9438 25.0948C23.8286 25.188 23.6755 25.2393 23.5126 25.2393C23.3497 25.2393 23.1966 25.188 23.0814 25.0948L18.9244 21.7339C17.9727 20.9645 17.9728 19.7126 18.9244 18.9431C19.4003 18.5584 20.0253 18.3661 20.6503 18.3661C21.2753 18.3661 21.9004 18.5585 22.3761 18.9431L22.8635 19.3372C23.0356 19.4764 23.269 19.5546 23.5126 19.5546C23.756 19.5546 23.9895 19.4764 24.1617 19.3373L24.6492 18.9431C25.6007 18.1737 27.1493 18.1737 28.1009 18.9431C29.0524 19.7125 29.0524 20.9645 28.1008 21.7339ZM20.8067 1.91505C20.7913 2.0096 20.7825 2.10587 20.7825 2.20376C20.7825 3.41525 22.0016 4.40096 23.5 4.40096C24.0069 4.40096 24.418 4.0686 24.418 3.65876C24.418 3.24892 24.0069 2.91657 23.5 2.91657C23.0139 2.91657 22.6184 2.59675 22.6184 2.20376C22.6184 1.81077 23.0299 1.49103 23.516 1.49103C23.5267 1.49103 23.5053 1.49007 23.516 1.4897C27.4553 1.5038 30.671 4.09866 30.671 7.28683C30.671 10.4837 27.4541 13.0846 23.5 13.0846C19.546 13.0846 16.3291 10.4837 16.3291 7.28683C16.3293 4.86 18.1839 2.77785 20.8067 1.91505ZM16.0011 14.6205C16.6853 14.0673 17.4577 13.6001 18.2971 13.2279C19.7675 14.0721 21.5633 14.569 23.5001 14.5691C25.4368 14.5691 27.2327 14.0722 28.703 13.228C29.5424 13.6001 30.3148 14.0673 30.9989 14.6205C32.2302 15.616 33.1096 16.827 33.5782 18.1614H29.6975C29.6048 18.069 29.5054 17.9795 29.3991 17.8935C27.7843 16.5881 25.1893 16.5467 23.5127 17.7694C21.8358 16.5466 19.2408 16.5881 17.6261 17.8935C17.5198 17.9795 17.4204 18.069 17.3277 18.1614H13.4221C13.8904 16.827 14.7699 15.616 16.0011 14.6205Z" fill="#288173"/>
<path d="M23.4996 10.5401C24.0733 10.5401 24.647 10.3635 25.0837 10.0105C25.4421 9.72072 25.4422 9.25077 25.0837 8.96087C24.7256 8.67112 24.1442 8.67104 23.7856 8.96079C23.6278 9.08823 23.3713 9.08823 23.2135 8.96079C22.855 8.6709 22.2738 8.67097 21.9153 8.96087C21.5568 9.25069 21.5569 9.72065 21.9154 10.0105C22.3522 10.3636 22.9259 10.5401 23.4996 10.5401Z" fill="#288173"/>
<path d="M41.8965 32.075C41.6551 32.075 41.4182 32.1537 41.2476 32.2917C41.0768 32.4297 40.9785 32.6212 40.9785 32.8171C40.9785 33.0123 41.0767 33.2031 41.2476 33.3419C41.4192 33.4799 41.6551 33.5593 41.8965 33.5593C42.138 33.5593 42.3747 33.48 42.5455 33.3419C42.7171 33.2031 42.8145 33.0123 42.8145 32.8171C42.8145 32.6212 42.7171 32.4305 42.5455 32.2917C42.3747 32.1536 42.1389 32.075 41.8965 32.075Z" fill="#288173"/>
</svg>
