<svg width="47" height="38" viewBox="0 0 47 38" fill="none" xmlns="http://www.w3.org/2000/svg">
<path d="M46.7243 29.025L45.4333 27.4822V20.2666C45.4319 19.9057 45.3346 19.5492 45.1478 19.2214C44.961 18.8935 44.6892 18.602 44.3508 18.3666C44.8338 18.0285 45.1775 17.5791 45.3357 17.0787C45.494 16.5782 45.4592 16.0506 45.236 15.5665C45.0129 15.0825 44.6121 14.6652 44.0873 14.3705C43.5625 14.0758 42.9389 13.9179 42.3 13.9179C41.6611 13.9179 41.0375 14.0758 40.5127 14.3705C39.9879 14.6652 39.5871 15.0825 39.364 15.5665C39.1408 16.0506 39.106 16.5782 39.2643 17.0787C39.4225 17.5791 39.7662 18.0285 40.2492 18.3666C40.196 18.4046 40.1364 18.435 40.0855 18.4762C39.5722 18.8933 39.2571 19.4434 39.1957 20.0298L37.6 18.1241V10.7666C37.5986 10.4057 37.5012 10.0492 37.3144 9.72138C37.1276 9.39355 36.8558 9.10204 36.5174 8.86662C37.0005 8.52853 37.3442 8.07912 37.5024 7.57865C37.6606 7.07818 37.6258 6.55056 37.4027 6.06652C37.1796 5.58248 36.7788 5.16516 36.254 4.8705C35.7292 4.57584 35.1056 4.41793 34.4667 4.41793C33.8278 4.41793 33.2041 4.57584 32.6794 4.8705C32.1546 5.16516 31.7538 5.58248 31.5306 6.06652C31.3075 6.55056 31.2727 7.07818 31.4309 7.57865C31.5892 8.07912 31.9328 8.52853 32.4159 8.86662C32.3626 8.90462 32.3031 8.93502 32.2522 8.97619C31.7 9.42308 31.3769 10.022 31.3474 10.6533L30.8539 10.0643C30.7076 9.88976 30.5105 9.74702 30.2799 9.64862C30.0494 9.55021 29.7924 9.49916 29.5317 9.49995H28.2V7.59995C28.1995 6.92009 27.9734 6.25279 27.5454 5.66762C27.1173 5.08245 26.5029 4.60086 25.7662 4.27305C26.1899 3.91428 26.474 3.46282 26.5833 2.97468C26.6925 2.48654 26.6221 1.98322 26.3808 1.52714C26.1395 1.07106 25.7378 0.682297 25.2257 0.409086C24.7136 0.135874 24.1136 -0.00976562 23.5 -0.00976562C22.8864 -0.00976563 22.2864 0.135874 21.7743 0.409086C21.2622 0.682297 20.8605 1.07106 20.6192 1.52714C20.3779 1.98322 20.3075 2.48654 20.4167 2.97468C20.526 3.46282 20.8101 3.91428 21.2338 4.27305C20.4971 4.60086 19.8827 5.08245 19.4546 5.66762C19.0266 6.25279 18.8005 6.92009 18.8 7.59995V9.49995H17.4683C17.2077 9.4992 16.9508 9.55021 16.7203 9.64849C16.4897 9.74677 16.2925 9.88932 16.1461 10.0636L15.6526 10.6526C15.6233 10.0215 15.3001 9.42274 14.7478 8.97619C14.6969 8.93502 14.6374 8.90462 14.5841 8.86662C15.0672 8.52853 15.4108 8.07912 15.5691 7.57865C15.7273 7.07818 15.6925 6.55056 15.4694 6.06652C15.2462 5.58248 14.8454 5.16516 14.3207 4.8705C13.7959 4.57584 13.1722 4.41793 12.5333 4.41793C11.8944 4.41793 11.2708 4.57584 10.746 4.8705C10.2212 5.16516 9.82043 5.58248 9.5973 6.06652C9.37416 6.55056 9.33938 7.07818 9.49761 7.57865C9.65584 8.07912 9.99951 8.52853 10.4826 8.86662C10.1442 9.10204 9.87235 9.39355 9.68557 9.72138C9.49878 10.0492 9.40139 10.4057 9.4 10.7666V18.1241L7.80435 20.0298C7.74289 19.4434 7.42781 18.8933 6.91448 18.4762C6.86357 18.435 6.80403 18.4046 6.75077 18.3666C7.23382 18.0285 7.5775 17.5791 7.73573 17.0787C7.89395 16.5782 7.85917 16.0506 7.63604 15.5665C7.4129 15.0825 7.01209 14.6652 6.48732 14.3705C5.96255 14.0758 5.33891 13.9179 4.7 13.9179C4.06109 13.9179 3.43745 14.0758 2.91268 14.3705C2.38791 14.6652 1.9871 15.0825 1.76396 15.5665C1.54083 16.0506 1.50605 16.5782 1.66427 17.0787C1.8225 17.5791 2.16618 18.0285 2.64923 18.3666C2.31083 18.602 2.03902 18.8935 1.85223 19.2214C1.66545 19.5492 1.56806 19.9057 1.56667 20.2666V27.4828L0.275733 29.0256C0.10755 29.2281 0.0145855 29.4652 0.00783333 29.709C0.00783333 29.7204 0 29.7299 0 29.7413V32.3C0 32.6359 0.165059 32.9581 0.458866 33.1956C0.752673 33.4332 1.15116 33.5666 1.56667 33.5666H2.35V36.7333C2.35 37.0692 2.51506 37.3914 2.80887 37.629C3.10267 37.8665 3.50116 38 3.91667 38H7.05C7.46551 38 7.86399 37.8665 8.1578 37.629C8.45161 37.3914 8.61667 37.0692 8.61667 36.7333V33.5666H16.45V36.1C16.45 36.6039 16.6976 37.0871 17.1383 37.4435C17.579 37.7998 18.1767 38 18.8 38H28.2C28.8233 38 29.421 37.7998 29.8617 37.4435C30.3024 37.0871 30.55 36.6039 30.55 36.1V33.5666H38.3833V36.7333C38.3833 37.0692 38.5484 37.3914 38.8422 37.629C39.136 37.8665 39.5345 38 39.95 38H43.0833C43.4988 38 43.8973 37.8665 44.1911 37.629C44.4849 37.3914 44.65 37.0692 44.65 36.7333V33.5666H45.4333C45.8488 33.5666 46.2473 33.4332 46.5411 33.1956C46.8349 32.9581 47 32.6359 47 32.3V29.7413C47 29.7299 46.993 29.7204 46.9922 29.709C46.9854 29.465 46.8925 29.2276 46.7243 29.025ZM40.7333 16.4666C40.7333 16.2161 40.8252 15.9712 40.9974 15.7629C41.1695 15.5546 41.4142 15.3922 41.7005 15.2964C41.9867 15.2005 42.3017 15.1754 42.6056 15.2243C42.9095 15.2732 43.1887 15.3938 43.4078 15.571C43.6269 15.7481 43.7761 15.9738 43.8366 16.2195C43.897 16.4652 43.866 16.7199 43.7474 16.9514C43.6288 17.1828 43.428 17.3806 43.1704 17.5198C42.9128 17.659 42.6099 17.7333 42.3 17.7333C41.8845 17.7333 41.486 17.5998 41.1922 17.3623C40.8984 17.1247 40.7333 16.8026 40.7333 16.4666ZM40.7333 20.2666C40.7333 19.9307 40.8984 19.6085 41.1922 19.371C41.486 19.1334 41.8845 19 42.3 19C42.7155 19 43.114 19.1334 43.4078 19.371C43.7016 19.6085 43.8667 19.9307 43.8667 20.2666V25.6107L40.7333 21.8671V20.2666ZM32.9 6.96662C32.9 6.7161 32.9919 6.4712 33.164 6.2629C33.3362 6.0546 33.5809 5.89224 33.8671 5.79637C34.1534 5.7005 34.4684 5.67542 34.7723 5.72429C35.0762 5.77317 35.3554 5.89381 35.5745 6.07095C35.7936 6.2481 35.9428 6.4738 36.0032 6.71951C36.0637 6.96521 36.0327 7.2199 35.9141 7.45135C35.7955 7.68281 35.5947 7.88063 35.3371 8.01981C35.0794 8.159 34.7765 8.23329 34.4667 8.23329C34.0512 8.23329 33.6527 8.09983 33.3589 7.86229C33.0651 7.62474 32.9 7.30256 32.9 6.96662ZM32.9 10.7666C32.9 10.4307 33.0651 10.1085 33.3589 9.87095C33.6527 9.63341 34.0512 9.49995 34.4667 9.49995C34.8822 9.49995 35.2807 9.63341 35.5745 9.87095C35.8683 10.1085 36.0333 10.4307 36.0333 10.7666V16.2519L32.9 12.5089V10.7666ZM21.9333 2.53329C21.9333 2.28276 22.0252 2.03787 22.1974 1.82956C22.3695 1.62126 22.6142 1.45891 22.9005 1.36304C23.1867 1.26717 23.5017 1.24208 23.8056 1.29096C24.1095 1.33983 24.3887 1.46047 24.6078 1.63762C24.8269 1.81476 24.9761 2.04046 25.0366 2.28617C25.097 2.53188 25.066 2.78657 24.9474 3.01802C24.8288 3.24947 24.628 3.4473 24.3704 3.58648C24.1128 3.72566 23.8099 3.79995 23.5 3.79995C23.0845 3.79995 22.686 3.6665 22.3922 3.42895C22.0984 3.19141 21.9333 2.86923 21.9333 2.53329ZM20.3667 7.59995C20.3667 6.92807 20.6968 6.28371 21.2844 5.80862C21.872 5.33352 22.669 5.06662 23.5 5.06662C24.331 5.06662 25.128 5.33352 25.7156 5.80862C26.3032 6.28371 26.6333 6.92807 26.6333 7.59995V9.49995H20.3667V7.59995ZM17.4683 10.7666L29.556 10.7736L45.4098 29.7666H30.55V29.1333C30.5483 28.0281 30.1495 26.9471 29.4022 26.0216C28.6549 25.0962 27.5912 24.3662 26.3404 23.9203C27.1246 23.4394 27.7022 22.7716 27.9919 22.011C28.2815 21.2504 28.2685 20.4356 27.9548 19.6813C27.641 18.927 27.0422 18.2714 26.243 17.807C25.4437 17.3426 24.4843 17.0927 23.5 17.0927C22.5157 17.0927 21.5563 17.3426 20.757 17.807C19.9578 18.2714 19.359 18.927 19.0452 19.6813C18.7315 20.4356 18.7185 21.2504 19.0081 22.011C19.2978 22.7716 19.8754 23.4394 20.6596 23.9203C19.4088 24.3662 18.3451 25.0962 17.5978 26.0216C16.8505 26.9471 16.4517 28.0281 16.45 29.1333V29.7666L1.57293 29.735L17.4683 10.7666ZM20.3667 20.9C20.3667 20.3989 20.5504 19.9091 20.8947 19.4925C21.239 19.0759 21.7284 18.7512 22.3009 18.5595C22.8735 18.3677 23.5035 18.3175 24.1113 18.4153C24.7191 18.513 25.2774 18.7543 25.7156 19.1086C26.1538 19.4629 26.4522 19.9143 26.5731 20.4057C26.694 20.8971 26.632 21.4065 26.3948 21.8694C26.1577 22.3323 25.7561 22.728 25.2408 23.0063C24.7255 23.2847 24.1197 23.4333 23.5 23.4333C22.669 23.4333 21.872 23.1664 21.2844 22.6913C20.6968 22.2162 20.3667 21.5718 20.3667 20.9ZM10.9667 6.96662C10.9667 6.7161 11.0586 6.4712 11.2307 6.2629C11.4028 6.0546 11.6475 5.89224 11.9338 5.79637C12.2201 5.7005 12.5351 5.67542 12.839 5.72429C13.1429 5.77317 13.422 5.89381 13.6411 6.07095C13.8602 6.2481 14.0094 6.4738 14.0699 6.71951C14.1303 6.96521 14.0993 7.2199 13.9807 7.45135C13.8622 7.68281 13.6614 7.88063 13.4037 8.01981C13.1461 8.159 12.8432 8.23329 12.5333 8.23329C12.1178 8.23329 11.7193 8.09983 11.4255 7.86229C11.1317 7.62474 10.9667 7.30256 10.9667 6.96662ZM10.9667 10.7666C10.9667 10.4307 11.1317 10.1085 11.4255 9.87095C11.7193 9.63341 12.1178 9.49995 12.5333 9.49995C12.9488 9.49995 13.3473 9.63341 13.6411 9.87095C13.9349 10.1085 14.1 10.4307 14.1 10.7666V12.5083L10.9667 16.2519V10.7666ZM3.13333 16.4666C3.13333 16.2161 3.22522 15.9712 3.39736 15.7629C3.56951 15.5546 3.81419 15.3922 4.10046 15.2964C4.38673 15.2005 4.70174 15.1754 5.00564 15.2243C5.30955 15.2732 5.5887 15.3938 5.8078 15.571C6.0269 15.7481 6.17611 15.9738 6.23656 16.2195C6.29701 16.4652 6.26599 16.7199 6.14741 16.9514C6.02883 17.1828 5.82803 17.3806 5.57039 17.5198C5.31276 17.659 5.00986 17.7333 4.7 17.7333C4.28449 17.7333 3.88601 17.5998 3.5922 17.3623C3.29839 17.1247 3.13333 16.8026 3.13333 16.4666ZM3.13333 20.2666C3.13333 19.9307 3.29839 19.6085 3.5922 19.371C3.88601 19.1334 4.28449 19 4.7 19C5.11551 19 5.51399 19.1334 5.8078 19.371C6.10161 19.6085 6.26667 19.9307 6.26667 20.2666V21.8677L3.13333 25.6113V20.2666ZM7.05 36.7333H3.91667V33.5666H7.05V36.7333ZM7.83333 32.3H1.56667V31.0333C1.5745 31.0333 1.58233 31.0333 1.59017 31.0333H16.45V32.3H7.83333ZM28.9833 36.1C28.9833 36.2679 28.9008 36.429 28.7539 36.5478C28.607 36.6666 28.4078 36.7333 28.2 36.7333H27.4167V31.0333C27.4167 30.8653 27.3341 30.7042 27.1872 30.5855C27.0403 30.4667 26.8411 30.4 26.6333 30.4C26.4256 30.4 26.2263 30.4667 26.0794 30.5855C25.9325 30.7042 25.85 30.8653 25.85 31.0333V36.7333H21.15V31.0333C21.15 30.8653 21.0675 30.7042 20.9206 30.5855C20.7737 30.4667 20.5744 30.4 20.3667 30.4C20.1589 30.4 19.9597 30.4667 19.8128 30.5855C19.6659 30.7042 19.5833 30.8653 19.5833 31.0333V36.7333H18.8C18.5922 36.7333 18.393 36.6666 18.2461 36.5478C18.0992 36.429 18.0167 36.2679 18.0167 36.1V29.1333C18.0167 27.9575 18.5944 26.8299 19.6227 25.9984C20.651 25.167 22.0457 24.7 23.5 24.7C24.9543 24.7 26.349 25.167 27.3773 25.9984C28.4056 26.8299 28.9833 27.9575 28.9833 29.1333V36.1ZM43.0833 36.7333H39.95V33.5666H43.0833V36.7333ZM43.8667 32.3H30.55V31.0333H45.4098C45.4177 31.0333 45.4255 31.0333 45.4333 31.0333V32.3H43.8667Z" fill="#288173"/>
</svg>
