<svg width="47" height="38" viewBox="0 0 47 38" fill="none" xmlns="http://www.w3.org/2000/svg">
<g clip-path="url(#clip0_4381_351)">
<path d="M34.8698 11.7609C33.7696 11.7312 32.8711 11.2717 32.8711 10.7972C32.8711 10.5452 33.1461 10.1746 33.4946 10.1746C33.8796 10.1746 34.1914 10.6119 34.8698 10.7083V9.50741C34.0263 9.24794 33.0362 8.92919 33.0362 7.98037C33.0362 7.03896 33.898 6.58673 34.8698 6.47558V6.26798C34.8698 6.16418 35.0165 6.06787 35.2183 6.06787C35.3925 6.06787 35.5666 6.16425 35.5666 6.26798V6.45332C36.1351 6.46816 37.2078 6.58673 37.2078 7.09824C37.2078 7.29835 37.0428 7.70606 36.6394 7.70606C36.3369 7.70606 36.1626 7.46885 35.5667 7.43175V8.51406C36.401 8.76611 37.3729 9.11446 37.3729 10.1152C37.3729 11.0344 36.6394 11.5904 35.5667 11.7312V11.9462C35.5667 12.05 35.3926 12.1463 35.2184 12.1463C35.0167 12.1463 34.8699 12.0499 34.8699 11.9462L34.8698 11.7609ZM34.9615 8.33621V7.45409C34.5489 7.52079 34.3747 7.6913 34.3747 7.86922C34.3747 8.08417 34.6131 8.21757 34.9615 8.33621ZM35.475 9.70759V10.7009C35.7867 10.6417 36.0343 10.5008 36.0343 10.2339C36.0342 9.98924 35.8051 9.83358 35.475 9.70759Z" fill="#288173"/>
<path d="M11.389 29.1485C11.389 29.2375 11.4532 29.7563 12.2325 29.7563C12.9568 29.7563 13.021 29.3042 13.0301 29.015C13.0393 28.7778 13.2318 28.6963 13.7361 28.6963C14.2587 28.6963 14.4605 28.7852 14.4605 29.2226C14.4605 30.1936 13.4611 30.7644 12.1683 30.7644C10.7289 30.7644 9.95879 30.0602 9.95879 29.1485V29.1188H9.59208C9.3354 29.1188 9.16113 28.9632 9.16113 28.7334C9.16113 28.5036 9.33531 28.3257 9.59208 28.3257H9.95879V27.8809H9.59208C9.3354 27.8809 9.16113 27.7253 9.16113 27.4954C9.16113 27.2656 9.33531 27.0877 9.59208 27.0877H9.95879V27.0507C9.95879 25.7757 10.949 25.3013 12.1683 25.3013C13.4611 25.3013 14.4605 25.835 14.4605 26.7764C14.4605 27.2063 14.2496 27.2953 13.7361 27.2953C13.2227 27.2953 13.0301 27.2063 13.0301 26.9766C13.0301 26.7912 12.9935 26.3094 12.2233 26.3094C11.6823 26.3094 11.389 26.5466 11.389 27.0507V27.0877H11.9758C12.1958 27.0877 12.4158 27.2656 12.4158 27.488C12.4158 27.7178 12.1958 27.8809 11.9758 27.8809H11.389V28.3256H11.9758C12.1958 28.3256 12.4158 28.5035 12.4158 28.7259C12.4158 28.9557 12.1958 29.1188 11.9758 29.1188H11.389V29.1485Z" fill="#288173"/>
<path d="M7.06242 16.1062C7.44637 16.1062 7.75765 15.8545 7.75765 15.5441C7.75765 11.4324 11.8762 8.08437 16.9529 8.05372L15.8849 9.06872C15.6361 9.30518 15.6715 9.65998 15.9639 9.86106C16.0948 9.95107 16.2548 9.99506 16.4141 9.99506C16.6108 9.99506 16.8064 9.92791 16.944 9.7972L18.9909 7.85188C19.2283 7.62629 19.2084 7.29038 18.9454 7.0842L16.8718 5.45801C16.5963 5.24179 16.1561 5.24718 15.8888 5.47015C15.6214 5.69297 15.6281 6.04881 15.9038 6.26496L16.7538 6.93161C11.0655 7.04606 6.46962 10.7823 6.36886 15.3894C6.36774 15.4024 6.36719 15.4156 6.36719 15.4289V15.544C6.36719 15.8545 6.67847 16.1062 7.06242 16.1062Z" fill="#288173"/>
<path d="M39.0279 23.3843C38.6439 23.3843 38.3327 23.6359 38.3327 23.9464C38.3327 28.058 34.2141 31.4061 29.1374 31.4367L30.2053 30.4217C30.4541 30.1853 30.4187 29.8305 30.1263 29.6294C29.8339 29.4282 29.3951 29.4568 29.1463 29.6933L27.0993 31.6387C26.8619 31.8643 26.8818 32.2002 27.1448 32.4065L29.2185 34.0326C29.3535 34.1385 29.5281 34.1912 29.7024 34.1912C29.8839 34.1912 30.0653 34.1341 30.2015 34.0204C30.4689 33.7976 30.4621 33.4418 30.1865 33.2256L29.3365 32.559C35.0248 32.4445 39.6207 28.7081 39.7215 24.1011C39.7226 24.0881 39.7231 24.0749 39.7231 24.0616V23.9465C39.7231 23.6359 39.4118 23.3843 39.0279 23.3843Z" fill="#288173"/>
<path d="M35.134 0.015625C28.5908 0.015625 23.2676 4.31952 23.2676 9.60972C23.2676 14.8999 28.5908 19.2038 35.134 19.2038C41.6771 19.2038 47.0003 14.8999 47.0003 9.60972C47.0003 4.31952 41.6771 0.015625 35.134 0.015625ZM35.134 18.0796C29.3575 18.0796 24.658 14.28 24.658 9.60972C24.658 4.93941 29.3575 1.13983 35.134 1.13983C40.9104 1.13983 45.6099 4.93941 45.6099 9.60972C45.6099 14.28 40.9104 18.0796 35.134 18.0796Z" fill="#288173"/>
<path d="M35.1332 2.64062C30.3805 2.64062 26.5137 5.76688 26.5137 9.60963C26.5137 13.4524 30.3804 16.5786 35.1332 16.5786C37.3134 16.5786 39.3941 15.919 40.992 14.7213C41.2736 14.5103 41.2902 14.1546 41.0292 13.9269C40.7681 13.6993 40.3282 13.6858 40.0467 13.8969C38.7066 14.9013 36.9617 15.4544 35.1332 15.4544C31.1472 15.4544 27.9041 12.8325 27.9041 9.60963C27.9041 6.38677 31.1471 3.76483 35.1332 3.76483C39.1193 3.76483 42.3623 6.38677 42.3623 9.60963C42.3623 10.5237 42.1089 11.3988 41.6091 12.2106C41.438 12.4885 41.5779 12.8259 41.9216 12.9643C42.2654 13.1027 42.6828 12.9894 42.8538 12.7115C43.4503 11.7427 43.7528 10.6991 43.7528 9.60956C43.7528 5.76688 39.886 2.64062 35.1332 2.64062Z" fill="#288173"/>
<path d="M11.8664 18.7964C5.32324 18.7964 0 23.1003 0 28.3905C0 33.6807 5.32324 37.9846 11.8664 37.9846C18.4095 37.9846 23.7328 33.6807 23.7328 28.3905C23.7328 23.1003 18.4095 18.7964 11.8664 18.7964ZM11.8664 36.8604C6.08994 36.8604 1.39046 33.0608 1.39046 28.3905C1.39046 23.7202 6.08994 19.9206 11.8664 19.9206C17.6428 19.9206 22.3423 23.7202 22.3423 28.3905C22.3423 33.0608 17.6428 36.8604 11.8664 36.8604Z" fill="#288173"/>
<path d="M11.8664 21.4214C10.7032 21.4214 9.57422 21.6058 8.51117 21.9692C8.15753 22.0902 7.99207 22.42 8.14168 22.7059C8.29129 22.9918 8.69935 23.1257 9.0528 23.0046C9.94362 22.7001 10.8903 22.5456 11.8665 22.5456C15.8526 22.5456 19.0956 25.1675 19.0956 28.3904C19.0956 31.6132 15.8527 34.2352 11.8665 34.2352C7.88037 34.2352 4.63744 31.6133 4.63744 28.3904C4.63744 26.7654 5.48442 25.2006 6.96127 24.097C7.24326 23.8862 7.26059 23.5306 7.00002 23.3027C6.73945 23.0747 6.2996 23.0607 6.01761 23.2714C4.25682 24.5871 3.24707 26.4529 3.24707 28.3904C3.24707 32.2331 7.11376 35.3594 11.8666 35.3594C16.6195 35.3594 20.4862 32.2331 20.4862 28.3904C20.486 24.5476 16.6193 21.4214 11.8664 21.4214Z" fill="#288173"/>
</g>
<defs>
<clipPath id="clip0_4381_351">
<rect width="47" height="38" fill="white"/>
</clipPath>
</defs>
</svg>
