<svg width="47" height="38" viewBox="0 0 47 38" fill="none" xmlns="http://www.w3.org/2000/svg">
<g clip-path="url(#clip0_4381_317)">
<path d="M13.2188 24.344C14.1922 24.3449 15.1255 24.658 15.8139 25.2146C16.5022 25.7711 16.8895 26.5257 16.8906 27.3127C16.8906 27.4702 16.968 27.6212 17.1057 27.7326C17.2434 27.8439 17.4302 27.9065 17.625 27.9065C17.8198 27.9065 18.0066 27.8439 18.1443 27.7326C18.282 27.6212 18.3594 27.4702 18.3594 27.3127C18.3594 26.4907 18.0579 25.6871 17.493 25.0037C16.9282 24.3202 16.1253 23.7874 15.186 23.4729C14.2467 23.1583 13.213 23.076 12.2159 23.2364C11.2187 23.3967 10.3027 23.7926 9.58378 24.3738C8.86485 24.9551 8.37526 25.6957 8.1769 26.5019C7.97855 27.3081 8.08035 28.1438 8.46943 28.9033C8.85852 29.6627 9.5174 30.3118 10.3628 30.7685C11.2081 31.2252 12.202 31.469 13.2188 31.469C13.4135 31.469 13.6003 31.4064 13.738 31.2951C13.8758 31.1837 13.9531 31.0327 13.9531 30.8752C13.9531 30.7178 13.8758 30.5668 13.738 30.4554C13.6003 30.3441 13.4135 30.2815 13.2188 30.2815C12.2449 30.2815 11.311 29.9687 10.6223 29.412C9.93373 28.8552 9.54688 28.1001 9.54688 27.3127C9.54688 26.5254 9.93373 25.7703 10.6223 25.2135C11.311 24.6568 12.2449 24.344 13.2188 24.344Z" fill="#288173"/>
<path d="M18.3591 32.0623H21.2966C21.4914 32.0623 21.6782 31.9997 21.8159 31.8884C21.9536 31.777 22.031 31.626 22.031 31.4685C22.031 31.3111 21.9536 31.16 21.8159 31.0487C21.6782 30.9373 21.4914 30.8748 21.2966 30.8748H18.6632L13.7377 26.8925C13.5992 26.7843 13.4137 26.7245 13.2212 26.7259C13.0286 26.7272 12.8444 26.7896 12.7083 26.8997C12.5721 27.0098 12.4949 27.1587 12.4932 27.3144C12.4915 27.4701 12.5655 27.6201 12.6993 27.7321L17.8399 31.8883C17.9776 31.9997 18.1644 32.0623 18.3591 32.0623Z" fill="#288173"/>
<path d="M40.3578 26.236L39.6616 25.9985V18.4063C39.6597 18.0392 39.5176 17.6815 39.2547 17.3822C38.9918 17.0829 38.6209 16.8566 38.1928 16.7343V9.3771L38.2024 9.3676L43.028 2.679C43.3223 2.27091 43.4042 1.78498 43.2554 1.32812C43.1067 0.871249 42.7396 0.480865 42.2348 0.242846C41.7301 0.00482631 41.1291 -0.0613315 40.564 0.0589262C39.9989 0.179184 39.5161 0.476006 39.2217 0.884096L35.4587 6.0996H27.1772C26.5929 6.0996 26.0325 6.28726 25.6194 6.62131C25.2062 6.95536 24.9741 7.40843 24.9741 7.88085C24.9741 8.35326 25.2062 8.80633 25.6194 9.14038C26.0325 9.47443 26.5929 9.6621 27.1772 9.6621H33.7866V14.8438C33.7866 15.0012 33.8639 15.1522 34.0017 15.2636C34.1394 15.3749 34.3262 15.4375 34.521 15.4375C34.7157 15.4375 34.9025 15.3749 35.0402 15.2636C35.178 15.1522 35.2553 15.0012 35.2553 14.8438V9.6621H36.7241V16.625H34.521C33.9366 16.625 33.3763 16.8127 32.9631 17.1467C32.5499 17.4808 32.3178 17.9338 32.3178 18.4063V23.6004C26.257 21.6897 19.5779 19.7808 15.4221 19.1882V13.6563H18.3596C18.9439 13.6563 19.5042 13.4686 19.9174 13.1345C20.3306 12.8005 20.5627 12.3474 20.5627 11.875C20.5627 11.4026 20.3306 10.9495 19.9174 10.6155C19.5042 10.2814 18.9439 10.0938 18.3596 10.0938H16.3297C16.1933 10.0941 16.0595 10.0635 15.9434 10.0055C15.8274 9.94745 15.7338 9.86428 15.6732 9.76541L15.3626 9.26428C15.0143 8.70106 14.441 8.24941 13.7356 7.98251C13.0302 7.71561 12.234 7.6491 11.4759 7.79374C10.7179 7.93838 10.0425 8.28571 9.55915 8.77945C9.07578 9.2732 8.81275 9.88443 8.81268 10.5141V10.8609C8.81425 11.4228 9.02531 11.9714 9.41833 12.4349C9.81135 12.8984 10.3681 13.2553 11.0158 13.4591V19.1936C8.64313 19.6144 6.53136 20.7008 5.05485 22.2603C3.57834 23.8198 2.83246 25.7516 2.94943 27.7133C3.1089 29.8753 4.29343 31.9043 6.2565 33.378C8.21957 34.8517 10.8099 35.6565 13.4885 35.625H32.3127C32.5075 35.625 32.6942 35.5624 32.832 35.4511C32.9697 35.3397 33.0471 35.1887 33.0471 35.0312C33.0471 34.8738 32.9697 34.7228 32.832 34.6114C32.6942 34.5001 32.5075 34.4375 32.3127 34.4375H13.4885C11.1878 34.4687 8.9608 33.7814 7.27105 32.5186C5.5813 31.2559 4.55893 29.5149 4.41672 27.6581C4.35884 26.6944 4.54363 25.7313 4.95986 24.8272C5.3761 23.923 6.01512 23.0966 6.83818 22.398C7.66123 21.6995 8.65118 21.1434 9.748 20.7634C10.8448 20.3834 12.0257 20.1875 13.2189 20.1875C18.2024 20.1875 33.4598 25.1833 39.7886 27.3309C40.7631 27.6608 41.5663 28.2533 42.0616 29.0078C42.5569 29.7623 42.7137 30.6322 42.5054 31.4696C42.2971 32.3071 41.7365 33.0603 40.919 33.6014C40.1015 34.1424 39.0775 34.4379 38.021 34.4375H35.2502C35.0554 34.4375 34.8686 34.5001 34.7309 34.6114C34.5932 34.7228 34.5158 34.8738 34.5158 35.0312C34.5158 35.1887 34.5932 35.3397 34.7309 35.4511C34.8686 35.5624 35.0554 35.625 35.2502 35.625H38.021C39.4162 35.6248 40.7684 35.2341 41.8478 34.5193C42.9273 33.8046 43.6674 32.8098 43.9427 31.7039C44.2179 30.5979 44.0113 29.4491 43.3578 28.4524C42.7043 27.4557 41.6443 26.6726 40.3578 26.236ZM26.4428 7.88085C26.4428 7.72337 26.5202 7.57235 26.6579 7.461C26.7956 7.34965 26.9824 7.2871 27.1772 7.2871H35.8803C36.0089 7.28688 36.1353 7.25935 36.2466 7.20725C36.358 7.15515 36.4505 7.08031 36.5148 6.99022L40.4907 1.48438C40.5352 1.4115 40.5977 1.34679 40.6744 1.29426C40.7512 1.24172 40.8404 1.20247 40.9366 1.17895C41.0328 1.15543 41.134 1.14813 41.2339 1.15751C41.3337 1.16689 41.4301 1.19274 41.5171 1.23347C41.6041 1.2742 41.6799 1.32893 41.7396 1.39428C41.7994 1.45964 41.8419 1.53421 41.8646 1.6134C41.8873 1.69258 41.8896 1.77469 41.8714 1.85463C41.8532 1.93456 41.815 2.01064 41.7589 2.07813L37.1463 8.4746H27.1772C26.9824 8.4746 26.7956 8.41204 26.6579 8.30069C26.5202 8.18934 26.4428 8.03832 26.4428 7.88085ZM33.7866 18.4063C33.7866 18.2488 33.8639 18.0978 34.0017 17.9864C34.1394 17.8751 34.3262 17.8125 34.521 17.8125H37.4585C37.6532 17.8125 37.84 17.8751 37.9777 17.9864C38.1155 18.0978 38.1928 18.2488 38.1928 18.4063V25.5081C36.821 25.0503 35.3339 24.5628 33.7866 24.0671V18.4063ZM10.2814 10.8609V10.5141C10.282 10.1521 10.4336 9.80082 10.7118 9.51713C10.99 9.23345 11.3784 9.03398 11.8143 8.951C12.2501 8.86802 12.7079 8.90639 13.1134 9.0599C13.5189 9.21342 13.8485 9.47308 14.0488 9.79688L14.3594 10.2986C14.5416 10.5948 14.8227 10.8439 15.1709 11.0175C15.5192 11.1912 15.9206 11.2826 16.3297 11.2813H18.3596C18.5543 11.2813 18.7411 11.3438 18.8788 11.4552C19.0166 11.5665 19.0939 11.7175 19.0939 11.875C19.0939 12.0325 19.0166 12.1835 18.8788 12.2948C18.7411 12.4062 18.5543 12.4688 18.3596 12.4688H12.2701C11.7429 12.4683 11.2374 12.2987 10.8646 11.9973C10.4917 11.6959 10.282 11.2872 10.2814 10.8609ZM12.4846 19.0297V13.6563H13.9533V19.0297C13.6933 19.0119 13.4444 19 13.2189 19C12.9714 19 12.7284 19.016 12.4846 19.0297Z" fill="#288173"/>
<path d="M13.2188 36.8127H7.34375C7.14898 36.8127 6.96219 36.8753 6.82447 36.9866C6.68675 37.098 6.60938 37.249 6.60938 37.4065C6.60938 37.564 6.68675 37.715 6.82447 37.8263C6.96219 37.9377 7.14898 38.0002 7.34375 38.0002H13.2188C13.4135 38.0002 13.6003 37.9377 13.738 37.8263C13.8758 37.715 13.9531 37.564 13.9531 37.4065C13.9531 37.249 13.8758 37.098 13.738 36.9866C13.6003 36.8753 13.4135 36.8127 13.2188 36.8127Z" fill="#288173"/>
<path d="M39.6562 36.8127H33.7812C33.5865 36.8127 33.3997 36.8753 33.262 36.9866C33.1242 37.098 33.0469 37.249 33.0469 37.4065C33.0469 37.564 33.1242 37.715 33.262 37.8263C33.3997 37.9377 33.5865 38.0002 33.7812 38.0002H39.6562C39.851 38.0002 40.0378 37.9377 40.1755 37.8263C40.3133 37.715 40.3906 37.564 40.3906 37.4065C40.3906 37.249 40.3133 37.098 40.1755 36.9866C40.0378 36.8753 39.851 36.8127 39.6562 36.8127Z" fill="#288173"/>
</g>
<defs>
<clipPath id="clip0_4381_317">
<rect width="47" height="38" fill="white"/>
</clipPath>
</defs>
</svg>
