<svg width="47" height="38" viewBox="0 0 47 38" fill="none" xmlns="http://www.w3.org/2000/svg">
<path fill-rule="evenodd" clip-rule="evenodd" d="M29.9941 16.2613C29.9601 16.2613 29.9261 16.2583 29.8922 16.2531C29.7352 16.2293 29.5984 16.1514 29.5185 16.0401L26.4911 11.8445C26.3378 11.6315 26.4268 11.3591 26.6894 11.2352C26.9528 11.1112 27.2897 11.1832 27.443 11.3955L30.1492 15.1465L31.091 14.5401L29.3689 11.823C29.2303 11.604 29.3368 11.3354 29.6076 11.2233C29.8784 11.1112 30.2098 11.1981 30.3493 11.417L32.277 14.4585C32.3964 14.647 32.3349 14.8778 32.1302 15.0099L30.3365 16.164C30.2382 16.2271 30.1171 16.2613 29.9941 16.2613Z" fill="#288173"/>
<path fill-rule="evenodd" clip-rule="evenodd" d="M30.6768 20.9788C30.3729 20.9788 30.126 20.7791 30.126 20.5334V15.376C30.126 15.1303 30.3729 14.9307 30.6768 14.9307C30.9806 14.9307 31.2275 15.1303 31.2275 15.376V20.5334C31.2275 20.7791 30.9806 20.9788 30.6768 20.9788Z" fill="#288173"/>
<path fill-rule="evenodd" clip-rule="evenodd" d="M44.1656 37.9969H2.83496C2.53111 37.9969 2.28418 37.7973 2.28418 37.5516V23.2207C2.28418 22.9743 2.53111 22.7754 2.83496 22.7754H44.1656C44.4694 22.7754 44.7164 22.9743 44.7164 23.2207V37.5516C44.7164 37.7973 44.4694 37.9969 44.1656 37.9969ZM3.38574 37.1063H43.6148V23.666H3.38574V37.1063Z" fill="#288173"/>
<path fill-rule="evenodd" clip-rule="evenodd" d="M46.2526 23.666H0.74707C0.442305 23.666 0.196289 23.4663 0.196289 23.2207V20.5332C0.196289 20.2875 0.442305 20.0879 0.74707 20.0879H46.2526C46.5565 20.0879 46.8034 20.2875 46.8034 20.5332V23.2207C46.8034 23.4663 46.5565 23.666 46.2526 23.666ZM1.29785 22.7754H45.7018V20.9785H1.29785V22.7754Z" fill="#288173"/>
<path fill-rule="evenodd" clip-rule="evenodd" d="M12.6622 20.9789H9.68066C9.3759 20.9789 9.12988 20.7792 9.12988 20.5336V13.4375C9.12988 13.1918 9.3759 12.9922 9.68066 12.9922H12.6622C12.967 12.9922 13.213 13.1918 13.213 13.4375V20.5336C13.213 20.7792 12.967 20.9789 12.6622 20.9789ZM10.2305 20.0882H12.1114V13.8828H10.2305V20.0882Z" fill="#288173"/>
<path fill-rule="evenodd" clip-rule="evenodd" d="M18.3303 18.085H12.6628C12.3589 18.085 12.112 17.8861 12.112 17.6404C12.112 17.394 12.3589 17.1951 12.6628 17.1951H17.7795V10.4375H4.56445V17.1951H9.68121C9.98506 17.1951 10.232 17.394 10.232 17.6404C10.232 17.8861 9.98506 18.085 9.68121 18.085H4.01367C3.70982 18.085 3.46289 17.8861 3.46289 17.6404V9.99219C3.46289 9.74652 3.70982 9.54688 4.01367 9.54688H18.3303C18.6342 9.54688 18.8811 9.74652 18.8811 9.99219V17.6404C18.8811 17.8861 18.6342 18.085 18.3303 18.085Z" fill="#288173"/>
<path fill-rule="evenodd" clip-rule="evenodd" d="M42.9863 20.9786H20.5879C20.284 20.9786 20.0371 20.779 20.0371 20.5333V16.0765C20.0371 13.3734 22.757 11.1743 26.1003 11.1743H29.8594C30.1632 11.1743 30.4102 11.374 30.4102 11.6196C30.4102 11.866 30.1632 12.0649 29.8594 12.0649H26.1003C23.3638 12.0649 21.1387 13.8647 21.1387 16.0765V20.088H42.4355V16.0765C42.4355 13.8647 40.2095 12.0649 37.4739 12.0649H33.7148C33.411 12.0649 33.1641 11.866 33.1641 11.6196C33.1641 11.374 33.411 11.1743 33.7148 11.1743H37.4739C40.8172 11.1743 43.5371 13.3734 43.5371 16.0765V20.5333C43.5371 20.779 43.2902 20.9786 42.9863 20.9786Z" fill="#288173"/>
<path fill-rule="evenodd" clip-rule="evenodd" d="M23.9541 20.9787C23.6503 20.9787 23.4033 20.779 23.4033 20.5334V17.7939C23.4033 17.5483 23.6503 17.3486 23.9541 17.3486C24.258 17.3486 24.5049 17.5483 24.5049 17.7939V20.5334C24.5049 20.779 24.2589 20.9787 23.9541 20.9787Z" fill="#288173"/>
<path fill-rule="evenodd" clip-rule="evenodd" d="M39.6201 20.9787C39.3154 20.9787 39.0693 20.779 39.0693 20.5334V17.7939C39.0693 17.5483 39.3154 17.3486 39.6201 17.3486C39.924 17.3486 40.17 17.5483 40.17 17.7939V20.5334C40.17 20.779 39.924 20.9787 39.6201 20.9787Z" fill="#288173"/>
<path fill-rule="evenodd" clip-rule="evenodd" d="M31.7871 10.9756C29.5115 10.9756 28.3493 9.93581 27.7756 9.06448C27.3928 8.48187 27.2221 7.90222 27.1486 7.54894C26.5125 7.38046 26.0544 6.96558 25.913 6.40597C25.7533 5.76991 26.0709 5.13534 26.6869 4.86444C26.9531 4.74644 27.2882 4.82585 27.4341 5.04183C27.5801 5.2578 27.4809 5.52796 27.2138 5.64597C27.0256 5.72909 26.9301 5.97921 26.9926 6.22784C27.0357 6.40077 27.1853 6.6969 27.6985 6.73772C27.9665 6.75851 28.1767 6.9344 28.1942 7.15187C28.2043 7.27062 28.4824 10.085 31.7871 10.085C33.176 10.085 34.1977 9.60108 34.8265 8.64663C35.3158 7.90222 35.38 7.15929 35.38 7.15187C35.3975 6.9344 35.6077 6.75925 35.8758 6.73772C36.3834 6.6969 36.5284 6.39409 36.5688 6.21745C36.6312 5.9473 36.5183 5.70237 36.3724 5.64226C36.1007 5.53093 35.9923 5.263 36.13 5.04405C36.2677 4.82437 36.5991 4.73679 36.8699 4.84812C37.4813 5.09823 37.8026 5.72909 37.6511 6.38148C37.5189 6.9537 37.0645 7.37675 36.4256 7.54894C36.3522 7.90148 36.1824 8.48187 35.7986 9.06448C35.2249 9.93581 34.0637 10.9756 31.7871 10.9756Z" fill="#288173"/>
<path fill-rule="evenodd" clip-rule="evenodd" d="M29.8594 12.0649C29.5555 12.0649 29.3086 11.866 29.3086 11.6196V10.1782C29.3086 9.93256 29.5555 9.73291 29.8594 9.73291C30.1632 9.73291 30.4102 9.93256 30.4102 10.1782V11.6196C30.4102 11.866 30.1632 12.0649 29.8594 12.0649Z" fill="#288173"/>
<path fill-rule="evenodd" clip-rule="evenodd" d="M33.7148 12.0649C33.411 12.0649 33.1641 11.866 33.1641 11.6196V10.1782C33.1641 9.93256 33.411 9.73291 33.7148 9.73291C34.0187 9.73291 34.2656 9.93256 34.2656 10.1782V11.6196C34.2656 11.866 34.0187 12.0649 33.7148 12.0649Z" fill="#288173"/>
<path fill-rule="evenodd" clip-rule="evenodd" d="M36.4576 5.81797C36.4026 5.81797 36.3475 5.81129 36.2924 5.79793C36.1079 5.75043 35.9665 5.62797 35.9225 5.47508C35.469 3.92316 34.6814 3.92316 34.3445 3.92316C33.6523 3.92316 32.7454 4.26531 32.033 4.56293C31.8742 4.62973 31.6851 4.62973 31.5272 4.56293C30.814 4.26531 29.9079 3.92316 29.2149 3.92316C28.8789 3.92316 28.0913 3.92316 27.6378 5.47508C27.5928 5.62797 27.4524 5.75043 27.2669 5.79793C27.0815 5.84469 26.8796 5.80906 26.7345 5.70441C25.7505 4.99266 25.4769 3.96844 25.9836 2.89523C26.6464 1.49324 28.7926 0.00292969 31.4648 0.00292969C31.5695 0.00292969 31.675 0.00515625 31.7797 0.0103516C31.8843 0.00515625 31.9899 0.00292969 32.0955 0.00292969C34.7677 0.00292969 36.9139 1.49324 37.5766 2.89523C38.0834 3.96844 37.8098 4.99266 36.8258 5.70441C36.7229 5.77863 36.5917 5.81797 36.4576 5.81797ZM34.3445 3.03254C35.3744 3.03254 36.1419 3.48824 36.6366 4.38852C36.8074 3.96992 36.7037 3.54465 36.5476 3.21289C36.0161 2.08848 34.2747 0.893555 32.0945 0.893555C32.0009 0.893555 31.9064 0.895781 31.8127 0.900234C31.7907 0.901719 31.7687 0.901719 31.7466 0.900234C31.653 0.895781 31.5584 0.893555 31.4648 0.893555C29.2846 0.893555 27.5442 2.08848 27.0127 3.21289C26.8557 3.54465 26.752 3.96992 26.9227 4.38852C27.4175 3.4875 28.1849 3.03254 29.2149 3.03254C30.0521 3.03254 30.9654 3.33832 31.7797 3.66785C32.5939 3.33906 33.5082 3.03254 34.3445 3.03254Z" fill="#288173"/>
<path fill-rule="evenodd" clip-rule="evenodd" d="M33.5798 16.2613C33.4559 16.2613 33.3347 16.2271 33.2365 16.164L31.4437 15.0099C31.239 14.8778 31.1775 14.6477 31.2968 14.4585L33.2246 11.417C33.3632 11.1981 33.6955 11.1112 33.9663 11.2233C34.2362 11.3354 34.3436 11.604 34.2049 11.823L32.4828 14.5401L33.4247 15.1465L36.1308 11.3955C36.2841 11.1832 36.621 11.1112 36.8836 11.2352C37.147 11.3591 37.2352 11.6315 37.0819 11.8445L34.0553 16.0401C33.9745 16.1514 33.8387 16.2293 33.6808 16.2531C33.6477 16.2583 33.6138 16.2613 33.5798 16.2613Z" fill="#288173"/>
<path fill-rule="evenodd" clip-rule="evenodd" d="M32.8965 20.9788C32.5926 20.9788 32.3457 20.7791 32.3457 20.5334V15.376C32.3457 15.1303 32.5926 14.9307 32.8965 14.9307C33.2003 14.9307 33.4473 15.1303 33.4473 15.376V20.5334C33.4473 20.7791 33.2003 20.9788 32.8965 20.9788Z" fill="#288173"/>
<path fill-rule="evenodd" clip-rule="evenodd" d="M33.2955 34.4485H13.7051C13.4012 34.4485 13.1543 34.2488 13.1543 34.0031V26.769C13.1543 26.5226 13.4012 26.3237 13.7051 26.3237H33.2955C33.6002 26.3237 33.8462 26.5226 33.8462 26.769V34.0031C33.8462 34.2488 33.5993 34.4485 33.2955 34.4485ZM14.2559 33.5578H32.7447V27.2136H14.2559V33.5578Z" fill="#288173"/>
<path fill-rule="evenodd" clip-rule="evenodd" d="M40.0025 30.8311H33.2949C32.9911 30.8311 32.7441 30.6314 32.7441 30.3857C32.7441 30.1401 32.9911 29.9404 33.2949 29.9404H40.0025C40.3073 29.9404 40.5533 30.1401 40.5533 30.3857C40.5533 30.6314 40.3073 30.8311 40.0025 30.8311Z" fill="#288173"/>
<path fill-rule="evenodd" clip-rule="evenodd" d="M13.7047 30.8311H6.99707C6.69322 30.8311 6.44629 30.6314 6.44629 30.3857C6.44629 30.1401 6.69322 29.9404 6.99707 29.9404H13.7047C14.0094 29.9404 14.2554 30.1401 14.2554 30.3857C14.2554 30.6314 14.0094 30.8311 13.7047 30.8311Z" fill="#288173"/>
<path fill-rule="evenodd" clip-rule="evenodd" d="M40.0595 16.6969H36.9375C36.6327 16.6969 36.3867 16.4973 36.3867 16.2516V14.7554C36.3867 14.509 36.6327 14.3101 36.9375 14.3101H40.0595C40.3643 14.3101 40.6103 14.509 40.6103 14.7554V16.2516C40.6103 16.4973 40.3643 16.6969 40.0595 16.6969ZM37.4883 15.8063H39.5087V15.1999H37.4883V15.8063Z" fill="#288173"/>
</svg>
