<svg width="47" height="38" viewBox="0 0 47 38" fill="none" xmlns="http://www.w3.org/2000/svg">
<g clip-path="url(#clip0_4381_381)">
<path d="M45.674 12.5836C44.653 12.1563 43.1144 12.2903 42.1488 13.5941C42.146 13.5978 42.1433 13.6015 42.1406 13.6053L38.5735 18.6181C37.543 18.1893 36.2435 18.4006 35.5044 19.1678C35.2488 19.433 34.4043 20.3421 33.5101 21.3046C32.6629 22.2165 31.7868 23.1595 31.5418 23.4138C31.0376 23.9371 30.1427 24.5177 29.1951 25.1325C27.5657 26.1897 25.5377 27.5054 24.2902 29.3014C23.9587 29.7786 23.6957 30.2671 23.5003 30.7684C23.3049 30.2672 23.0418 29.7786 22.7103 29.3014C21.4627 27.5054 19.4349 26.1897 17.8054 25.1325C16.8579 24.5177 15.9629 23.9371 15.4587 23.4138C15.2135 23.1592 14.3367 22.2156 13.4888 21.3029C12.5953 20.3412 11.7514 19.4328 11.496 19.1678C10.7569 18.4008 9.45745 18.1893 8.42695 18.6181L4.85983 13.6053C4.85716 13.6015 4.85441 13.5978 4.85166 13.5941C3.88595 12.2903 2.34726 12.1563 1.3263 12.5836C0.296799 13.0143 -0.401096 14.0803 0.256141 15.2845C0.257425 15.2868 0.25871 15.2891 0.259995 15.2914C0.507618 15.7327 1.1063 16.9622 1.79942 18.3857C2.76899 20.3769 3.9758 22.8551 5.00144 24.7945C6.33528 27.3167 6.94158 28.0354 9.32648 29.9213L12.47 32.4072L11.3715 36.0128C11.2166 36.491 11.3464 37.0103 11.7196 37.4036C12.0785 37.7817 12.6108 37.9986 13.1801 37.9986H20.3665C21.7359 37.9986 22.6197 37.5209 23.0685 36.5381C23.2379 36.1672 23.3811 35.8033 23.5002 35.4455C23.6191 35.8033 23.7624 36.1673 23.9318 36.5381C24.3806 37.5209 25.2645 37.9986 26.6338 37.9986H33.8202C34.3894 37.9986 34.9217 37.7817 35.2807 37.4036C35.6539 37.0103 35.7837 36.491 35.6288 36.0128L34.5304 32.4072L37.6738 29.9213C40.0587 28.0353 40.6651 27.3166 41.9988 24.7945C43.0244 22.8551 44.2311 20.3769 45.2008 18.3856C45.8939 16.9621 46.4926 15.7327 46.7402 15.2914C46.7414 15.2891 46.7426 15.2868 46.7439 15.2845C47.4011 14.0803 46.7033 13.0143 45.674 12.5836ZM21.3465 36.0239C21.1942 36.3574 21.0479 36.5145 20.3663 36.5145H13.1924C13.17 36.5002 13.1271 36.4492 13.1472 36.3884C13.1488 36.3836 13.1504 36.3787 13.1519 36.3738L14.3776 32.3505C14.4553 32.0955 14.3604 31.8263 14.1281 31.6425L10.6099 28.8603C8.40235 27.1145 7.92601 26.5497 6.68928 24.211C5.6741 22.2913 4.47279 19.8242 3.50754 17.8419C2.77816 16.3442 2.20169 15.1603 1.93397 14.6821C1.71177 14.2718 1.92186 14.0053 2.16985 13.9015C2.53091 13.7504 2.95319 13.9228 3.27295 14.3514L7.22876 19.9105C7.14634 20.3031 7.19765 20.7954 7.48015 21.4105C8.29442 23.1835 9.3118 24.963 10.2714 26.2927C10.5268 26.6467 11.0888 26.7662 11.5266 26.5597C11.9645 26.3532 12.1123 25.8988 11.8569 25.5448C10.9482 24.2856 9.98014 22.5905 9.20102 20.8938C8.98213 20.4172 8.97157 20.1125 9.16982 19.9879C9.43644 19.8203 9.83852 19.8625 10.048 20.0798C10.2935 20.3346 11.1718 21.2799 12.0211 22.1941C12.9131 23.1542 13.7555 24.061 14.0107 24.3258C14.6467 24.9859 15.623 25.6193 16.6566 26.2899C19.9596 28.4332 23.7036 30.8624 21.3465 36.0239ZM45.0662 14.6822C44.7985 15.1604 44.222 16.3442 43.4926 17.8419C42.5273 19.8242 41.326 22.2913 40.3108 24.2111C39.074 26.5498 38.5978 27.1146 36.3901 28.8604L32.8719 31.6426C32.6397 31.8263 32.5448 32.0955 32.6225 32.3506L33.8481 36.3739C33.8496 36.3787 33.8511 36.3836 33.8528 36.3885C33.8729 36.4492 33.8299 36.5003 33.8075 36.5145H26.6336C25.9522 36.5145 25.8058 36.3574 25.6535 36.024C23.2963 30.8625 27.0404 28.4333 30.3437 26.29C31.3774 25.6194 32.3535 24.986 32.9897 24.3258C33.2446 24.0613 34.0863 23.1552 34.9775 22.196C35.8276 21.281 36.7067 20.3348 36.9524 20.0799C37.0752 19.9524 37.2642 19.8852 37.4534 19.8852C37.5867 19.8852 37.7203 19.9186 37.8305 19.9879C38.0286 20.1125 38.0181 20.4173 37.7992 20.8939C37.0201 22.5904 36.0521 24.2856 35.1433 25.5449C34.8879 25.8989 35.0357 26.3533 35.4736 26.5598C35.9114 26.7664 36.4735 26.6467 36.7289 26.2928C37.6884 24.963 38.7058 23.1835 39.5201 21.4105C39.8025 20.7954 39.8538 20.3032 39.7713 19.9106L43.7272 14.3515C44.047 13.9229 44.4691 13.7507 44.8303 13.9016C45.0782 14.0054 45.2883 14.272 45.0662 14.6822Z" fill="#288173"/>
<path d="M23.2632 20.7575C23.3407 20.7742 23.4204 20.7826 23.5001 20.7826C23.5797 20.7826 23.6593 20.7742 23.737 20.7575C25.7442 20.324 28.8407 18.6311 31.6256 16.4447C33.5406 14.9411 36.9195 11.9164 38.0331 8.55108C38.8938 5.94982 38.195 3.64494 36.012 1.88568C32.8951 -0.626533 27.8232 -0.626681 24.7058 1.88568C23.9226 2.51694 22.8787 2.35674 22.2942 1.88568C20.4198 0.375088 17.736 -0.284077 15.115 0.122419C14.6172 0.199667 14.291 0.588502 14.3866 0.99099C14.4821 1.39348 14.9632 1.6572 15.4609 1.57996C17.4846 1.26607 19.5546 1.77326 20.9982 2.9368C22.4011 4.06746 24.599 4.06753 26.0017 2.9368C28.4045 1.00049 32.3136 1.00049 34.716 2.9368C36.4313 4.31924 36.9508 6.07909 36.2597 8.16752C35.5188 10.4065 33.4189 12.9679 30.3467 15.38C27.5912 17.5434 24.9371 18.8773 23.4991 19.266C21.6371 18.7685 18.187 16.8554 15.1425 14.1087C13.0999 12.266 9.78777 8.69489 10.5551 5.48225C10.6511 5.07984 10.3256 4.69071 9.82788 4.61294C9.3297 4.53532 8.84877 4.79845 8.75267 5.20087C7.83515 9.04284 11.5058 13.0516 13.7755 15.0993C16.8234 17.8488 20.8135 20.2285 23.2632 20.7575Z" fill="#288173"/>
<path d="M24.647 5.19971H22.3525C21.3404 5.19971 20.5169 5.86548 20.5169 6.68381V7.9824H18.9108C17.8986 7.9824 17.0752 8.64817 17.0752 9.4665V11.3216C17.0752 12.14 17.8986 12.8057 18.9108 12.8057H20.5169V14.1043C20.5169 14.9227 21.3404 15.5884 22.3525 15.5884H24.647C25.6591 15.5884 26.4826 14.9227 26.4826 14.1043V12.8057H28.0888C29.1009 12.8057 29.9243 12.14 29.9243 11.3216V9.4665C29.9243 8.64817 29.1009 7.9824 28.0888 7.9824H26.4826V6.68381C26.4826 5.8654 25.6591 5.19971 24.647 5.19971ZM28.0887 9.46643L28.0888 11.3216H25.5648C25.0579 11.3216 24.647 11.6538 24.647 12.0636L24.647 14.1042H22.3525V12.0636C22.3525 11.6538 21.9416 11.3216 21.4347 11.3216L18.9108 11.3217V9.46643H21.4347C21.9416 9.46643 22.3525 9.13421 22.3525 8.72438V6.68374H24.647V8.72438C24.647 9.13421 25.058 9.46643 25.5648 9.46643H28.0887Z" fill="#288173"/>
<path d="M11.6358 3.15354C12.1428 3.15354 12.5536 2.82132 12.5536 2.41148C12.5536 2.00165 12.1428 1.66943 11.6358 1.66943H11.6352C11.1283 1.66943 10.7178 2.00165 10.7178 2.41148C10.7178 2.82132 11.1289 3.15354 11.6358 3.15354Z" fill="#288173"/>
</g>
<defs>
<clipPath id="clip0_4381_381">
<rect width="47" height="38" fill="white"/>
</clipPath>
</defs>
</svg>
