<svg width="41" height="38" viewBox="0 0 41 38" fill="none" xmlns="http://www.w3.org/2000/svg">
<path d="M14.8888 29.5498C13.2976 29.5498 12.0029 28.3191 12.0029 26.8065C12.0029 25.2939 13.2976 24.0632 14.8888 24.0632H21.5208C21.9247 24.0632 22.2519 24.3742 22.2519 24.7582C22.2519 25.1422 21.9247 25.4532 21.5208 25.4532H14.8888C14.104 25.4532 13.4635 26.0605 13.4635 26.8065C13.4635 27.5526 14.1025 28.1599 14.8888 28.1599C15.2928 28.1599 15.6199 28.4708 15.6199 28.8548C15.6199 29.2388 15.2928 29.5498 14.8888 29.5498Z" fill="#288173"/>
<path d="M22.2384 29.5508H14.8893C14.4853 29.5508 14.1582 29.2399 14.1582 28.8559C14.1582 28.4718 14.4853 28.1609 14.8893 28.1609H22.2384C22.6424 28.1609 22.9695 28.4718 22.9695 28.8559C22.9695 29.2399 22.6424 29.5508 22.2384 29.5508Z" fill="#288173"/>
<path d="M18.7 34.6673C17.7892 34.6673 14.4302 34.5987 12.6394 33.6366C10.6781 32.5825 2.72072 27.1383 0.994456 25.7309C-0.0483549 24.8812 -0.304878 23.6037 0.386234 22.6928C1.08349 21.7744 2.71921 21.3014 5.22271 22.7278C7.50039 24.0272 10.1713 25.5061 13.0664 26.6259C13.4396 26.7705 13.6208 27.1763 13.4672 27.5311C13.3151 27.8859 12.8882 28.0581 12.5149 27.9136C9.52458 26.7572 6.79377 25.2462 4.47006 23.9205C2.928 23.0416 1.8867 23.0898 1.57186 23.5059C1.37063 23.7715 1.43368 24.2592 1.94511 24.6767C3.59312 26.0184 11.4982 31.4276 13.3581 32.4277C14.7696 33.1854 17.8474 33.2979 18.9134 33.2774H28.9964C29.4003 33.2774 29.7275 33.5884 29.7275 33.9724C29.7275 34.3564 29.4003 34.6673 28.9964 34.6673H18.9272C18.9089 34.6658 18.829 34.6673 18.7 34.6673Z" fill="#288173"/>
<path d="M34.4541 25.9284C34.3082 25.9284 34.1607 25.8876 34.0317 25.8C33.9948 25.7752 30.2043 23.2757 26.1205 24.0815C23.2975 24.6378 21.8922 25.3575 21.8784 25.3648C21.5252 25.5487 21.0813 25.4261 20.8863 25.0903C20.6912 24.7546 20.8187 24.3341 21.1719 24.1487C21.2349 24.1151 22.7585 23.3252 25.8256 22.7208C30.5438 21.7923 34.7045 24.5487 34.8795 24.667C35.2082 24.8889 35.2865 25.3225 35.0531 25.6349C34.9087 25.8263 34.6829 25.9284 34.4541 25.9284Z" fill="#288173"/>
<path d="M33.4589 38.0001C33.3314 38.0001 33.204 37.9694 33.0856 37.9022L28.2461 35.1721C28.0788 35.0786 27.9589 34.9253 27.9114 34.7457C27.8637 34.5677 27.8914 34.3778 27.9912 34.2187L34.3512 24.0311C34.557 23.7012 35.0055 23.5917 35.3527 23.7888L40.1921 26.519C40.3595 26.6124 40.4794 26.7657 40.5269 26.9453C40.5746 27.1234 40.5469 27.3132 40.4471 27.4723L34.0871 37.6599C33.9519 37.8774 33.7077 38.0001 33.4589 38.0001ZM29.6223 34.3312L33.204 36.3518L38.8191 27.3598L35.2374 25.3393L29.6223 34.3312Z" fill="#288173"/>
<path d="M35.5442 29.4219C35.4167 29.4219 35.2893 29.3898 35.1726 29.3241C34.8255 29.1285 34.7103 28.7021 34.9177 28.3721L35.5412 27.3735C35.747 27.0436 36.1955 26.9355 36.5426 27.1312C36.8897 27.3268 37.0049 27.7531 36.7975 28.0831L36.174 29.0817C36.0372 29.2993 35.793 29.4219 35.5442 29.4219Z" fill="#288173"/>
<path d="M31.0093 16.6538C30.6054 16.6538 30.2782 16.3429 30.2782 15.9589C30.2782 9.90152 25.0947 4.97262 18.7208 4.97262C12.3485 4.97262 7.16336 9.89998 7.16336 15.9589C7.16336 16.3429 6.83624 16.6538 6.43227 16.6538C6.0283 16.6538 5.70117 16.3429 5.70117 15.9589C5.70117 9.13504 11.5421 3.58423 18.7192 3.58423C25.8978 3.58423 31.7372 9.13647 31.7372 15.9589C31.7404 16.3429 31.4133 16.6538 31.0093 16.6538Z" fill="#288173"/>
<path d="M25.4761 11.0097C25.2734 11.0097 25.0722 10.9309 24.9278 10.7747C23.8343 9.59498 22.4167 8.76139 20.8301 8.36283C20.4401 8.26498 20.2066 7.88538 20.3094 7.51315C20.4124 7.14236 20.8132 6.92044 21.2033 7.01819C23.0725 7.48682 24.7388 8.46651 26.0259 9.85491C26.2931 10.1425 26.264 10.5819 25.9615 10.836C25.8201 10.9527 25.6482 11.0097 25.4761 11.0097Z" fill="#288173"/>
<path d="M27.3546 14.2364C27.0397 14.2364 26.7479 14.0408 26.6542 13.7385C26.5559 13.4203 26.433 13.1049 26.2917 12.7998C26.129 12.448 26.2964 12.0392 26.6665 11.8829C27.0351 11.7282 27.4667 11.8873 27.6294 12.2377C27.7953 12.5954 27.9381 12.9677 28.0549 13.3429C28.1685 13.7108 27.9489 14.0977 27.5603 14.2057C27.4928 14.2261 27.4222 14.2364 27.3546 14.2364Z" fill="#288173"/>
<path d="M32.4063 20.3667H5.04164C4.63767 20.3667 4.31055 20.0558 4.31055 19.6718V15.9606C4.31055 15.5766 4.63767 15.2656 5.04164 15.2656H32.4047C32.8087 15.2656 33.1358 15.5766 33.1358 15.9606V19.6718C33.1373 20.0557 32.8102 20.3667 32.4063 20.3667ZM5.77274 18.9768H31.6752V16.6555H5.77274V18.9768Z" fill="#288173"/>
<path d="M15.6138 5.35378C15.2989 5.35378 15.0087 5.15818 14.9134 4.85738C14.8043 4.50841 14.749 4.14489 14.749 3.77697C14.749 1.69505 16.5306 0 18.7224 0C20.9125 0 22.6957 1.69351 22.6957 3.77697C22.6957 4.14489 22.6404 4.50697 22.5313 4.85584C22.4161 5.22377 22.0091 5.43257 21.6221 5.32305C21.235 5.21352 21.0154 4.82664 21.1306 4.45872C21.1997 4.23977 21.235 4.00904 21.235 3.77687C21.235 2.46143 20.1092 1.38983 18.7239 1.38983C17.34 1.38983 16.2127 2.45999 16.2127 3.77687C16.2127 4.01047 16.2481 4.23967 16.3172 4.46016C16.4324 4.82808 16.2127 5.21496 15.8257 5.32448C15.7536 5.34363 15.683 5.35378 15.6138 5.35378Z" fill="#288173"/>
</svg>
