<svg width="32" height="32" viewBox="0 0 32 32" fill="none" xmlns="http://www.w3.org/2000/svg">
<path d="M25.3528 3.78038C25.5516 3.49813 25.4839 3.10825 25.2017 2.9095C22.4987 1.00606 19.3167 0 15.9996 0C13.9231 0 11.9025 0.392125 9.99393 1.16544C9.67405 1.29506 9.5198 1.6595 9.64943 1.97938C9.77899 2.29925 10.1432 2.45356 10.4634 2.32394C12.2221 1.61131 14.0847 1.25 15.9996 1.25C19.0577 1.25 21.9908 2.17725 24.482 3.9315C24.5914 4.0085 24.717 4.04556 24.8413 4.04556C25.0377 4.04556 25.2311 3.95319 25.3528 3.78038Z" fill="#288173"/>
<path d="M32.0004 15.9999C32.0004 12.8021 31.06 9.71532 29.2807 7.07332C29.0879 6.78694 28.6994 6.71126 28.4132 6.90401C28.1269 7.09682 28.051 7.48519 28.2439 7.77151C29.8837 10.2065 30.7504 13.0518 30.7504 15.9999C30.7504 19.1348 29.7885 22.1068 27.9647 24.6274C27.6659 24.4916 27.3345 24.4153 26.9854 24.4153C25.6758 24.4153 24.6104 25.4807 24.6104 26.7903C24.6104 28.0998 25.6758 29.1653 26.9854 29.1653C28.2949 29.1653 29.3604 28.0998 29.3604 26.7903C29.3604 26.2834 29.2002 25.8134 28.9286 25.4274C30.9394 22.6781 32.0004 19.4287 32.0004 15.9999ZM26.9854 27.9153C26.365 27.9153 25.8604 27.4106 25.8604 26.7903C25.8604 26.1699 26.365 25.6653 26.9854 25.6653C27.6057 25.6653 28.1104 26.1699 28.1104 26.7903C28.1104 27.4106 27.6057 27.9153 26.9854 27.9153Z" fill="#288173"/>
<path d="M21.5361 29.6758C19.7775 30.3885 17.9149 30.7498 16 30.7498C7.86681 30.7498 1.25 24.133 1.25 15.9998C1.25 12.8649 2.21194 9.89291 4.03569 7.37228C4.33456 7.50816 4.66594 7.58447 5.01506 7.58447C6.32463 7.58447 7.39006 6.51903 7.39006 5.20947C7.39006 3.89991 6.32463 2.83447 5.01506 2.83447C3.7055 2.83447 2.64006 3.89991 2.64006 5.20947C2.64006 5.71635 2.80019 6.18629 3.07181 6.57235C1.061 9.32166 0 12.571 0 15.9998C0 20.2736 1.66431 24.2915 4.68625 27.3135C7.70831 30.3356 11.7262 31.9998 16 31.9998C18.0765 31.9998 20.0971 31.6077 22.0056 30.8344C22.3255 30.7048 22.4797 30.3403 22.3501 30.0205C22.2204 29.7005 21.8559 29.5463 21.5361 29.6758ZM5.01506 4.08447C5.63538 4.08447 6.14006 4.58916 6.14006 5.20947C6.14006 5.82978 5.63538 6.33447 5.01506 6.33447C4.39475 6.33447 3.89006 5.82978 3.89006 5.20947C3.89006 4.58916 4.39475 4.08447 5.01506 4.08447Z" fill="#288173"/>
<path d="M15.9998 14.6108C14.6801 14.6108 13.6064 15.6845 13.6064 17.0041C13.6064 17.5512 13.7888 18.0703 14.1248 18.4919V20.3583C14.1248 21.3922 14.9659 22.2333 15.9998 22.2333C17.0336 22.2333 17.8748 21.3922 17.8748 20.3583V18.4919C18.2107 18.0702 18.3931 17.5512 18.3931 17.0041C18.3931 15.6845 17.3194 14.6108 15.9998 14.6108ZM16.8079 17.8127C16.6907 17.93 16.6248 18.089 16.6248 18.2548V20.3583C16.6248 20.7029 16.3444 20.9833 15.9998 20.9833C15.6551 20.9833 15.3748 20.7029 15.3748 20.3583V18.2548C15.3748 18.089 15.3088 17.9299 15.1916 17.8127C14.9754 17.5967 14.8564 17.3096 14.8564 17.0041C14.8564 16.3737 15.3693 15.8608 15.9998 15.8608C16.6302 15.8608 17.1431 16.3737 17.1431 17.0041C17.1431 17.3096 17.0241 17.5968 16.8079 17.8127Z" fill="#288173"/>
<path d="M21.7469 12.2266V10.9452C21.7469 7.7763 19.1689 5.19824 16 5.19824C12.8311 5.19824 10.2531 7.7763 10.2531 10.9452V12.2266C9.44387 12.571 8.875 13.3741 8.875 14.3076V22.5366C8.875 23.7831 9.88906 24.7971 11.1354 24.7971H20.8646C22.1109 24.7971 23.125 23.7831 23.125 22.5366V14.3076C23.125 13.3741 22.5561 12.571 21.7469 12.2266ZM11.5031 10.9452C11.5031 8.46555 13.5204 6.44824 16 6.44824C18.4796 6.44824 20.4969 8.46555 20.4969 10.9452V12.0471H19.1859V10.9452C19.1859 9.18843 17.7567 7.75924 15.9999 7.75924C14.2431 7.75924 12.8139 9.18849 12.8139 10.9452V12.0471H11.5029V10.9452H11.5031ZM14.064 12.0471V10.9452C14.064 9.87768 14.9325 9.00924 16 9.00924C17.0675 9.00924 17.936 9.87768 17.936 10.9452V12.0471H14.064ZM21.875 22.5366C21.875 23.0938 21.4217 23.5471 20.8646 23.5471H11.1354C10.5783 23.5471 10.125 23.0938 10.125 22.5366V14.3076C10.125 13.7504 10.5783 13.2971 11.1354 13.2971H20.8646C21.4217 13.2971 21.875 13.7504 21.875 14.3076V22.5366Z" fill="#288173"/>
<path d="M26.9854 5.86754C27.1497 5.86754 27.311 5.80129 27.4272 5.68504C27.5434 5.56879 27.6104 5.40754 27.6104 5.24316C27.6104 5.07816 27.5435 4.91691 27.4272 4.80066C27.311 4.68441 27.1497 4.61816 26.9854 4.61816C26.821 4.61816 26.6597 4.68441 26.5435 4.80066C26.4273 4.91691 26.3604 5.07816 26.3604 5.24316C26.3604 5.40754 26.4272 5.56816 26.5435 5.68504C26.6597 5.80129 26.821 5.86754 26.9854 5.86754Z" fill="#288173"/>
</svg>
