<svg width="45" height="36" viewBox="0 0 45 36" fill="none" xmlns="http://www.w3.org/2000/svg">
<path d="M11.4844 35.2187V30.4235L6.25269 27.108C5.71072 26.7589 4.97047 26.0571 4.70169 25.5417L1.20312 18.9654V13.2428C1.20312 12.5255 4.29044 11.4509 5.17609 14.3163C5.46984 15.271 5.53153 16.0904 5.59028 16.8124" stroke="#288173" stroke-miterlimit="10" stroke-linecap="round" stroke-linejoin="round"/>
<path d="M14.5439 22.8496C17.8178 23.5158 20.297 25.8944 20.297 28.7313V35.2186" stroke="#288173" stroke-miterlimit="10" stroke-linecap="round" stroke-linejoin="round"/>
<path d="M11.8692 25.0263L5.42578 19.825C5.86934 19.4664 8.08716 17.6745 11.2156 20.205L14.5276 22.8769" stroke="#288173" stroke-miterlimit="10" stroke-linecap="round" stroke-linejoin="round"/>
<path d="M33.5156 35.2187V30.4236L38.7488 27.1081C39.2907 26.759 40.031 26.0571 40.2998 25.5418L43.7983 18.9666V13.244C43.7983 12.5268 40.711 11.4521 39.8254 14.3175C39.5316 15.2723 39.4699 16.0916 39.4112 16.8136" stroke="#288173" stroke-miterlimit="10" stroke-linecap="round" stroke-linejoin="round"/>
<path d="M30.4562 22.8496C27.1824 23.5158 24.7031 25.8944 24.7031 28.7313V35.2186" stroke="#288173" stroke-miterlimit="10" stroke-linecap="round" stroke-linejoin="round"/>
<path d="M33.1311 25.0263L39.5745 19.825C39.1309 19.4664 36.9131 17.6745 33.7847 20.205L30.4727 22.8769" stroke="#288173" stroke-miterlimit="10" stroke-linecap="round" stroke-linejoin="round"/>
<path d="M33.1311 25.0265L39.5745 19.8253C39.1309 19.4666 36.9131 17.6747 33.7847 20.2053L30.4727 22.8771" stroke="#288173" stroke-miterlimit="10" stroke-linecap="round" stroke-linejoin="round"/>
<path d="M23.0523 9.17206C22.713 8.69349 22.5691 8.11993 22.6881 7.53449C22.8423 6.78162 22.2151 6.07149 21.2839 5.94562C20.3527 5.81974 19.4744 6.32918 19.3187 7.08087C18.7327 9.93443 21.1268 12.6431 24.6576 13.1169C25.1321 13.1811 25.6035 13.2012 26.0647 13.1822" stroke="#288173" stroke-miterlimit="10" stroke-linecap="round" stroke-linejoin="round"/>
<path d="M24.273 10.1221C23.145 9.63168 22.4679 8.61162 22.6896 7.53337C22.9041 6.48362 23.9072 5.70581 25.1278 5.50987C25.1336 5.47306 25.1278 5.43625 25.1366 5.39943C25.7549 2.39031 29.2726 0.356121 32.9959 0.856058C36.7191 1.356 39.451 4.2345 39.0192 7.26381C38.4229 11.4581 32.4451 13.3106 31.6711 13.7594C30.4402 14.4707 28.5309 22.4068 19.4349 21.0495C15.9334 20.527 12.7124 17.5808 15.669 11.3559C14.7011 13.7012 13.6583 13.9079 12.9313 14.0504C11.8194 14.2677 9.4239 13.5587 9.71471 12.1646C10.0408 10.6054 12.3599 11.0484 12.3599 11.0484C13.1501 8.89306 15.0184 7.74356 17.3228 8.22093C20.1898 8.81587 20.5365 11.8096 19.8726 13.8699" stroke="#288173" stroke-miterlimit="10" stroke-linecap="round" stroke-linejoin="round"/>
</svg>
