<svg width="47" height="38" viewBox="0 0 47 38" fill="none" xmlns="http://www.w3.org/2000/svg">
<path d="M5.00488 34.6633H6.38184V35.7766H5.00488V34.6633Z" fill="#288173"/>
<path d="M7.72168 34.6633H9.09863V35.7766H7.72168V34.6633Z" fill="#288173"/>
<path d="M44.317 15.9501C43.8766 15.106 43.9848 14.7575 43.9848 11.4348H39.7805C39.7805 14.7505 39.8899 15.1039 39.4484 15.9501C38.9132 16.9767 39.0163 17.5979 39.0163 19.5661H37.0252C37.0252 17.6467 37.1314 16.9825 36.5931 15.9501C36.1529 15.1062 36.2611 14.7575 36.2611 11.4348H32.0567C32.0567 14.9385 32.1428 15.1484 31.7246 15.9501C31.1894 16.9767 31.2925 17.5979 31.2925 19.5661H29.3013C29.3013 17.6467 29.4071 16.9814 28.8693 15.9501C28.4512 15.1489 28.5372 14.9522 28.5372 11.4348H24.3329C24.3329 14.7505 24.4422 15.1039 24.0008 15.9501C23.4647 16.9778 23.5688 17.6115 23.5688 19.5661H10.541V20.6794H45.623V22.917H1.37695V20.6794H9.15821V19.5661H0V24.0303H2.25095V37.9999H44.749V29.4719H43.372V36.8867H31.8056V34.7304H33.1826V33.6171H31.8056V31.1673H35.7217V27.6285H26.5127V31.1673H30.4286V33.6171H29.0517V34.7304H30.4286V36.8867H16.5713V34.7304H17.9482V33.6171H16.5713V31.1673H20.4872V27.6285H11.2783V31.1673H15.1943V33.6171H13.8174V34.7304H15.1943V36.8867H3.6279V24.0302H43.372V28.3585H44.749V24.0302H47V19.566H44.7491C44.7491 17.6467 44.8548 16.9813 44.317 15.9501ZM25.7097 12.548H27.1601V13.6344H25.7097V12.548ZM27.9242 19.566H24.9456V17.6779C24.9456 16.4617 25.6592 16.1917 25.7076 14.7478H27.1623C27.2106 16.1878 27.9243 16.4648 27.9243 17.6779L27.9242 19.566ZM33.4336 12.548H34.8841V13.6344H33.4336V12.548ZM35.6482 19.566H32.6695V17.6779C32.6695 16.466 33.3832 16.1871 33.4315 14.7478H34.8863C34.9345 16.1856 35.6483 16.467 35.6483 17.6779L35.6482 19.566ZM41.1575 12.548H42.6079V13.6344H41.1575V12.548ZM43.3721 19.566H40.3934V17.6779C40.3934 16.4597 41.1069 16.1945 41.1555 14.7478H42.6102C42.6585 16.1878 43.3722 16.4648 43.3722 17.6779V19.566H43.3721ZM27.8896 30.0539V28.7417H34.3447V30.0539H27.8896ZM12.6552 30.0539V28.7417H19.1103V30.0539H12.6552Z" fill="#288173"/>
<path d="M0 0V3.71094H4.36907V6.4168L1.31499 10.0262H8.79947L5.74603 6.41747V3.71094H13.5532V6.4168L10.4991 10.0262H17.9836L14.93 6.4174V3.71094H47V0L0 0ZM6.18922 8.91293H3.92533L5.05727 7.57514L6.18922 8.91293ZM15.3733 8.91293H13.1094L14.2414 7.57514L15.3733 8.91293ZM45.623 2.59766H1.37695V1.11328H45.623V2.59766Z" fill="#288173"/>
</svg>
