<svg width="47" height="38" viewBox="0 0 47 38" fill="none" xmlns="http://www.w3.org/2000/svg">
<g clip-path="url(#clip0_4381_461)">
<path d="M5.00616 26.4568L7.82616 28.7368V34.8332C7.82741 35.6728 8.24045 36.4777 8.9747 37.0713C9.70895 37.665 10.7044 37.9989 11.7428 37.9999H43.0832C44.1216 37.9989 45.1171 37.665 45.8513 37.0713C46.5856 36.4777 46.9986 35.6728 46.9999 34.8332V18.9999C46.9969 18.2006 46.6195 17.4318 45.9436 16.8484C45.2678 16.265 44.3437 15.9102 43.3574 15.8554C43.7523 15.2581 43.9006 14.5743 43.7803 13.904C43.6601 13.2337 43.2778 12.6121 42.6892 12.1301L32.7142 4.06021L32.7095 4.05325H32.7025L28.8399 0.92648C28.1056 0.333983 27.1105 0.0012207 26.0731 0.0012207C25.0357 0.0012207 24.0407 0.333983 23.3064 0.92648L1.14433 18.8517C0.413725 19.4485 0.00390625 20.2543 0.00390625 21.094C0.00390625 21.9337 0.413725 22.7395 1.14433 23.3363L5.00616 26.4568ZM28.8344 2.71311L31.0473 4.50355L17.0421 15.8332H12.6115L28.8344 2.71311ZM7.83321 23.2787L5.56154 25.1154L3.34785 23.3256L7.83321 19.6966V23.2787ZM6.66918 26.0109L7.83321 25.0698V26.952L6.66918 26.0109ZM45.4332 18.9999V34.8332C45.4332 35.3372 45.1856 35.8204 44.7449 36.1768C44.3042 36.5331 43.7065 36.7332 43.0832 36.7332H11.7499C11.1266 36.7332 10.5289 36.5331 10.0882 36.1768C9.64747 35.8204 9.39988 35.3372 9.39988 34.8332V18.9999C9.39988 18.496 9.64747 18.0127 10.0882 17.6564C10.5289 17.3001 11.1266 17.0999 11.7499 17.0999H43.0832C43.7065 17.0999 44.3042 17.3001 44.7449 17.6564C45.1856 18.0127 45.4332 18.496 45.4332 18.9999ZM41.5816 15.7148L41.4382 15.8332H19.2566L32.1549 5.39971L41.5792 13.0238C42.0187 13.3813 42.2656 13.8648 42.266 14.3689C42.2665 14.873 42.0204 15.3568 41.5816 15.7148ZM2.25353 19.7453L24.414 1.82201C24.8603 1.47717 25.4537 1.28442 26.071 1.28371C26.6884 1.283 27.2824 1.4744 27.7299 1.81821L9.92941 16.2132C9.23694 16.5099 8.67046 16.9677 8.30321 17.5274L2.24178 22.4288C1.80889 22.0693 1.56763 21.5869 1.56983 21.0851C1.57203 20.5834 1.8175 20.1024 2.25353 19.7453Z" fill="#288173"/>
<path d="M12.5335 24.0667H17.2335C17.649 24.0667 18.0475 23.9332 18.3413 23.6957C18.6351 23.4581 18.8001 23.1359 18.8001 22.8V20.2667C18.8001 19.9307 18.6351 19.6085 18.3413 19.371C18.0475 19.1335 17.649 19 17.2335 19H12.5335C12.118 19 11.7195 19.1335 11.4257 19.371C11.1319 19.6085 10.9668 19.9307 10.9668 20.2667V22.8C10.9668 23.1359 11.1319 23.4581 11.4257 23.6957C11.7195 23.9332 12.118 24.0667 12.5335 24.0667ZM12.5335 20.2667H17.2335V22.8H12.5335V20.2667Z" fill="#288173"/>
<path d="M11.7501 27.8666C11.9579 27.8666 12.1571 27.7999 12.304 27.6811C12.4509 27.5623 12.5335 27.4012 12.5335 27.2333V25.9666C12.5335 25.7986 12.4509 25.6375 12.304 25.5188C12.1571 25.4 11.9579 25.3333 11.7501 25.3333C11.5424 25.3333 11.3431 25.4 11.1962 25.5188C11.0493 25.6375 10.9668 25.7986 10.9668 25.9666V27.2333C10.9668 27.4012 11.0493 27.5623 11.1962 27.6811C11.3431 27.7999 11.5424 27.8666 11.7501 27.8666Z" fill="#288173"/>
<path d="M14.8829 25.3335C14.6752 25.3335 14.4759 25.4002 14.329 25.519C14.1821 25.6378 14.0996 25.7989 14.0996 25.9668V27.2335C14.0996 27.4015 14.1821 27.5626 14.329 27.6813C14.4759 27.8001 14.6752 27.8668 14.8829 27.8668C15.0907 27.8668 15.2899 27.8001 15.4368 27.6813C15.5837 27.5626 15.6663 27.4015 15.6663 27.2335V25.9668C15.6663 25.7989 15.5837 25.6378 15.4368 25.519C15.2899 25.4002 15.0907 25.3335 14.8829 25.3335Z" fill="#288173"/>
<path d="M17.2334 25.9666V27.2333C17.2334 27.4012 17.3159 27.5623 17.4628 27.6811C17.6097 27.7999 17.809 27.8666 18.0167 27.8666C18.2245 27.8666 18.4237 27.7999 18.5706 27.6811C18.7175 27.5623 18.8001 27.4012 18.8001 27.2333V25.9666C18.8001 25.7986 18.7175 25.6375 18.5706 25.5188C18.4237 25.4 18.2245 25.3333 18.0167 25.3333C17.809 25.3333 17.6097 25.4 17.4628 25.5188C17.3159 25.6375 17.2334 25.7986 17.2334 25.9666Z" fill="#288173"/>
<path d="M21.1495 25.3335C20.9418 25.3335 20.7425 25.4002 20.5956 25.519C20.4487 25.6378 20.3662 25.7989 20.3662 25.9668V27.2335C20.3662 27.4015 20.4487 27.5626 20.5956 27.6813C20.7425 27.8001 20.9418 27.8668 21.1495 27.8668C21.3573 27.8668 21.5565 27.8001 21.7034 27.6813C21.8503 27.5626 21.9329 27.4015 21.9329 27.2335V25.9668C21.9329 25.7989 21.8503 25.6378 21.7034 25.519C21.5565 25.4002 21.3573 25.3335 21.1495 25.3335Z" fill="#288173"/>
<path d="M24.2833 27.8666C24.4911 27.8666 24.6903 27.7999 24.8372 27.6811C24.9841 27.5623 25.0667 27.4012 25.0667 27.2333V25.9666C25.0667 25.7986 24.9841 25.6375 24.8372 25.5188C24.6903 25.4 24.4911 25.3333 24.2833 25.3333C24.0756 25.3333 23.8763 25.4 23.7294 25.5188C23.5825 25.6375 23.5 25.7986 23.5 25.9666V27.2333C23.5 27.4012 23.5825 27.5623 23.7294 27.6811C23.8763 27.7999 24.0756 27.8666 24.2833 27.8666Z" fill="#288173"/>
<path d="M30.5499 25.3333C30.3422 25.3333 30.1429 25.4 29.996 25.5188C29.8491 25.6375 29.7666 25.7986 29.7666 25.9666V27.2333C29.7666 27.4012 29.8491 27.5623 29.996 27.6811C30.1429 27.7999 30.3422 27.8666 30.5499 27.8666C30.7577 27.8666 30.9569 27.7999 31.1038 27.6811C31.2507 27.5623 31.3333 27.4012 31.3333 27.2333V25.9666C31.3333 25.7986 31.2507 25.6375 31.1038 25.5188C30.9569 25.4 30.7577 25.3333 30.5499 25.3333Z" fill="#288173"/>
<path d="M33.6837 25.3335C33.476 25.3335 33.2767 25.4002 33.1298 25.519C32.9829 25.6378 32.9004 25.7989 32.9004 25.9668V27.2335C32.9004 27.4015 32.9829 27.5626 33.1298 27.6813C33.2767 27.8001 33.476 27.8668 33.6837 27.8668C33.8915 27.8668 34.0907 27.8001 34.2376 27.6813C34.3845 27.5626 34.4671 27.4015 34.4671 27.2335V25.9668C34.4671 25.7989 34.3845 25.6378 34.2376 25.519C34.0907 25.4002 33.8915 25.3335 33.6837 25.3335Z" fill="#288173"/>
<path d="M36.8165 25.3333C36.6088 25.3333 36.4095 25.4 36.2626 25.5188C36.1157 25.6375 36.0332 25.7986 36.0332 25.9666V27.2333C36.0332 27.4012 36.1157 27.5623 36.2626 27.6811C36.4095 27.7999 36.6088 27.8666 36.8165 27.8666C37.0243 27.8666 37.2235 27.7999 37.3704 27.6811C37.5173 27.5623 37.5999 27.4012 37.5999 27.2333V25.9666C37.5999 25.7986 37.5173 25.6375 37.3704 25.5188C37.2235 25.4 37.0243 25.3333 36.8165 25.3333Z" fill="#288173"/>
<path d="M39.9503 25.3335C39.7426 25.3335 39.5433 25.4002 39.3964 25.519C39.2495 25.6378 39.167 25.7989 39.167 25.9668V27.2335C39.167 27.4015 39.2495 27.5626 39.3964 27.6813C39.5433 27.8001 39.7426 27.8668 39.9503 27.8668C40.1581 27.8668 40.3573 27.8001 40.5042 27.6813C40.6511 27.5626 40.7337 27.4015 40.7337 27.2335V25.9668C40.7337 25.7989 40.6511 25.6378 40.5042 25.519C40.3573 25.4002 40.1581 25.3335 39.9503 25.3335Z" fill="#288173"/>
<path d="M14.8835 29.1333H11.7501C11.5424 29.1333 11.3431 29.2 11.1962 29.3188C11.0493 29.4376 10.9668 29.5987 10.9668 29.7666C10.9668 29.9346 11.0493 30.0957 11.1962 30.2145C11.3431 30.3332 11.5424 30.4 11.7501 30.4H14.8835C15.0912 30.4 15.2905 30.3332 15.4374 30.2145C15.5843 30.0957 15.6668 29.9346 15.6668 29.7666C15.6668 29.5987 15.5843 29.4376 15.4374 29.3188C15.2905 29.2 15.0912 29.1333 14.8835 29.1333Z" fill="#288173"/>
<path d="M21.1501 29.1333H18.0167C17.809 29.1333 17.6097 29.2 17.4628 29.3188C17.3159 29.4376 17.2334 29.5987 17.2334 29.7666C17.2334 29.9346 17.3159 30.0957 17.4628 30.2145C17.6097 30.3332 17.809 30.4 18.0167 30.4H21.1501C21.3578 30.4 21.5571 30.3332 21.704 30.2145C21.8509 30.0957 21.9334 29.9346 21.9334 29.7666C21.9334 29.5987 21.8509 29.4376 21.704 29.3188C21.5571 29.2 21.3578 29.1333 21.1501 29.1333Z" fill="#288173"/>
<path d="M14.8835 31.6667H11.7501C11.5424 31.6667 11.3431 31.7335 11.1962 31.8522C11.0493 31.971 10.9668 32.1321 10.9668 32.3001C10.9668 32.4681 11.0493 32.6291 11.1962 32.7479C11.3431 32.8667 11.5424 32.9334 11.7501 32.9334H14.8835C15.0912 32.9334 15.2905 32.8667 15.4374 32.7479C15.5843 32.6291 15.6668 32.4681 15.6668 32.3001C15.6668 32.1321 15.5843 31.971 15.4374 31.8522C15.2905 31.7335 15.0912 31.6667 14.8835 31.6667Z" fill="#288173"/>
<path d="M21.1501 31.6667H18.0167C17.809 31.6667 17.6097 31.7335 17.4628 31.8522C17.3159 31.971 17.2334 32.1321 17.2334 32.3001C17.2334 32.4681 17.3159 32.6291 17.4628 32.7479C17.6097 32.8667 17.809 32.9334 18.0167 32.9334H21.1501C21.3578 32.9334 21.5571 32.8667 21.704 32.7479C21.8509 32.6291 21.9334 32.4681 21.9334 32.3001C21.9334 32.1321 21.8509 31.971 21.704 31.8522C21.5571 31.7335 21.3578 31.6667 21.1501 31.6667Z" fill="#288173"/>
<path d="M27.4167 29.1333H24.2833C24.0756 29.1333 23.8763 29.2 23.7294 29.3188C23.5825 29.4376 23.5 29.5987 23.5 29.7666C23.5 29.9346 23.5825 30.0957 23.7294 30.2145C23.8763 30.3332 24.0756 30.4 24.2833 30.4H27.4167C27.6244 30.4 27.8237 30.3332 27.9706 30.2145C28.1175 30.0957 28.2 29.9346 28.2 29.7666C28.2 29.5987 28.1175 29.4376 27.9706 29.3188C27.8237 29.2 27.6244 29.1333 27.4167 29.1333Z" fill="#288173"/>
</g>
<defs>
<clipPath id="clip0_4381_461">
<rect width="47" height="38" fill="white"/>
</clipPath>
</defs>
</svg>
