<svg width="47" height="38" viewBox="0 0 47 38" fill="none" xmlns="http://www.w3.org/2000/svg">
<path d="M11.5664 15.2891H8.26172C7.75472 15.2891 7.34375 15.6213 7.34375 16.0312C7.34375 16.4412 7.75472 16.7734 8.26172 16.7734H10.2608L8.06188 21.7176C7.89031 22.1033 8.13807 22.5284 8.61504 22.6671C8.71767 22.697 8.82251 22.7112 8.92559 22.7112C9.30187 22.7112 9.65483 22.5226 9.78949 22.2199L12.4301 16.2824C12.5313 16.055 12.4891 15.8021 12.3172 15.6044C12.1455 15.4067 11.8653 15.2891 11.5664 15.2891Z" fill="#288173"/>
<path d="M22.2148 15.2891H18.9102C18.4032 15.2891 17.9922 15.6213 17.9922 16.0312C17.9922 16.4412 18.4032 16.7734 18.9102 16.7734H20.9092L18.7103 21.7176C18.5387 22.1033 18.7865 22.5284 19.2635 22.6671C19.3661 22.697 19.4709 22.7112 19.574 22.7112C19.9503 22.7112 20.3033 22.5226 20.4379 22.2199L23.0786 16.2824C23.1797 16.055 23.1376 15.8021 22.9657 15.6044C22.7939 15.4067 22.5137 15.2891 22.2148 15.2891Z" fill="#288173"/>
<path d="M29.5587 16.7734H31.5577L29.3588 21.7176C29.1873 22.1033 29.435 22.5284 29.912 22.6671C30.0146 22.697 30.1195 22.7112 30.2226 22.7112C30.5988 22.7112 30.9518 22.5226 31.0865 22.2199L33.7271 16.2824C33.8283 16.055 33.7861 15.8021 33.6142 15.6044C33.4422 15.4068 33.1622 15.2891 32.8633 15.2891H29.5586C29.0516 15.2891 28.6406 15.6213 28.6406 16.0312C28.6406 16.4412 29.0517 16.7734 29.5587 16.7734Z" fill="#288173"/>
<path d="M36.5352 12.0234H4.58984C4.08285 12.0234 3.67188 12.3557 3.67188 12.7656V25.2344C3.67188 25.6443 4.08285 25.9766 4.58984 25.9766H36.5352C37.0421 25.9766 37.4531 25.6443 37.4531 25.2344V12.7656C37.4531 12.3557 37.0421 12.0234 36.5352 12.0234ZM5.50781 13.5078H14.3203V24.4922H5.50781V13.5078ZM16.1562 13.5078H24.9688V24.4922H16.1562V13.5078ZM35.6172 24.4922H26.8047V13.5078H35.6172V24.4922Z" fill="#288173"/>
<path d="M47 2.52344C47 1.13198 45.5999 0 43.8789 0C42.1579 0 40.7578 1.13198 40.7578 2.52344C40.7578 3.65668 41.6866 4.61767 42.9609 4.93532V16.6853C42.9609 17.5247 42.1476 18.2115 41.125 18.2623V9.79688C41.125 9.38696 40.714 9.05469 40.207 9.05469H36.8216C34.2615 3.61675 27.81 0 20.5625 0C13.315 0 6.86347 3.61675 4.30344 9.05469H0.917969C0.410975 9.05469 0 9.38696 0 9.79688V28.2031C0 28.613 0.410975 28.9453 0.917969 28.9453H3.67188V37.2578C3.67188 37.6677 4.08285 38 4.58984 38H36.5352C37.0421 38 37.4531 37.6677 37.4531 37.2578V28.9453H40.207C40.714 28.9453 41.125 28.613 41.125 28.2031V19.7492C43.1604 19.6974 44.7969 18.3435 44.7969 16.6854V4.93532C46.0712 4.61767 47 3.65668 47 2.52344ZM35.6172 36.5156H5.50781V28.9453H35.6172V36.5156ZM39.2891 27.4609H1.83594V10.5391H16.4315C16.9385 10.5391 17.3495 10.2068 17.3495 9.79688C17.3495 9.38696 16.9385 9.05469 16.4315 9.05469H6.28506C8.73337 4.48645 14.3174 1.48438 20.5625 1.48438C26.8076 1.48438 32.3916 4.48645 34.8399 9.05469H24.6934C24.1864 9.05469 23.7754 9.38696 23.7754 9.79688C23.7754 10.2068 24.1864 10.5391 24.6934 10.5391H39.2891V27.4609ZM43.8789 3.5625C43.1702 3.5625 42.5938 3.09641 42.5938 2.52344C42.5938 1.95047 43.1702 1.48438 43.8789 1.48438C44.5876 1.48438 45.1641 1.95047 45.1641 2.52344C45.1641 3.09641 44.5876 3.5625 43.8789 3.5625Z" fill="#288173"/>
<path d="M10.3115 33.4727H30.8128C31.3198 33.4727 31.7308 33.1404 31.7308 32.7305C31.7308 32.3206 31.3198 31.9883 30.8128 31.9883H10.3115C9.80453 31.9883 9.39355 32.3206 9.39355 32.7305C9.39355 33.1404 9.80462 33.4727 10.3115 33.4727Z" fill="#288173"/>
<path d="M20.5625 10.5391C20.8039 10.5391 21.0408 10.4596 21.2115 10.3216C21.3822 10.1836 21.4805 9.99207 21.4805 9.79688C21.4805 9.60168 21.3822 9.4102 21.2115 9.27215C21.0408 9.1341 20.8039 9.05469 20.5625 9.05469C20.3211 9.05469 20.0842 9.1341 19.9135 9.27215C19.7428 9.4102 19.6445 9.60168 19.6445 9.79688C19.6445 9.99207 19.7428 10.1836 19.9135 10.3216C20.0842 10.4596 20.3211 10.5391 20.5625 10.5391Z" fill="#288173"/>
</svg>
