<svg width="47" height="38" viewBox="0 0 47 38" fill="none" xmlns="http://www.w3.org/2000/svg">
<path d="M42.1372 28.5099C41.2632 27.1477 39.1812 26.6144 37.4963 27.3211L37.1177 27.4799C37.0859 27.2942 37.0172 27.1121 36.9074 26.941C36.4854 26.2834 35.7691 25.7972 34.8905 25.5721C34.0118 25.347 33.08 25.4109 32.2665 25.7523L28.8971 27.1655C28.4421 26.2656 27.2676 25.7585 25.7513 25.8303L16.0647 26.2901L7.25212 29.1428L4.63086 29.1427V37.9998H7.50144L14.9263 35.9042L27.0222 36.7312L33.6157 33.9655L32.9816 32.9774L26.7415 35.5948L14.7497 34.7749L7.26818 36.8866H6.0079V30.256L7.5176 30.2561L16.3689 27.3909L25.8322 26.9418C26.1966 26.924 27.4069 26.9277 27.6712 27.6971C27.8644 28.2592 27.4467 28.8543 26.7175 29.0655L17.7372 30.5101L18.0058 31.6019L21.4413 31.0493L27.4759 32.7785L38.1304 28.3094C39.1413 27.8855 40.3905 28.2053 40.915 29.0226C40.999 29.1535 41.0144 29.3041 40.9585 29.4467C40.9026 29.5893 40.7827 29.7052 40.6208 29.7731L34.2041 32.4646L34.8383 33.4528L41.255 30.7612C41.7432 30.5564 42.1041 30.209 42.2712 29.7829C42.4382 29.3568 42.3907 28.9047 42.1372 28.5099ZM27.3725 31.5676L24.0812 30.6246L27.0316 30.1499L27.0735 30.1432L27.1139 30.1324C28.1579 29.8526 28.8791 29.1516 29.0542 28.3539L32.9007 26.7404C33.9116 26.3165 35.1607 26.6364 35.6852 27.4537C35.7692 27.5846 35.7846 27.7352 35.7287 27.8777C35.6728 28.0203 35.5529 28.1362 35.3911 28.2041L27.3725 31.5676Z" fill="#288173"/>
<path d="M25.5652 23.3791C33.5374 23.3791 40.0233 18.1352 40.0233 11.6895C40.0233 5.24385 33.5374 0 25.5652 0C21.9813 0 18.5429 1.06838 15.8836 3.00823L16.8061 3.83481C19.2119 2.07976 22.3226 1.11328 25.5652 1.11328C32.7782 1.11328 38.6463 5.85779 38.6463 11.6895C38.6463 14.876 36.8943 17.7378 34.1282 19.6784C33.4931 19.0932 32.5119 18.6341 31.1963 18.3104L28.4711 17.6402L28.3387 16.5713C29.2861 16.0632 30.0094 15.3032 30.3609 14.4102H31.5765C32.5548 14.4102 33.3507 13.7666 33.3507 12.9757V11.8624C33.3507 11.1004 32.6115 10.477 31.6827 10.4322V9.66773C31.6827 6.94049 28.9384 4.72172 25.5652 4.72172C22.1921 4.72172 19.4478 6.94049 19.4478 9.66773V10.4323C18.519 10.4771 17.7798 11.1005 17.7798 11.8625V12.9757C17.7798 13.7667 18.5757 14.4102 19.5541 14.4102H20.7698C21.1213 15.3033 21.8445 16.0633 22.792 16.5713L22.6596 17.6402L19.9343 18.3105C18.6296 18.6314 17.6534 19.0941 17.0172 19.6889C14.2427 17.7481 12.4844 14.8818 12.4844 11.6896C12.4844 9.0679 13.6798 6.55285 15.8505 4.60772L14.8281 3.8619C12.4287 6.01202 11.1074 8.79188 11.1074 11.6896C11.1072 18.1352 17.5931 23.3791 25.5652 23.3791ZM31.9738 11.8624V12.9757C31.9738 13.1498 31.7918 13.2969 31.5765 13.2969H30.5932C30.5946 13.2577 30.5969 13.2187 30.5969 13.1792V11.5412H31.5765C31.7918 11.5412 31.9738 11.6883 31.9738 11.8624ZM25.5652 5.835C28.1792 5.835 30.3057 7.55436 30.3057 9.66773V10.4279H20.8248V9.66773C20.8248 7.55436 22.9513 5.835 25.5652 5.835ZM19.554 13.2969C19.3387 13.2969 19.1566 13.1498 19.1566 12.9757V11.8624C19.1566 11.6883 19.3386 11.5412 19.554 11.5412H20.5336V13.1792C20.5336 13.2187 20.5359 13.2577 20.5373 13.2969H19.554ZM21.9106 13.1792V11.5412H29.22V13.1792C29.22 14.8086 27.5805 16.134 25.5653 16.134C23.5502 16.134 21.9106 14.8086 21.9106 13.1792ZM25.5652 17.2474C26.0699 17.2474 26.5571 17.1863 27.0171 17.074L27.1418 18.0809C27.1261 18.5649 26.4112 18.9708 25.5652 18.9708C24.7193 18.9708 24.0044 18.5649 23.9888 18.0809L24.1135 17.074C24.5734 17.1863 25.0606 17.2474 25.5652 17.2474ZM20.335 19.3756L22.7968 18.7701C23.2164 19.5368 24.2989 20.0841 25.5653 20.0841C26.8318 20.0841 27.9142 19.5368 28.3338 18.7702L30.7956 19.3757C31.8248 19.6289 32.5759 19.9604 33.0404 20.3638C30.92 21.5619 28.3427 22.2658 25.5653 22.2658C22.7955 22.2658 20.2244 21.5656 18.1073 20.3733C18.6833 19.8678 19.5992 19.5566 20.335 19.3756Z" fill="#288173"/>
<path d="M28.3193 2.7832H29.6963V3.89648H28.3193V2.7832Z" fill="#288173"/>
<path d="M31.0732 3.89648H32.4502V5.00977H31.0732V3.89648Z" fill="#288173"/>
</svg>
