<svg width="47" height="38" viewBox="0 0 47 38" fill="none" xmlns="http://www.w3.org/2000/svg">
<path d="M46.9431 21.2931C46.5958 19.2497 44.7055 17.6445 42.2993 17.3495V16.1402C42.2993 12.8034 39.3125 10.0867 35.6411 10.0867C32.0754 10.0867 29.0902 12.7209 28.9829 15.9592H29.0283L28.9829 15.9659V29.0754C28.9829 33.2663 25.2934 36.6696 20.758 36.6696C16.2226 36.6696 12.5331 33.2616 12.5331 29.0754V27.9399C13.669 27.9399 14.8831 27.2407 14.8831 25.279V23.6059C19.9105 22.5143 23.4996 18.8483 23.4996 14.692V13.305H21.933L21.9001 4.64715C21.8887 3.04455 20.5346 1.67619 18.6775 1.39089C18.2769 0.348738 16.9573 -0.220359 15.7301 0.119902C14.5029 0.460079 13.8328 1.58073 14.2334 2.62296C14.634 3.66511 15.9536 4.23421 17.1809 3.89395C17.838 3.71176 18.3664 3.29193 18.6242 2.74728C19.6278 2.98975 20.323 3.76506 20.3311 4.65114L20.3663 13.305H18.7997V14.7113C18.7372 17.0252 16.9105 19.036 14.2909 19.6745C12.8893 20.0522 11.3843 20.0522 9.98264 19.6745C7.36606 19.0338 5.54347 17.0233 5.48325 14.7113V13.305H3.13328V4.65713C3.13779 3.758 3.84983 2.97237 4.87226 2.73863C5.34901 3.7693 6.71933 4.27654 7.93299 3.87167C9.14664 3.4668 9.74393 2.30299 9.26718 1.2724C8.79043 0.241804 7.42001 -0.265511 6.20645 0.13936C5.54885 0.358799 5.04145 0.816721 4.82369 1.38756C2.94636 1.65997 1.57183 3.03972 1.56664 4.65713V13.305H0V14.6887C0 18.8496 3.59153 22.517 8.61653 23.6059V25.279C8.61653 27.2407 9.83068 27.9399 10.9665 27.9399V29.0754C10.9665 33.998 15.3586 38 20.758 38C26.1574 38 30.5495 33.9934 30.5495 29.0754V15.9978C30.6279 13.4733 32.9136 11.4191 35.6411 11.4191C38.4485 11.4191 40.7327 13.5372 40.7327 16.1422V17.3495C37.7354 17.7169 35.6564 20.0782 36.089 22.6236C36.5216 25.169 39.3021 26.9345 42.2993 26.5672C45.2966 26.1998 47.3756 23.8384 46.9431 21.2931ZM16.4497 2.66146C16.0172 2.66146 15.6664 2.36361 15.6664 1.99624C15.6664 1.62887 16.0172 1.33102 16.4497 1.33102C16.8823 1.33102 17.2331 1.62887 17.2331 1.99624C17.2331 2.36361 16.8823 2.66146 16.4497 2.66146ZM7.04989 1.33102C7.48248 1.33102 7.83321 1.62887 7.83321 1.99624C7.83321 2.36361 7.48248 2.66146 7.04989 2.66146C6.6173 2.66146 6.26657 2.36361 6.26657 1.99624C6.26657 1.62887 6.6173 1.33102 7.04989 1.33102ZM1.56664 14.6887V14.6354H3.9166V14.7113C3.97535 17.6026 6.24042 20.1258 9.50795 20.9397C11.2202 21.4002 13.0581 21.4002 14.7703 20.9397C18.0394 20.1269 20.3065 17.6036 20.3663 14.7113V14.6354H21.933V14.6887C21.933 18.3893 18.5741 21.6455 13.9431 22.4332C12.8557 22.6181 11.7418 22.6645 10.6383 22.5709C10.275 22.5409 9.91391 22.4945 9.55652 22.4318C4.92552 21.6455 1.56664 18.3893 1.56664 14.6887ZM10.9665 26.6094C10.2615 26.6094 10.1832 25.6781 10.1832 25.279V23.8674C10.2458 23.874 10.3101 23.8767 10.3735 23.882C10.4519 23.8893 10.5302 23.8947 10.6085 23.9006C10.979 23.9286 11.3527 23.9472 11.7294 23.9479H11.7686C12.1446 23.9479 12.5175 23.9286 12.8856 23.9006C12.964 23.8947 13.047 23.8893 13.1277 23.882C13.1896 23.876 13.2538 23.874 13.3157 23.8674V25.279C13.3157 25.6781 13.2373 26.6094 12.5324 26.6094H10.9665ZM41.516 25.279C39.353 25.279 37.5994 23.7898 37.5994 21.9529C37.5994 20.1159 39.353 18.6268 41.516 18.6268C43.6791 18.6268 45.4326 20.1159 45.4326 21.9529C45.4301 23.789 43.678 25.2768 41.516 25.279Z" fill="#288173"/>
</svg>
