<svg width="47" height="38" viewBox="0 0 47 38" fill="none" xmlns="http://www.w3.org/2000/svg">
<g clip-path="url(#clip0_4381_539)">
<path d="M44.4018 27.9799L42.7179 29.3413L40.8188 27.8059L42.5027 26.4444C42.7898 26.2123 42.7898 25.837 42.5027 25.6049C42.2155 25.3727 41.7507 25.3727 41.4643 25.6049L39.7804 26.9663L38.8308 26.1986C38.5437 25.9665 38.0788 25.9665 37.7924 26.1986L34.4246 28.9216C33.5661 29.6157 33.5661 30.7462 34.4246 31.4402L34.5641 31.5531C31.316 33.4347 27.5134 34.4375 23.5 34.4375C12.9713 34.4375 4.40625 27.512 4.40625 19C4.40625 18.0179 3.41778 17.2188 2.20312 17.2188C0.988469 17.2188 0 18.0179 0 19C0 29.4767 10.542 38 23.5 38C28.6311 38 33.6557 36.6213 37.73 34.1121L38.2228 34.5105C38.6369 34.846 39.1907 35.0312 39.7804 35.0312C40.3701 35.0312 40.9238 34.846 41.338 34.5111L44.7058 31.7882C44.993 31.556 44.993 31.1808 44.7058 30.9486L43.7563 30.1809L45.4402 28.8194C45.7273 28.5873 45.7273 28.212 45.4402 27.9799C45.153 27.7477 44.6882 27.7477 44.4018 27.9799ZM23.5 36.8125C11.352 36.8125 1.46875 28.8218 1.46875 19C1.46875 18.6728 1.79775 18.4062 2.20312 18.4062C2.6085 18.4062 2.9375 18.6728 2.9375 19C2.9375 28.1669 12.1613 35.625 23.5 35.625C27.9048 35.625 32.0746 34.5052 35.6157 32.4033L36.671 33.2565C32.8442 35.5757 28.3146 36.8125 23.5 36.8125ZM40.2996 33.671C40.0242 33.8936 39.5365 33.8936 39.2612 33.671L35.463 30.6001C35.1766 30.3685 35.1766 29.9921 35.463 29.7605L38.3116 27.4574L43.1482 31.3678L40.2996 33.671Z" fill="#288173"/>
<path d="M25.1817 8.93158C24.8725 8.85499 24.5369 8.95296 24.3577 9.17027L15.5452 19.8578C15.3954 20.0401 15.3807 20.274 15.5085 20.467C15.6363 20.6605 15.8852 20.7811 16.1562 20.7811H21.2968V28.4998C21.2968 28.7611 21.5083 28.9926 21.8183 29.068C21.8888 29.0852 21.96 29.0936 22.0312 29.0936C22.2721 29.0936 22.5042 28.9974 22.6422 28.8293L31.4547 18.1418C31.6045 17.9596 31.6192 17.7256 31.4914 17.5326C31.3637 17.3391 31.1147 17.2186 30.8437 17.2186H25.7031V9.4998C25.7031 9.23855 25.4916 9.00699 25.1817 8.93158ZM29.4719 18.4061L22.7656 26.5386V20.1873C22.7656 19.8596 22.4373 19.5936 22.0312 19.5936H17.528L24.2343 11.461V17.8123C24.2343 18.1401 24.5626 18.4061 24.9687 18.4061H29.4719Z" fill="#288173"/>
<path d="M23.5003 0C18.3692 0 13.3446 1.37869 9.27029 3.88787L8.77752 3.48947C7.94841 2.81853 6.49141 2.81853 5.6623 3.48947L2.29446 6.21241C2.00732 6.44456 2.00732 6.81981 2.29446 7.05197L3.244 7.81969L1.56008 9.18116C1.27294 9.41331 1.27294 9.78856 1.56008 10.0207C1.70329 10.1365 1.89129 10.1947 2.07929 10.1947C2.26729 10.1947 2.45529 10.1365 2.59849 10.0207L4.28241 8.65925L6.1815 10.1947L4.49758 11.5562C4.21044 11.7883 4.21044 12.1636 4.49758 12.3957C4.64079 12.5115 4.82878 12.5697 5.01679 12.5697C5.20479 12.5697 5.39279 12.5115 5.53599 12.3957L7.21991 11.0343L8.16946 11.802C8.31266 11.9178 8.50066 11.9759 8.68866 11.9759C8.87666 11.9759 9.06466 11.9178 9.20786 11.802L12.5757 9.07903C13.4342 8.38494 13.4342 7.25444 12.5757 6.56034L12.4362 6.44753C15.6843 4.56534 19.4869 3.5625 23.5003 3.5625C34.029 3.5625 42.594 10.488 42.594 19C42.594 19.9821 43.5825 20.7812 44.7971 20.7812C46.0118 20.7812 47.0003 19.9821 47.0003 19C47.0003 8.52328 36.4576 0 23.5003 0ZM11.5373 8.23947L8.68866 10.5426L3.85207 6.63219L6.70071 4.32903C6.9761 4.10637 7.46372 4.10637 7.73911 4.32903L11.5373 7.39991C11.8237 7.63088 11.8237 8.00791 11.5373 8.23947ZM44.7971 19.5938C44.3918 19.5938 44.0628 19.3272 44.0628 19C44.0628 9.8325 34.8383 2.375 23.5003 2.375C19.0955 2.375 14.9257 3.49481 11.3846 5.59669L10.33 4.74466C14.1201 2.45456 18.7569 1.1875 23.5003 1.1875C35.6483 1.1875 45.5315 9.17819 45.5315 19C45.5315 19.3272 45.2025 19.5938 44.7971 19.5938Z" fill="#288173"/>
</g>
<defs>
<clipPath id="clip0_4381_539">
<rect width="47" height="38" fill="white"/>
</clipPath>
</defs>
</svg>
