<svg width="47" height="38" viewBox="0 0 47 38" fill="none" xmlns="http://www.w3.org/2000/svg">
<path fill-rule="evenodd" clip-rule="evenodd" d="M5.5 2.42553H41.5C42.8805 2.42553 44 3.3305 44 4.44681V33.5532C44 34.6693 42.8805 35.5745 41.5 35.5745H40.5V14.9574C40.5 13.8411 39.3807 12.9361 38 12.9361H24H22.5L9 12.9362C7.6193 12.9362 6.5 13.8411 6.5 14.9574V35.5745H5.5C4.1193 35.5745 3 34.6693 3 33.5532V4.44681C3 3.3305 4.1193 2.42553 5.5 2.42553ZM41.5 0H5.5C2.46245 0 0 1.99092 0 4.44681V33.5532C0 36.009 2.46245 38 5.5 38H41.5C44.5375 38 47 36.009 47 33.5532V4.44681C47 1.99092 44.5375 0 41.5 0ZM25.5 35.5745V15.3616H37.5V35.5745H25.5ZM9.5 15.3617H22.5V35.5745H9.5V15.3617ZM15.9597 7.80629L17.8001 9.02375C18.4413 9.44789 19.3863 9.37145 19.9109 8.85307C20.4356 8.33469 20.341 7.57061 19.6999 7.14647L17.5562 5.72846C16.6659 5.13954 15.3934 5.11779 14.4732 5.67583L12.1 7.11489C11.4373 7.51676 11.3029 8.27693 11.8 8.81277C12.297 9.34861 13.2372 9.45719 13.9 9.05532L15.9597 7.80629ZM29.4498 5.73157L31.2902 6.94899L33.35 5.7C34.0127 5.29813 34.9529 5.40671 35.45 5.94255C35.9471 6.47839 35.8128 7.23856 35.15 7.64043L32.7768 9.07949C31.8565 9.63753 30.584 9.61578 29.6937 9.02686L27.5502 7.60885C26.909 7.18471 26.8144 6.42063 27.3391 5.90225C27.8637 5.38387 28.8087 5.30743 29.4498 5.73157Z" fill="#288173"/>
</svg>
