<svg width="47" height="38" viewBox="0 0 47 38" fill="none" xmlns="http://www.w3.org/2000/svg">
<path d="M23.4996 0C13.5945 0 5.53613 6.49815 5.53613 14.4854C5.53613 17.9507 7.07759 21.304 9.87656 23.9276C12.3316 26.2288 15.614 27.8465 19.2333 28.5592C16.337 29.4116 14.4887 31.087 14.4887 32.9865C14.4887 34.3866 15.4783 35.6799 17.2752 36.6283C18.9512 37.5128 21.1618 38 23.4996 38C25.8374 38 28.0479 37.5128 29.724 36.6283C31.5209 35.6799 32.5105 34.3865 32.5105 32.9865C32.5105 31.0844 30.6636 29.4108 27.7666 28.5591C31.3856 27.8464 34.6677 26.2286 37.1225 23.9276C39.9215 21.304 41.463 17.9507 41.463 14.4854C41.463 6.49815 33.4047 0 23.4996 0ZM30.6746 32.9865C30.6746 34.8995 27.3888 36.5156 23.4996 36.5156C19.6103 36.5156 16.3246 34.8995 16.3246 32.9865C16.3246 31.5907 18.0991 30.2967 20.7068 29.7415L22.6614 33.2795C22.8091 33.5469 23.1374 33.719 23.4995 33.719C23.8616 33.719 24.1899 33.5469 24.3376 33.2795L26.2922 29.7414C28.9016 30.2965 30.6746 31.5882 30.6746 32.9865ZM26.0739 27.3218C25.7679 27.3613 25.5071 27.5231 25.3807 27.7519L23.4996 31.157L21.6184 27.752C21.492 27.5232 21.2313 27.3614 20.9251 27.3219C13.0719 26.3067 7.37198 20.9082 7.37198 14.4855C7.37207 7.31656 14.6069 1.48438 23.4996 1.48438C32.3923 1.48438 39.6271 7.31656 39.6271 14.4854C39.6271 20.9082 33.9272 26.3066 26.0739 27.3218Z" fill="#288173"/>
<path d="M36.4766 14.258C36.4077 13.9596 36.1011 13.7251 35.7345 13.6726C35.36 13.6189 34.9712 13.7656 34.7818 14.0324C34.5877 14.3056 34.631 14.6568 34.8884 14.8934C35.1416 15.1261 35.5584 15.2066 35.9147 15.0927C36.3217 14.9625 36.5627 14.6052 36.4766 14.258Z" fill="#288173"/>
<path d="M35.1301 17.0758C34.6558 16.9313 34.1261 17.1248 33.9473 17.5083C32.3195 20.9978 28.1209 23.3424 23.4996 23.3424C17.3462 23.3424 12.3399 19.3018 12.3399 14.3352C12.3399 9.36867 17.3461 5.32812 23.4995 5.32812C28.1955 5.32812 32.4171 7.72324 34.0046 11.2882C34.1764 11.6738 34.7023 11.874 35.1793 11.7351C35.6562 11.5962 35.9037 11.171 35.732 10.7854C33.8831 6.63334 28.9672 3.84375 23.4995 3.84375C16.3337 3.84375 10.5039 8.55026 10.5039 14.3352C10.5039 20.1202 16.3337 24.8267 23.4995 24.8267C26.1943 24.8267 28.7794 24.1667 30.9752 22.918C33.1217 21.6974 34.7434 20.008 35.6651 18.0322C35.844 17.6486 35.6044 17.2204 35.1301 17.0758Z" fill="#288173"/>
<path d="M22.5382 21.4075C22.6183 21.4251 22.6993 21.4336 22.7793 21.4336C23.0988 21.4336 23.4029 21.2982 23.5707 21.0673L29.0038 13.5926C29.1706 13.3631 29.1726 13.079 29.0091 12.848C28.8456 12.6169 28.5416 12.4744 28.2123 12.4744H25.1382V7.97953C25.1382 7.64465 24.8609 7.35126 24.4612 7.26339C24.0615 7.17551 23.6386 7.31482 23.4288 7.60353L17.9957 15.0783C17.8289 15.3077 17.8269 15.5918 17.9904 15.8229C18.1538 16.0539 18.4579 16.1964 18.7871 16.1964H21.8612V20.6913C21.8612 21.0262 22.1386 21.3196 22.5382 21.4075ZM20.3914 14.7121L23.3023 10.7074V13.2167C23.3023 13.6266 23.7132 13.9589 24.2202 13.9589H26.6081L23.6973 17.9636V15.4543C23.6973 15.0444 23.2863 14.7121 22.7793 14.7121H20.3914Z" fill="#288173"/>
</svg>
