<svg width="43" height="28" viewBox="0 0 43 28" fill="none" xmlns="http://www.w3.org/2000/svg">
<path d="M33.4907 11.2489V0.982497C33.4907 0.654598 33.1619 0.388747 32.7563 0.388747H9.95269C9.54713 0.388747 9.21831 0.654598 9.21831 0.982497V19.4194C9.21831 19.7473 9.54713 20.0131 9.95269 20.0131H22.6507C23.0282 24.2542 27.4162 27.6115 32.7562 27.6115C38.3433 27.6115 42.8887 23.9365 42.8887 19.4194C42.8887 15.1019 38.7361 11.5541 33.4907 11.2489ZM19.077 1.57625H23.6319V7.28805H19.077V1.57625ZM10.6871 1.57625H17.6083V7.8818C17.6083 8.2097 17.9371 8.47555 18.3426 8.47555H24.3663C24.7718 8.47555 25.1006 8.2097 25.1006 7.8818V1.57625H32.0219V11.2489C27.0189 11.54 23.0108 14.7807 22.6507 18.8256H10.6871V1.57625ZM32.7563 26.424C27.9792 26.424 24.0927 23.2817 24.0927 19.4194C24.0927 15.557 27.9792 12.4148 32.7563 12.4148C37.5335 12.4148 41.4199 15.5571 41.4199 19.4194C41.4199 23.2817 37.5334 26.424 32.7563 26.424ZM36.9128 17.0391C37.1997 17.2709 37.1996 17.6468 36.9128 17.8787L32.0632 21.7997C31.9198 21.9156 31.7319 21.9736 31.5439 21.9736C31.3559 21.9736 31.168 21.9156 31.0246 21.7997L28.5998 19.8392C28.313 19.6073 28.3129 19.2314 28.5998 18.9995C28.8865 18.7677 29.3515 18.7677 29.6383 18.9995L31.5438 20.5402L35.8741 17.0391C36.1611 16.8071 36.6261 16.8072 36.9128 17.0391ZM5.54148 13.703H0.939703C0.534144 13.703 0.205328 13.4371 0.205328 13.1092C0.205328 12.7813 0.534144 12.5155 0.939703 12.5155H5.54148C5.94704 12.5155 6.27586 12.7813 6.27586 13.1092C6.27586 13.4371 5.94713 13.703 5.54148 13.703ZM0.111328 7.0458C0.111328 6.7179 0.440145 6.45205 0.845703 6.45205H5.44748C5.85304 6.45205 6.18186 6.7179 6.18186 7.0458C6.18186 7.3737 5.85304 7.63955 5.44748 7.63955H0.845703C0.440145 7.63955 0.111328 7.37377 0.111328 7.0458ZM7.76306 19.1725C7.76306 19.5004 7.43424 19.7663 7.02868 19.7663H2.4269C2.02135 19.7663 1.69253 19.5004 1.69253 19.1725C1.69253 18.8446 2.02135 18.5788 2.4269 18.5788H7.02868C7.43424 18.5788 7.76306 18.8446 7.76306 19.1725ZM7.76306 0.982422C7.76306 1.31032 7.43424 1.57617 7.02868 1.57617H2.4269C2.02135 1.57617 1.69253 1.31032 1.69253 0.982422C1.69253 0.654523 2.02135 0.388672 2.4269 0.388672H7.02868C7.43424 0.388672 7.76306 0.654523 7.76306 0.982422Z" fill="#288173"/>
</svg>
