<svg width="47" height="38" viewBox="0 0 47 38" fill="none" xmlns="http://www.w3.org/2000/svg">
<g clip-path="url(#clip0_4381_390)">
<path d="M11.3606 1.78125H11.7937C15.5639 1.78125 18.9532 3.47552 20.64 6.20306C20.7647 6.40427 21.0186 6.53125 21.2969 6.53125C21.5751 6.53125 21.8304 6.40369 21.9545 6.2019C22.7699 4.87698 24.03 3.76138 25.5948 2.97629C27.1719 2.19467 28.9712 1.78125 30.8 1.78125H31.2332C36.6872 1.78125 41.125 5.36926 41.125 9.7789C41.125 10.6853 41.0438 11.5824 40.9014 12.4688H37.2279L35.2034 8.10376C35.0972 7.87531 34.829 7.72281 34.5271 7.71875C34.2273 7.73788 33.9512 7.86139 33.8365 8.08636L29.3614 16.8732L27.8467 14.0163C27.7313 13.7977 27.4659 13.6562 27.1719 13.6562H19.8281C19.4222 13.6562 19.0938 13.9218 19.0938 14.25C19.0938 14.5782 19.4222 14.8438 19.8281 14.8438H26.6878L28.7001 18.6399C28.8156 18.8585 29.0817 19 29.375 19H29.38C29.6762 18.9983 29.9416 18.8533 30.0542 18.6324L34.4834 9.93488L36.031 13.2712C36.1386 13.5026 36.4125 13.6562 36.7188 13.6562H40.6669C39.5766 18.3141 36.5483 22.5605 31.979 25.671C31.6692 25.882 31.629 26.2566 31.8908 26.5077C32.1504 26.7576 32.6123 26.7906 32.9257 26.579C37.828 23.2419 41.0554 18.6673 42.1625 13.6562H46.2656C46.6715 13.6562 47 13.3907 47 13.0625C47 12.7343 46.6715 12.4688 46.2656 12.4688H42.3835C42.5182 11.5817 42.5938 10.6846 42.5938 9.7789C42.5938 4.71405 37.4976 0.59375 31.2332 0.59375H30.8C28.7001 0.59375 26.6347 1.06747 24.8239 1.96564C23.4025 2.67825 22.2012 3.62802 21.2969 4.74536C19.2128 2.16046 15.6793 0.59375 11.7937 0.59375H11.3606C8.32841 0.59375 5.47554 1.5499 3.32907 3.28534C1.1826 5.02078 0 7.32736 0 9.7789C0 18.6312 6.51758 26.5744 16.6052 30.0145C16.6984 30.0464 16.7952 30.0615 16.8906 30.0615C17.1768 30.0615 17.4493 29.9252 17.5669 29.6985C17.7247 29.3964 17.5497 29.0479 17.1761 28.921C7.6342 25.6664 1.46875 18.1529 1.46875 9.7789C1.46875 7.64453 2.4986 5.63657 4.36752 4.12494C6.23717 2.61389 8.7207 1.78125 11.3606 1.78125Z" fill="#288173"/>
<path d="M45.5312 27.9062H44.0625V24.9375C44.0625 23.9553 43.0742 23.1562 41.8594 23.1562H38.9219C37.707 23.1562 36.7188 23.9553 36.7188 24.9375V27.9062H29.375V24.9375C29.375 23.9553 28.3867 23.1562 27.1719 23.1562H24.2344C23.0195 23.1562 22.0312 23.9553 22.0312 24.9375V27.9062H20.5625C19.7528 27.9062 19.0938 28.4391 19.0938 29.0938V31.4688C19.0938 32.1234 19.7528 32.6562 20.5625 32.6562H22.0312V35.625C22.0312 36.6072 23.0195 37.4062 24.2344 37.4062H27.1719C28.3867 37.4062 29.375 36.6072 29.375 35.625V32.6562H36.7188V35.625C36.7188 36.6072 37.707 37.4062 38.9219 37.4062H41.8594C43.0742 37.4062 44.0625 36.6072 44.0625 35.625V32.6562H45.5312C46.3409 32.6562 47 32.1234 47 31.4688V29.0938C47 28.4391 46.3409 27.9062 45.5312 27.9062ZM20.5625 31.4688V29.0938H22.0312V31.4688H20.5625ZM27.9062 35.625C27.9062 35.9526 27.5771 36.2188 27.1719 36.2188H24.2344C23.8292 36.2188 23.5 35.9526 23.5 35.625V24.9375C23.5 24.6099 23.8292 24.3438 24.2344 24.3438H27.1719C27.5771 24.3438 27.9062 24.6099 27.9062 24.9375V35.625ZM29.375 31.4688V29.0938H36.7188V31.4688H29.375ZM42.5938 35.625C42.5938 35.9526 42.2646 36.2188 41.8594 36.2188H38.9219C38.5167 36.2188 38.1875 35.9526 38.1875 35.625V24.9375C38.1875 24.6099 38.5167 24.3438 38.9219 24.3438H41.8594C42.2646 24.3438 42.5938 24.6099 42.5938 24.9375V35.625ZM44.0625 31.4688V29.0938H45.5312L45.5327 31.4688H44.0625Z" fill="#288173"/>
</g>
<defs>
<clipPath id="clip0_4381_390">
<rect width="47" height="38" fill="white"/>
</clipPath>
</defs>
</svg>
