<svg width="32" height="36" viewBox="0 0 32 36" fill="none" xmlns="http://www.w3.org/2000/svg">
<path d="M8.84607 35.1C8.57407 35.1 8.35352 34.8797 8.35352 34.6075V23.1991C8.35352 22.927 8.57407 22.7065 8.84607 22.7065C9.11815 22.7065 9.33863 22.9271 9.33863 23.1991V34.6075C9.3387 34.8797 9.11815 35.1 8.84607 35.1Z" fill="#288173"/>
<path d="M5.39197 21.2766C5.11989 21.2766 4.89941 21.0559 4.89941 20.784V13.5709C4.89941 13.2989 5.11997 13.0784 5.39197 13.0784C5.6639 13.0784 5.88453 13.2989 5.88453 13.5709V20.784C5.88453 21.0559 5.6639 21.2766 5.39197 21.2766Z" fill="#288173"/>
<path d="M30.7005 35.0999H1.30017C1.02817 35.0999 0.807617 34.8795 0.807617 34.6073C0.807617 34.3351 1.02817 34.1147 1.30017 34.1147H30.7005C30.9724 34.1147 31.193 34.3351 31.193 34.6073C31.193 34.8795 30.9724 35.0999 30.7005 35.0999Z" fill="#288173"/>
<path d="M12.3204 35.1H5.39171C5.11963 35.1 4.89915 34.8797 4.89915 34.6075V22.6197C4.50851 22.8799 4.04727 23.0079 3.56573 22.9819C2.39754 22.9206 1.48242 21.9125 1.48242 20.6874V13.1095C1.48242 10.954 3.2362 9.2002 5.39171 9.2002C5.80849 9.2002 6.21547 9.31754 6.56849 9.53931L8.84568 10.9708L11.1226 9.53931C11.4759 9.31731 11.8829 9.2002 12.2994 9.2002H20.699C20.971 9.2002 21.1916 9.42075 21.1916 9.69275V12.887C21.1916 13.159 20.971 13.3796 20.699 13.3796H13.7178C13.219 13.3796 12.813 13.7853 12.813 14.2841V34.6075C12.813 34.8797 12.5924 35.1 12.3204 35.1ZM5.88427 34.1149H11.8278V14.2842C11.8278 13.2423 12.6757 12.3946 13.7178 12.3946H20.2065V10.1854H12.2995C12.0686 10.1854 11.8427 10.2505 11.6467 10.3735L9.10788 11.9697C8.94775 12.0703 8.74377 12.0703 8.58356 11.9697L6.04425 10.3735C5.84847 10.2503 5.6229 10.1854 5.39179 10.1854C3.77937 10.1854 2.46761 11.4971 2.46761 13.1096V20.6874C2.46761 21.3768 2.9835 21.9649 3.61749 21.9982C3.95417 22.0162 4.2758 21.898 4.52007 21.6661C4.76448 21.434 4.89915 21.1208 4.89915 20.7841C4.89915 20.5121 5.11971 20.2916 5.39171 20.2916C5.66364 20.2916 5.88427 20.5121 5.88427 20.7841V34.1149Z" fill="#288173"/>
<path d="M8.84619 8.38111C6.78355 8.38111 5.10547 6.70303 5.10547 4.6407C5.10547 2.57798 6.78355 0.899902 8.84619 0.899902C10.9086 0.899902 12.5867 2.57791 12.5867 4.6407C12.5867 6.70303 10.9087 8.38111 8.84619 8.38111ZM8.84619 1.88501C7.32687 1.88501 6.09058 3.12123 6.09058 4.64062C6.09058 6.15994 7.32687 7.39593 8.84619 7.39593C10.3655 7.39593 11.6015 6.15994 11.6015 4.64062C11.6016 3.12131 10.3655 1.88501 8.84619 1.88501Z" fill="#288173"/>
<path d="M12.3207 20.9305H5.39197C5.11989 20.9305 4.89941 20.7099 4.89941 20.4379V18.6307C4.89941 18.3587 5.11997 18.1382 5.39197 18.1382H12.3207C12.5927 18.1382 12.8132 18.3588 12.8132 18.6307V20.4379C12.8132 20.71 12.5927 20.9305 12.3207 20.9305ZM5.88453 19.9454H11.8281V19.1233H5.88453V19.9454Z" fill="#288173"/>
<path d="M23.9302 32.543H19.5043C18.6776 32.543 18.0049 31.8703 18.0049 31.0436C18.0049 30.1751 18.6776 29.5024 19.5043 29.5024H23.9302C24.7569 29.5024 25.4296 30.1751 25.4296 31.0018C25.4296 31.8703 24.7568 32.543 23.9302 32.543ZM19.5042 30.4876C19.2206 30.4876 18.9899 30.7182 18.9899 31.0018C18.9899 31.3272 19.2206 31.5579 19.5042 31.5579H23.9301C24.2137 31.5579 24.4444 31.3272 24.4444 31.0436C24.4444 30.7182 24.2137 30.4876 23.9301 30.4876H19.5042Z" fill="#288173"/>
<path d="M26.7745 35.0997H16.6599C15.9256 35.0997 15.3281 34.5023 15.3281 33.7682V31.3164C15.3281 30.5821 15.9256 29.9849 16.6599 29.9849H18.6461C18.8245 29.9849 18.9887 30.0813 19.0758 30.237C19.1629 30.3926 19.1591 30.5834 19.0658 30.7354C19.0155 30.8171 18.99 30.9068 18.99 31.0018C18.99 31.3273 19.2206 31.5579 19.5042 31.5579H23.9302C24.2137 31.5579 24.4444 31.3273 24.4444 31.0437C24.4444 30.907 24.4189 30.8171 24.3684 30.7348C24.2751 30.5828 24.2714 30.3923 24.3585 30.2367C24.4456 30.0812 24.6102 29.9849 24.7883 29.9849H26.7746C27.5088 29.9849 28.1062 30.5821 28.1062 31.3164V33.7682C28.1062 34.5023 27.5087 35.0997 26.7745 35.0997ZM16.6599 30.9701C16.4687 30.9701 16.3133 31.1255 16.3133 31.3164V33.7682C16.3133 33.9592 16.4687 34.1146 16.6599 34.1146H26.7745C26.9656 34.1146 27.121 33.9592 27.121 33.7682V31.3164C27.121 31.1255 26.9656 30.9701 26.7745 30.9701H25.4293C25.4295 31.8703 24.7568 32.543 23.9302 32.543H19.5042C18.6776 32.543 18.0048 31.8703 18.0048 31.0437C18.0048 31.0188 18.0054 30.9944 18.0064 30.9701H16.6599Z" fill="#288173"/>
<path d="M23.0727 30.4877H20.3597C20.0877 30.4877 19.8672 30.2672 19.8672 29.9952V28.3103C19.8672 27.9462 20.1635 27.6499 20.5276 27.6499H22.9049C23.269 27.6499 23.5653 27.9462 23.5653 28.3103V29.9952C23.5653 30.2672 23.3448 30.4877 23.0727 30.4877ZM20.8523 29.5026H22.5802V28.6351H20.8523V29.5026Z" fill="#288173"/>
<path d="M22.7343 28.635H20.6996C20.4276 28.635 20.207 28.4144 20.207 28.1424V8.36472C20.207 7.53229 20.8843 6.85498 21.7169 6.85498C22.5496 6.85498 23.2269 7.53229 23.2269 8.36472V28.1424C23.2269 28.4145 23.0063 28.635 22.7343 28.635ZM21.1921 27.6499H22.2418V8.36472C22.2418 8.07539 22.0063 7.84009 21.7169 7.84009C21.4276 7.84009 21.1921 8.07539 21.1921 8.36472V27.6499Z" fill="#288173"/>
<path d="M17.966 25.1708C18.4294 25.1708 18.805 24.7951 18.805 24.3317C18.805 23.8683 18.4294 23.4927 17.966 23.4927C17.5026 23.4927 17.127 23.8683 17.127 24.3317C17.127 24.7951 17.5026 25.1708 17.966 25.1708Z" fill="#288173"/>
<path d="M16.5999 28.3106C17.1227 28.3106 17.5465 27.8868 17.5465 27.3641C17.5465 26.8413 17.1227 26.4175 16.5999 26.4175C16.0771 26.4175 15.6533 26.8413 15.6533 27.3641C15.6533 27.8868 16.0771 28.3106 16.5999 28.3106Z" fill="#288173"/>
<path d="M25.6888 28.4669C26.2115 28.4669 26.6353 28.0431 26.6353 27.5203C26.6353 26.9975 26.2115 26.5737 25.6888 26.5737C25.166 26.5737 24.7422 26.9975 24.7422 27.5203C24.7422 28.0431 25.166 28.4669 25.6888 28.4669Z" fill="#288173"/>
<path d="M25.6053 24.1977C25.6053 24.5674 25.3056 24.867 24.9359 24.867C24.5663 24.867 24.2666 24.5674 24.2666 24.1977C24.2666 23.828 24.5663 23.5283 24.9359 23.5283C25.3057 23.5283 25.6053 23.828 25.6053 24.1977Z" fill="#288173"/>
<path d="M28.6624 25.7409C28.6624 26.0023 28.4505 26.2142 28.1891 26.2142C27.9278 26.2142 27.7158 26.0023 27.7158 25.7409C27.7158 25.4795 27.9278 25.2676 28.1891 25.2676C28.4505 25.2676 28.6624 25.4795 28.6624 25.7409Z" fill="#288173"/>
</svg>
