<svg width="47" height="38" viewBox="0 0 47 38" fill="none" xmlns="http://www.w3.org/2000/svg">
<path d="M11.9791 14.9145H26.4339C27.1421 14.9145 27.7183 14.4487 27.7183 13.8761V2.18923C27.7183 1.61663 27.1421 1.15076 26.4339 1.15076H11.9791C11.2709 1.15076 10.6948 1.61663 10.6948 2.18923V2.432H8.2283V1.97882C8.2283 0.887655 7.13041 0 5.78082 0C4.43122 0 3.33333 0.887655 3.33333 1.97882V22.4387C3.33333 22.7461 3.64158 22.9953 4.0218 22.9953C4.40203 22.9953 4.71028 22.7461 4.71028 22.4387V1.97882C4.71028 1.50152 5.19047 1.11328 5.78082 1.11328C6.37116 1.11328 6.85135 1.50152 6.85135 1.97882V2.98864V5.67104V10.3942V13.0766V33.7266H4.71028V24.9781C4.71028 24.6706 4.40203 24.4214 4.0218 24.4214C3.64158 24.4214 3.33333 24.6706 3.33333 24.9781V33.7266H2.64008C1.18427 33.7266 0 34.6832 0 35.8591V37.1151C0 37.5995 0.487441 37.9936 1.0866 37.9936H10.475C11.0756 37.9936 11.5642 37.5995 11.5642 37.1151V35.8591C11.5642 34.6832 10.3799 33.7266 8.92413 33.7266H8.22821V13.6332H10.6946V13.876C10.6947 14.4487 11.2709 14.9145 11.9791 14.9145ZM10.1873 35.8591V36.8803H1.37695V35.8591C1.37695 35.2971 1.94362 34.8399 2.64008 34.8399H4.0218H7.53983H8.92422C9.62068 34.8399 10.1873 35.2971 10.1873 35.8591ZM8.2283 6.22776H10.6947V9.8376H8.2283V6.22776ZM12.0717 2.26404H26.3413V13.8012H12.0717V13.0766V10.3942V5.67112V2.98871V2.26404ZM10.6947 3.54535V5.11448H8.2283V3.54535H10.6947ZM8.2283 12.5199V10.9508H10.6947V12.5199H8.2283Z" fill="#288173"/>
<path d="M47 23.4549C47 22.1991 45.7433 21.1773 44.1985 21.1773H41.5664L40.6651 19.64C40.1209 18.7119 39.7096 18.0788 38.979 17.7475C38.3045 17.4416 37.5347 17.4437 36.134 17.447L24.5858 17.4472L24.4934 17.447C23.0948 17.4434 22.3246 17.4416 21.6504 17.7475C20.9201 18.0788 20.5089 18.7119 19.9648 19.64L19.0634 21.1773H16.4313C14.8866 21.1773 13.6299 22.199 13.6299 23.4549C13.6299 24.7004 14.866 25.715 16.3932 25.7317L15.5961 27.0913C15.1519 27.8469 15.121 27.9512 15.1253 28.6857C15.1257 28.7502 15.1261 33.7491 15.1261 33.7491C15.1261 34.1697 15.1268 34.8175 15.8677 35.0564V36.6082C15.8677 37.3757 16.64 38 17.5892 38H20.782C21.7298 38 22.5009 37.3756 22.5009 36.6082V35.1493H28.7679C29.1482 35.1493 29.4564 34.9 29.4564 34.5926C29.4564 34.2852 29.1482 34.036 28.7679 34.036H16.5562C16.5394 34.036 16.524 34.0358 16.5098 34.0355C16.503 33.9425 16.5026 28.7466 16.5022 28.6805C16.4992 28.1485 16.4992 28.1485 16.84 27.5687L17.9165 25.7326H42.7132L43.7901 27.5693C44.1286 28.1449 44.1286 28.1449 44.1251 28.6709C44.1246 28.7395 44.1242 33.9425 44.1176 34.0357C44.1042 34.036 31.9009 34.0361 31.9009 34.0361C31.5205 34.0361 31.2124 34.2854 31.2124 34.5928C31.2124 34.9002 31.5205 35.1494 31.9009 35.1494H38.1262V36.6083C38.1262 37.3758 38.8984 38.0001 39.8477 38.0001H43.0405C43.9898 38.0001 44.7621 37.3757 44.7621 36.6083V35.0561C45.5004 34.8168 45.5011 34.1695 45.5011 33.7491C45.5011 33.7491 45.5016 28.7435 45.502 28.6766C45.5067 27.9548 45.4716 27.8363 45.034 27.0919L44.2365 25.7318C45.7637 25.715 47 24.7004 47 23.4549ZM15.0068 23.4549C15.0068 22.813 15.6458 22.2906 16.4313 22.2906H18.4108L17.0456 24.6192H16.4314C15.6458 24.6192 15.0068 24.0969 15.0068 23.4549ZM21.124 35.1493V36.6081C21.124 36.7591 20.9674 36.8867 20.7821 36.8867H17.5893C17.4025 36.8867 17.2448 36.7591 17.2448 36.6081V35.1493H21.124ZM21.209 20.1168C21.692 19.293 21.9821 18.8736 22.3241 18.7185C22.6825 18.5559 23.3618 18.5573 24.4892 18.5604L36.0456 18.5606L36.1382 18.5604C37.2664 18.5573 37.9468 18.5558 38.3055 18.7185C38.6478 18.8737 38.9379 19.2931 39.4208 20.1168L42.0606 24.6193H18.5693L21.209 20.1168ZM43.3852 36.6082C43.3852 36.7592 43.2274 36.8867 43.0406 36.8867H39.8478C39.6611 36.8867 39.5033 36.7591 39.5033 36.6082V35.1493H43.3852V36.6082ZM44.1985 24.6192H43.5844L42.2191 22.2906H44.1985C44.984 22.2906 45.623 22.813 45.623 23.4549C45.623 24.0969 44.984 24.6192 44.1985 24.6192Z" fill="#288173"/>
<path d="M26.8242 29.6455H33.8057C34.1861 29.6455 34.4942 29.3963 34.4942 29.0889C34.4942 28.7815 34.1861 28.5322 33.8057 28.5322H26.8242C26.4439 28.5322 26.1357 28.7815 26.1357 29.0889C26.1357 29.3963 26.4439 29.6455 26.8242 29.6455Z" fill="#288173"/>
<path d="M26.8242 32.1616H33.8057C34.1861 32.1616 34.4942 31.9124 34.4942 31.605C34.4942 31.2976 34.1861 31.0483 33.8057 31.0483H26.8242C26.4439 31.0483 26.1357 31.2976 26.1357 31.605C26.1357 31.9124 26.4439 32.1616 26.8242 32.1616Z" fill="#288173"/>
<path d="M41.8702 29.8234C41.8702 28.5339 40.5738 27.4849 38.9803 27.4849C37.3854 27.4849 36.0879 28.5339 36.0879 29.8234C36.0879 31.1129 37.3854 32.162 38.9803 32.162C40.5738 32.162 41.8702 31.1129 41.8702 29.8234ZM37.4648 29.8234C37.4648 29.1478 38.1447 28.5981 38.9803 28.5981C39.8146 28.5981 40.4932 29.1478 40.4932 29.8234C40.4932 30.4991 39.8145 31.0488 38.9803 31.0488C38.1447 31.0487 37.4648 30.499 37.4648 29.8234Z" fill="#288173"/>
<path d="M18.7588 29.8234C18.7588 31.113 20.0552 32.162 21.6486 32.162C23.2436 32.162 24.5411 31.113 24.5411 29.8234C24.5411 28.5339 23.2435 27.4849 21.6486 27.4849C20.0552 27.4848 18.7588 28.5339 18.7588 29.8234ZM23.1642 29.8234C23.1642 30.4991 22.4844 31.0488 21.6487 31.0488C20.8145 31.0488 20.1358 30.4991 20.1358 29.8234C20.1358 29.1478 20.8146 28.5981 21.6487 28.5981C22.4844 28.5981 23.1642 29.1478 23.1642 29.8234Z" fill="#288173"/>
</svg>
