<svg width="39" height="38" viewBox="0 0 39 38" fill="none" xmlns="http://www.w3.org/2000/svg">
<path d="M37.1249 23.2235H33.6978V18.9169C33.6978 18.6019 33.543 18.2999 33.2676 18.0772C32.9921 17.8545 32.6186 17.7294 32.229 17.7294H29.2915C28.902 17.7294 28.5284 17.8545 28.253 18.0772C27.9775 18.2999 27.8228 18.6019 27.8228 18.9169V23.2235H21.6393V12.3223H37.7515C37.8446 12.3224 37.9359 12.3011 38.0145 12.2608C38.0931 12.2204 38.1559 12.1628 38.1955 12.0947C38.2351 12.0265 38.2498 11.9507 38.2379 11.876C38.2261 11.8014 38.1881 11.731 38.1285 11.6731C32.2535 5.91375 32.2535 5.91375 32.1409 5.80292C32.0283 5.69208 32.7186 5.9375 23.6956 2.82625C23.0415 2.62196 22.3372 2.54468 21.6393 2.60063V1.65063C21.6393 1.21354 21.4249 0.794293 21.0431 0.484854C20.6613 0.175415 20.1433 0.00104817 19.6027 0L19.397 0C18.8564 0.00104817 18.3384 0.175415 17.9566 0.484854C17.5748 0.794293 17.3604 1.21354 17.3604 1.65063V2.60063C15.03 2.60063 16.6652 2.48979 7.03017 5.7C6.85882 5.75938 7.25538 5.40708 0.871213 11.6731C0.811622 11.731 0.773668 11.8014 0.761804 11.876C0.749939 11.9507 0.764656 12.0265 0.804228 12.0947C0.8438 12.1628 0.906587 12.2204 0.985222 12.2608C1.06386 12.3011 1.15508 12.3224 1.24819 12.3223H17.3604V23.2235H1.87486C1.57577 23.2267 1.29039 23.3255 1.08118 23.4983C0.871981 23.6712 0.755994 23.904 0.758609 24.1458V25.7292C0.764932 25.9662 0.884868 26.192 1.09312 26.3589C1.30137 26.5257 1.58166 26.6207 1.87486 26.6238H2.2959V37.6042C2.2959 37.7091 2.34748 37.8098 2.4393 37.8841C2.53111 37.9583 2.65564 38 2.78548 38H36.1995C36.3294 38 36.4539 37.9583 36.5457 37.8841C36.6376 37.8098 36.6891 37.7091 36.6891 37.6042V26.6238H37.1249C37.4181 26.6207 37.6983 26.5257 37.9066 26.3589C38.1148 26.192 38.2348 25.9662 38.2411 25.7292V24.1458C38.2437 23.904 38.1277 23.6712 37.9185 23.4983C37.7093 23.3255 37.424 23.2267 37.1249 23.2235ZM28.8411 18.9169C28.8411 18.8119 28.8927 18.7112 28.9845 18.637C29.0763 18.5627 29.2008 18.521 29.3307 18.521H32.2682C32.398 18.521 32.5226 18.5627 32.6144 18.637C32.7062 18.7112 32.7578 18.8119 32.7578 18.9169V23.2235H28.8411V18.9169ZM18.3395 14.4796H20.6602V21.0623H18.3395V14.4796ZM27.0786 11.5306L25.0322 6.46H31.5485L36.7136 11.5306H27.0786ZM29.3992 5.66833H24.5719L21.982 3.39229C23.1424 3.39229 22.2905 3.19833 29.3992 5.66833ZM18.3395 1.65063C18.3395 1.4235 18.4508 1.20562 18.649 1.04464C18.8472 0.883672 19.1161 0.792713 19.397 0.791667H19.6027C19.8836 0.792713 20.1526 0.883672 20.3507 1.04464C20.5489 1.20562 20.6602 1.4235 20.6602 1.65063V2.60063H18.3689C18.32 2.60063 18.3395 2.7075 18.3395 1.65063ZM7.45121 6.46H12.2785C12.4084 6.46 12.5329 6.4183 12.6247 6.34406C12.7165 6.26983 12.7681 6.16915 12.7681 6.06417C12.7681 5.95919 12.7165 5.8585 12.6247 5.78427C12.5329 5.71004 12.4084 5.66833 12.2785 5.66833H9.60049C16.7925 3.16667 15.8867 3.39229 17.0177 3.39229L14.2809 5.795C14.1732 5.89 14.369 5.45854 11.9211 11.5306H2.28611L7.45121 6.46ZM15.0936 6.27L18.2759 3.45562C18.3347 3.40417 18.3738 3.39625 18.3689 3.39229H20.6259C20.6749 3.39229 20.6259 3.36854 23.2403 5.66833H22.9661C22.8363 5.66833 22.7117 5.71004 22.6199 5.78427C22.5281 5.8585 22.4765 5.95919 22.4765 6.06417C22.4765 6.16915 22.5281 6.26983 22.6199 6.34406C22.7117 6.4183 22.8363 6.46 22.9661 6.46H24.004L26.0456 11.5306H12.9541L15.0936 6.27ZM20.6602 12.3223V13.6879H18.3395V12.3223H20.6602ZM18.3395 21.854H20.6602V23.2235H18.3395V21.854ZM7.92121 31.9913H11.1769V33.5746H7.92121V31.9913ZM12.0386 31.1996C6.60913 31.1996 6.98121 31.2233 6.89798 31.1442C6.81476 31.065 6.84413 31.0769 7.03017 30.2021C7.03711 30.1661 7.05959 30.1332 7.09364 30.1093C7.1277 30.0854 7.17112 30.072 7.21621 30.0715H11.8673C11.9129 30.0718 11.957 30.0851 11.9919 30.1089C12.0267 30.1328 12.0502 30.1657 12.0582 30.2021L12.2295 31.0175C12.2337 31.0399 12.232 31.0627 12.2243 31.0845C12.2167 31.1062 12.2034 31.1264 12.1853 31.1437C12.1672 31.1609 12.1448 31.1748 12.1195 31.1845C12.0942 31.1941 12.0666 31.1993 12.0386 31.1996ZM7.8233 34.3662H11.2504L12.1023 37.2083H6.98611L7.8233 34.3662ZM17.8793 31.9913H21.1204V33.5746H17.8793V31.9913ZM21.9967 31.1996C16.5673 31.1996 16.9393 31.2233 16.8561 31.1442C16.7729 31.065 16.8023 31.0769 16.9834 30.2021C16.9914 30.1657 17.0149 30.1328 17.0497 30.1089C17.0846 30.0851 17.1287 30.0718 17.1743 30.0715H21.8254C21.8711 30.0718 21.9151 30.0851 21.95 30.1089C21.9849 30.1328 22.0083 30.1657 22.0163 30.2021L22.1828 31.0215C22.1879 31.0434 22.1869 31.066 22.1798 31.0876C22.1728 31.1091 22.1599 31.1292 22.1421 31.1462C22.1243 31.1633 22.102 31.1769 22.0768 31.1862C22.0517 31.1954 22.0243 31.2 21.9967 31.1996ZM17.7765 34.3662H21.2036L22.0604 37.2083H16.9393L17.7765 34.3662ZM27.8375 31.9913H31.0785V33.5746H27.8228L27.8375 31.9913ZM31.9549 31.1996C26.5254 31.1996 26.8926 31.2233 26.8142 31.1442C26.7359 31.065 26.7604 31.0808 26.9415 30.2021C26.9495 30.1657 26.973 30.1328 27.0078 30.1089C27.0427 30.0851 27.0868 30.0718 27.1325 30.0715H31.7835C31.8286 30.072 31.872 30.0854 31.9061 30.1093C31.9401 30.1332 31.9626 30.1661 31.9695 30.2021L32.1409 31.0215C32.146 31.0434 32.145 31.066 32.1379 31.0876C32.1309 31.1091 32.118 31.1292 32.1002 31.1462C32.0824 31.1633 32.0601 31.1769 32.035 31.1862C32.0098 31.1954 31.9825 31.2 31.9549 31.1996ZM27.7347 34.3662H31.1617L32.0136 37.2083H26.8975L27.7347 34.3662ZM35.71 37.2083H33.0222L32.043 33.911V31.9833C32.2066 31.9743 32.366 31.9375 32.5108 31.8753C32.6556 31.813 32.7825 31.7268 32.8832 31.6222C32.984 31.5176 33.0563 31.3969 33.0954 31.2682C33.1345 31.1394 33.1396 31.0054 33.1103 30.875L32.9389 30.0833C32.8937 29.8621 32.7526 29.661 32.541 29.516C32.3294 29.371 32.0609 29.2915 31.7835 29.2917H27.1325C26.8551 29.2915 26.5866 29.371 26.375 29.516C26.1633 29.661 26.0223 29.8621 25.977 30.0833L25.8057 30.875C25.7757 31.0037 25.7793 31.136 25.8164 31.2635C25.8534 31.391 25.9231 31.5108 26.0208 31.6152C26.1186 31.7195 26.2423 31.8062 26.384 31.8697C26.5257 31.9331 26.6823 31.9718 26.8436 31.9833V33.911L25.8644 37.2083H23.064L22.0849 33.911V31.9833C22.2485 31.9743 22.4079 31.9375 22.5527 31.8753C22.6975 31.813 22.8244 31.7268 22.9251 31.6222C23.0259 31.5176 23.0982 31.3969 23.1373 31.2682C23.1764 31.1394 23.1815 31.0054 23.1522 30.875L22.9808 30.0833C22.9355 29.8621 22.7945 29.661 22.5829 29.516C22.3712 29.371 22.1028 29.2915 21.8254 29.2917H17.1743C16.8969 29.2915 16.6285 29.371 16.4168 29.516C16.2052 29.661 16.0642 29.8621 16.0189 30.0833L15.8476 30.875C15.8206 31.0037 15.8269 31.1354 15.8662 31.262C15.9055 31.3886 15.9769 31.5071 16.0759 31.6102C16.1748 31.7133 16.2992 31.7987 16.4411 31.8608C16.583 31.923 16.7393 31.9607 16.9002 31.9715V33.8992L15.921 37.1965H13.1059L12.1267 33.8992V31.9833C12.2903 31.9743 12.4498 31.9375 12.5945 31.8753C12.7393 31.813 12.8663 31.7268 12.967 31.6222C13.0677 31.5176 13.14 31.3969 13.1792 31.2682C13.2183 31.1394 13.2233 31.0054 13.194 30.875L13.0227 30.0833C12.9774 29.8621 12.8364 29.661 12.6248 29.516C12.4131 29.371 12.1447 29.2915 11.8673 29.2917H7.21621C6.93881 29.2915 6.67035 29.371 6.45872 29.516C6.24709 29.661 6.10606 29.8621 6.0608 30.0833L5.88944 30.875C5.86244 31.0037 5.8688 31.1354 5.9081 31.262C5.9474 31.3886 6.0188 31.5071 6.11776 31.6102C6.21672 31.7133 6.34109 31.7987 6.48298 31.8608C6.62488 31.923 6.7812 31.9607 6.94205 31.9715V33.8992L5.96288 37.1965H3.28976V26.6238H35.71V37.2083ZM37.2619 25.7292C37.262 25.7451 37.258 25.7609 37.2503 25.7755C37.2426 25.7902 37.2314 25.8035 37.2172 25.8146C37.203 25.8256 37.1863 25.8343 37.1679 25.84C37.1495 25.8458 37.1299 25.8484 37.1102 25.8479H1.87486C1.85516 25.8484 1.83554 25.8458 1.81715 25.84C1.79876 25.8343 1.78198 25.8256 1.76782 25.8146C1.75366 25.8035 1.7424 25.7902 1.73472 25.7755C1.72703 25.7609 1.72308 25.7451 1.72309 25.7292V24.1458C1.72308 24.1299 1.72703 24.1141 1.73472 24.0995C1.7424 24.0848 1.75366 24.0715 1.76782 24.0604C1.78198 24.0494 1.79876 24.0407 1.81715 24.035C1.83554 24.0292 1.85516 24.0266 1.87486 24.0271H37.1249C37.1446 24.0266 37.1642 24.0292 37.1826 24.035C37.201 24.0407 37.2177 24.0494 37.2319 24.0604C37.2461 24.0715 37.2573 24.0848 37.265 24.0995C37.2727 24.1141 37.2766 24.1299 37.2766 24.1458L37.2619 25.7292Z" fill="#288173"/>
</svg>
