<svg width="47" height="38" viewBox="0 0 47 38" fill="none" xmlns="http://www.w3.org/2000/svg">
<g clip-path="url(#clip0_4381_563)">
<path d="M4.69558 14.6753C6.27687 14.6753 7.66723 14.0044 8.45659 12.9966C9.24586 14.0044 10.6362 14.6753 12.2175 14.6753C13.7989 14.6753 15.1892 14.0043 15.9785 12.9965C16.7678 14.0043 18.1581 14.6753 19.7395 14.6753C21.3209 14.6753 22.7112 14.0043 23.5005 12.9965C24.2898 14.0043 25.6802 14.6753 27.2615 14.6753C28.8429 14.6753 30.2332 14.0043 31.0226 12.9965C31.8118 14.0043 33.2022 14.6753 34.7836 14.6753C36.3649 14.6753 37.7552 14.0044 38.5445 12.9966C39.3338 14.0044 40.7241 14.6753 42.3055 14.6753C44.7589 14.6753 46.755 13.0616 46.755 11.0779V9.4883C46.755 9.42113 46.7369 9.33957 46.6986 9.26787L43.5002 3.27649V1.89788C43.5002 0.854285 42.4503 0.00537109 41.1595 0.00537109H5.84166C4.55091 0.00537109 3.50094 0.854285 3.50094 1.89788V3.27649L0.302549 9.2678C0.302549 9.2678 0.302549 9.26787 0.302457 9.26795C0.263811 9.34023 0.246094 9.4215 0.246094 9.48838V11.078C0.246186 13.0616 2.24222 14.6753 4.69558 14.6753ZM4.69558 13.562C3.00138 13.562 1.62305 12.4476 1.62305 11.0779V10.0449H7.76802V11.0779C7.76811 12.4477 6.38987 13.562 4.69558 13.562ZM16.2688 3.94787L15.3819 8.93166H9.37107L11.1449 3.94787H16.2688ZM29.3409 3.94787L30.2279 8.93166H24.1889V3.94787H29.3409ZM22.812 8.93174H16.7731L17.66 3.94795H22.812V8.93174ZM12.2175 13.562C10.5234 13.562 9.14507 12.4476 9.14507 11.0779V10.0449H15.2899V11.0779C15.29 12.4477 13.9117 13.562 12.2175 13.562ZM19.7394 13.562C18.0452 13.562 16.6669 12.4476 16.6669 11.0779V10.0449H22.812V11.0779C22.812 12.4477 21.4336 13.562 19.7394 13.562ZM27.2615 13.562C25.5673 13.562 24.1889 12.4476 24.1889 11.0779V10.0449H30.3339V11.0779C30.3339 12.4477 28.9557 13.562 27.2615 13.562ZM34.7834 13.562C33.0892 13.562 31.7109 12.4476 31.7109 11.0779V10.0449H37.8557V11.0779C37.8558 12.4477 36.4775 13.562 34.7834 13.562ZM42.3053 13.562C40.6111 13.562 39.2328 12.4476 39.2328 11.0779V10.0449H45.3778V11.0779C45.3778 12.4477 43.9995 13.562 42.3053 13.562ZM39.0627 8.93174L38.5807 7.57739C38.4755 7.28193 38.0938 7.1113 37.7288 7.19628C37.3633 7.28133 37.1524 7.58971 37.2574 7.8851L37.6299 8.93174H31.6191L30.7322 3.94795H35.8562L36.3671 5.38319C36.4724 5.6791 36.8543 5.84906 37.2191 5.76423C37.5845 5.67917 37.7954 5.37072 37.6904 5.07533L37.2892 3.94802H42.3589L45.0194 8.93181L39.0627 8.93174ZM4.87789 1.89788C4.87789 1.46822 5.31025 1.11865 5.84166 1.11865H41.1592C41.6906 1.11865 42.123 1.46822 42.123 1.89788V2.83459C40.4036 2.83459 7.76279 2.83459 4.87789 2.83459V1.89788ZM4.64215 3.94787H9.71191L7.93821 8.93166H1.9817L4.64215 3.94787Z" fill="#288173"/>
<path d="M26.4714 34.8691H26.3721C26.3642 34.7163 26.436 33.1755 25.9818 31.1733C25.7379 30.0982 25.6142 28.999 25.6142 27.9061V25.3211H35.4211C36.1903 25.3211 36.8161 24.8152 36.8161 24.1933V22.6732C36.8161 22.0514 36.1903 21.5454 35.4211 21.5454H11.5785C10.8094 21.5454 10.1836 22.0514 10.1836 22.6732V24.1933C10.1836 24.8152 10.8094 25.3211 11.5785 25.3211H13.8443C14.2246 25.3211 14.5327 25.072 14.5327 24.7645C14.5327 24.457 14.2246 24.2079 13.8443 24.2079H11.5785C11.5686 24.2079 11.5605 24.2013 11.5605 24.1933V22.6732C11.5605 22.6652 11.5686 22.6587 11.5785 22.6587H35.4211C35.431 22.6587 35.4391 22.6652 35.4391 22.6732V24.1933C35.4391 24.2013 35.431 24.2079 35.4211 24.2079H17.0629C16.6825 24.2079 16.3744 24.457 16.3744 24.7645C16.3744 25.072 16.6825 25.3211 17.0629 25.3211H21.3855V27.9061C21.3855 28.9991 21.2617 30.0982 21.0178 31.1733C20.5655 33.1672 20.635 34.725 20.6276 34.8691H20.5283C18.952 34.8691 17.6696 35.9059 17.6696 37.1803C17.6696 37.6217 18.1138 37.9809 18.6597 37.9809H28.3398C28.8857 37.9809 29.3299 37.6217 29.3299 37.1803C29.33 35.9059 28.0476 34.8691 26.4714 34.8691ZM22.3722 31.3743C22.6311 30.2331 22.7624 29.0662 22.7624 27.9061V25.3211H24.2372V27.9061C24.2372 29.0662 24.3686 30.2331 24.6275 31.3743C25.0545 33.2565 24.9879 34.7281 24.9951 34.8692H22.0046C22.0124 34.7146 21.9422 33.2693 22.3722 31.3743ZM19.0978 36.8676C19.2684 36.3582 19.8451 35.9824 20.5283 35.9824H26.4714C27.1545 35.9824 27.7313 36.3581 27.9019 36.8676H19.0978Z" fill="#288173"/>
<path d="M16.9286 28.9913C16.9286 27.6188 15.5475 26.5021 13.8499 26.5021H3.97728L4.67797 18.8383C4.76362 17.9026 3.97279 17.047 2.83863 16.8484C1.37824 16.5924 0.00128516 17.4929 0.00128516 18.6987V28.8786C0.00128516 28.8868 0.00238672 28.8947 0.0028457 28.9029C0.00146875 28.9324 0 28.9617 0 28.9914C0 29.5672 0.566295 30.037 1.27212 30.0588L0.432271 36.8967C0.355162 37.4818 0.92265 37.9945 1.65289 37.9945H2.29345C2.87232 37.9945 3.36491 37.6756 3.49131 37.2189C3.49204 37.2163 3.49278 37.2137 3.49342 37.2111L5.34083 30.0609H11.7597L13.6071 37.2111C13.6079 37.2137 13.6086 37.2163 13.6093 37.2189C13.7357 37.6756 14.2282 37.9945 14.8071 37.9945H15.4477C16.1818 37.9945 16.7449 37.4771 16.6688 36.9008L15.8268 30.0448C16.451 29.9593 16.9286 29.5201 16.9286 28.9913ZM15.5508 28.9476C11.3793 28.9476 3.9234 28.9476 1.37778 28.9476C1.40651 28.209 2.1586 27.6153 3.07887 27.6153H13.8499C14.7701 27.6153 15.5222 28.209 15.5508 28.9476ZM2.54709 17.9366C3.01433 18.0184 3.34003 18.3708 3.30478 18.7563L2.59372 26.5332C2.15007 26.5902 1.73771 26.7242 1.37824 26.9176V18.6987C1.37824 18.1993 1.94912 17.8313 2.54709 17.9366ZM2.17191 36.8812H1.81795L2.65559 30.0609H3.93414L2.17191 36.8812ZM14.9285 36.8812L13.1663 30.0609H14.445L15.2826 36.8812H14.9285Z" fill="#288173"/>
<path d="M44.1625 16.8489C43.0284 17.0475 42.2376 17.9029 42.3232 18.8387L43.024 26.5025H33.1482C31.4505 26.5025 30.0693 27.6192 30.0693 28.9918C30.0693 29.5206 30.547 29.9598 31.1715 30.0452L30.3299 36.8971C30.2527 37.4823 30.8203 37.9949 31.5506 37.9949H32.1911C32.77 37.9949 33.2626 37.676 33.389 37.2193C33.3897 37.2167 33.3905 37.2141 33.3911 37.2115L35.2385 30.0614H41.6573L43.5047 37.2115C43.5055 37.2142 43.5062 37.2169 43.5068 37.2195C43.6335 37.676 44.1261 37.9949 44.7048 37.9949H45.3453C46.081 37.9949 46.6423 37.4762 46.5664 36.9012L45.7261 30.0593C45.728 30.0592 45.7299 30.0592 45.7318 30.059C45.7497 30.0597 45.7676 30.0612 45.7855 30.0612C46.0207 30.0612 46.2541 30.0058 46.4568 29.8972C46.7971 29.7147 47.0004 29.4086 47.0004 29.0784V18.6991C47 17.4913 45.6209 16.5933 44.1625 16.8489ZM44.4541 17.9369C45.0532 17.8317 45.623 18.2004 45.623 18.6991V28.869C44.9801 28.5777 44.5536 28.0488 44.4914 27.4508L43.6964 18.7566C43.6611 18.371 43.9868 18.0187 44.4541 17.9369ZM33.1482 27.6157H43.1301C43.1968 28.1032 43.4106 28.5583 43.7419 28.9479C42.2948 28.9479 33.07 28.9479 31.4471 28.9479C31.4758 28.2094 32.2278 27.6157 33.1482 27.6157ZM32.0696 36.8815H31.7155L32.5532 30.0612H33.8318L32.0696 36.8815ZM44.826 36.8815L43.0638 30.0612H44.3425L45.1801 36.8815H44.826Z" fill="#288173"/>
</g>
<defs>
<clipPath id="clip0_4381_563">
<rect width="47" height="38" fill="white"/>
</clipPath>
</defs>
</svg>
