<svg width="47" height="38" viewBox="0 0 47 38" fill="none" xmlns="http://www.w3.org/2000/svg">
<path d="M44.3247 26.7473C42.0921 28.1897 38.9736 28.1894 36.7346 26.743C36.4664 26.5644 36.073 26.5679 35.8026 26.7433C33.5683 28.1879 30.4483 28.1877 28.2283 26.7511C27.9601 26.5659 27.5603 26.5641 27.2849 26.7427C25.0513 28.1871 21.9305 28.1874 19.7156 26.7552C19.4477 26.5661 19.0461 26.5618 18.7675 26.7418C16.5335 28.1871 13.4128 28.1871 11.1731 26.7384C10.9006 26.5621 10.5144 26.5673 10.2487 26.743C8.01362 28.1865 4.89575 28.185 2.66214 26.7386C2.34588 26.5334 1.88294 26.5748 1.63015 26.8308C1.37628 27.0865 1.42755 27.4602 1.74418 27.6652C4.36899 29.3659 7.98134 29.4575 10.7144 27.9412C13.2901 29.3722 16.6504 29.3734 19.2311 27.9412C21.8086 29.3734 25.1703 29.3734 27.7499 27.9412C30.3246 29.3717 33.6827 29.3743 36.2673 27.9409C37.5546 28.6576 39.0388 29.0165 40.5258 29.0165C42.1929 29.0165 43.8632 28.5651 45.2627 27.6609C45.5747 27.4539 45.6148 27.0865 45.3606 26.8329C45.1067 26.5795 44.6391 26.5435 44.3247 26.7473Z" fill="#288173"/>
<path d="M44.3247 32.292C42.0921 33.7344 38.9736 33.7341 36.7346 32.2877C36.4664 32.1094 36.073 32.1126 35.8026 32.288C33.5683 33.7326 30.4483 33.7323 28.2283 32.2958C27.9601 32.1102 27.5603 32.1091 27.2849 32.2874C25.0506 33.7326 21.9305 33.7317 19.6948 32.2859C19.4266 32.1094 19.0368 32.1123 18.7678 32.2865C16.5339 33.7317 13.4135 33.7323 11.1731 32.283C10.9006 32.1068 10.5144 32.112 10.2487 32.2877C8.01362 33.7312 4.89575 33.7297 2.66214 32.2833C2.34588 32.0781 1.88294 32.1195 1.63015 32.3755C1.37628 32.6312 1.42755 33.0049 1.74418 33.2099C4.36899 34.9108 7.98134 35.0019 10.7144 33.4859C13.2901 34.9169 16.6501 34.9178 19.2315 33.4856C21.8086 34.9178 25.1699 34.9181 27.7499 33.4859C30.3246 34.9163 33.6827 34.919 36.2673 33.4856C37.5546 34.2023 39.0388 34.5612 40.5258 34.5612C42.1929 34.5612 43.8632 34.1098 45.2627 33.2055C45.5747 32.9985 45.6148 32.6312 45.3606 32.3775C45.1067 32.1239 44.6391 32.0885 44.3247 32.292Z" fill="#288173"/>
<path d="M9.24462 15.1071C8.83906 15.1071 8.51024 15.3729 8.51024 15.7008V21.9428C6.53433 22.5665 4.26302 22.3199 2.52543 21.1947C2.20916 20.9895 1.74622 21.0309 1.49343 21.2869C1.23956 21.5426 1.29083 21.9163 1.60746 22.1213C4.23227 23.822 7.84462 23.9136 10.5777 22.3973C13.1534 23.8283 16.5137 23.8295 19.0944 22.3973C21.6719 23.8295 25.0336 23.8295 27.6132 22.3973C30.1878 23.8277 33.546 23.8304 36.1306 22.397C37.4179 23.1137 38.9021 23.4726 40.3891 23.4726C42.0562 23.4726 43.7264 23.0212 45.126 22.1169C45.438 21.9099 45.4781 21.5426 45.2239 21.2889C44.97 21.0356 44.5024 20.9996 44.1879 21.2034C41.9554 22.6458 38.8368 22.6455 36.5978 21.1991C36.3296 21.0205 35.9363 21.024 35.6659 21.1994C34.0093 22.2705 31.8664 22.5453 29.9638 22.0313V13.9196H44.7969C45.2025 13.9196 45.5313 13.6537 45.5313 13.3258C45.5313 12.9979 45.2025 12.7321 44.7969 12.7321H38.1438V8.53757C38.1438 5.73204 35.3207 3.44952 31.8507 3.44952C28.3807 3.44952 25.5576 5.73204 25.5576 8.53757V12.7321H21.0964V8.53409C21.0964 5.72856 18.2733 3.44604 14.8033 3.44604C11.3333 3.44604 8.51023 5.72856 8.51023 8.53409V12.7321H2.20315C1.79759 12.7321 1.46878 12.9979 1.46878 13.3258C1.46878 13.6537 1.79759 13.9196 2.20315 13.9196H9.24462C9.65018 13.9196 9.97899 13.6537 9.97899 13.3258V8.53409C9.97899 6.3832 12.143 4.63354 14.8034 4.63354C17.4637 4.63354 19.6277 6.3832 19.6277 8.53409V12.7286H18.159V8.53409C18.159 7.03812 16.6536 5.82104 14.8034 5.82104C12.9531 5.82104 11.4477 7.03811 11.4477 8.53409V21.4381C11.3079 21.3619 11.1703 21.2811 11.0364 21.1944C10.7638 21.0182 10.3776 21.0234 10.1119 21.1991C10.0686 21.227 10.0229 21.2508 9.97899 21.2777V15.7008C9.97899 15.3729 9.65018 15.1071 9.24462 15.1071ZM12.9165 16.8982H25.5576V18.0857H12.9165V16.8982ZM27.0263 8.53757C27.0263 6.38667 29.1904 4.63702 31.8507 4.63702C34.511 4.63702 36.675 6.38667 36.675 8.53757V12.7321H35.2063V8.53757C35.2063 7.0416 33.701 5.82452 31.8507 5.82452C30.0004 5.82452 28.4951 7.04159 28.4951 8.53757V10.9508C28.4951 11.2787 28.8239 11.5446 29.2294 11.5446C29.635 11.5446 29.9638 11.2787 29.9638 10.9508V8.53757C29.9638 7.69652 30.8104 7.01202 31.8507 7.01202C32.8909 7.01202 33.7375 7.69652 33.7375 8.53757V12.7321H29.2295C28.8239 12.7321 28.4951 12.9979 28.4951 13.3258V21.4462C28.3578 21.3713 28.2229 21.2922 28.0916 21.2072C27.8234 21.0219 27.4235 21.0202 27.1482 21.1988C27.1085 21.2244 27.0665 21.2462 27.0263 21.2709L27.0263 8.53757ZM25.5576 15.7107H12.9165V13.9196H25.5576V15.7107ZM14.8034 7.00854C15.8436 7.00854 16.6902 7.69304 16.6902 8.53409V12.7321H12.9165V8.53409C12.9165 7.69304 13.7631 7.00854 14.8034 7.00854ZM12.9165 19.2732H25.5576V21.94C23.5798 22.5693 21.305 22.3274 19.5788 21.2113C19.311 21.0222 18.9094 21.0179 18.6308 21.1979C16.9733 22.2702 14.8283 22.545 12.9165 22.0247L12.9165 19.2732Z" fill="#288173"/>
</svg>
