<svg width="48" height="38" viewBox="0 0 48 38" fill="none" xmlns="http://www.w3.org/2000/svg">
<path d="M0 8.43814C6.74415 2.96682 15.1636 -0.0128166 23.8431 4.14408e-05C32.8765 4.14408e-05 41.1721 3.16037 47.6863 8.43814L45.0384 11.723C39.0433 6.85919 31.5588 4.21052 23.8431 4.22226C15.8111 4.22226 8.44102 7.03003 2.64783 11.723L0 8.43814ZM6.62169 16.6504C11.4928 12.6984 17.574 10.5462 23.8431 10.5556C30.1119 10.5463 36.1929 12.6976 41.0646 16.6482L38.4146 19.9331C34.2929 16.5898 29.1474 14.7694 23.8431 14.7778C18.324 14.7778 13.2539 16.7095 9.27163 19.9331L6.62169 16.6504ZM13.2455 24.8626C16.2429 22.4302 19.9852 21.1055 23.8431 21.1111C27.8571 21.1111 31.5442 22.515 34.4408 24.8605L31.7909 28.1453C29.5427 26.3218 26.7362 25.3289 23.8431 25.3333C20.8327 25.3333 18.0668 26.3868 15.8954 28.1453L13.2455 24.8626ZM19.8693 33.0748C20.9931 32.1623 22.3963 31.6651 23.8431 31.6667C25.3484 31.6667 26.7313 32.1945 27.817 33.0727L23.8431 38L19.8693 33.0748Z" fill="#288173"/>
</svg>
